SplineFontDB: 3.2
FontName: SeriousShannsLight
FullName: Serious Shanns Light
FamilyName: Serious Shanns Light
Weight: Light
Copyright: https://github.com/kaBeech/serious-shanns/blob/main/LICENSE
Version: 6.0.0
ItalicAngle: 0
UnderlinePosition: 0
UnderlineWidth: 0
Ascent: 800
Descent: 200
InvalidEm: 0
sfntRevision: 0x00003333
LayerCount: 2
Layer: 0 0 "Back" 1
Layer: 1 0 "Fore" 0
XUID: [1021 329 -1817886000 12366394]
StyleMap: 0x0040
FSType: 0
OS2Version: 3
OS2_WeightWidthSlopeOnly: 0
OS2_UseTypoMetrics: 0
CreationTime: 1532631502
ModificationTime: 315532800
PfmFamily: 49
TTFWeight: 300
TTFWidth: 5
LineGap: 0
VLineGap: 0
Panose: 0 0 0 0 0 0 0 0 0 0
OS2TypoAscent: 613
OS2TypoAOffset: 0
OS2TypoDescent: -188
OS2TypoDOffset: 0
OS2TypoLinegap: 98
OS2WinAscent: 778
OS2WinAOffset: 0
OS2WinDescent: 308
OS2WinDOffset: 0
HheadAscent: 796
HheadAOffset: 0
HheadDescent: -317
HheadDOffset: 0
OS2SubXSize: 317
OS2SubYSize: 293
OS2SubXOff: 0
OS2SubYOff: 37
OS2SupXSize: 317
OS2SupYSize: 293
OS2SupXOff: 0
OS2SupYOff: 171
OS2StrikeYSize: 0
OS2StrikeYPos: 132
OS2CapHeight: 576
OS2XHeight: 485
OS2Vendor: 'NONE'
OS2CodePages: 00000001.00000000
OS2UnicodeRanges: 00000001.00000000.00000000.00000000
MarkAttachClasses: 1
DEI: 91125
LangName: 1033 "" "" "Normal" "FontForge 2.0 : Serious Shanns Light : 1-1-1980" "" "Version 0.2.0"
Encoding: UnicodeBmp
Compacted: 1
UnicodeInterp: none
NameList: AGL For New Fonts
DisplaySize: -48
AntiAlias: 1
FitToEm: 0
WinInfo: 0 16 2
BeginPrivate: 8
BlueValues 32 [-39 -8 492 523 690 718 765 769]
OtherBlues 11 [-297 -287]
BlueScale 9 0.0333333
BlueShift 2 17
StdHW 4 [67]
StdVW 4 [73]
StemSnapH 4 [67]
StemSnapV 7 [68 73]
EndPrivate
BeginChars: 65537 105

StartChar: .notdef
Encoding: 65536 -1 0
Width: 593
GlyphClass: 1
Flags: HMW
HStem: -258 34<126 467 126 501> 705 34<126 467 126 126>
VStem: 92 34<-224 -224 -224 705> 467 34<-224 705 705 705>
LayerCount: 2
Fore
SplineSet
92 739 m 1
 501 739 l 1
 501 -258 l 1
 92 -258 l 1
 92 739 l 1
126 -224 m 1
 467 -224 l 1
 467 705 l 1
 126 705 l 1
 126 -224 l 1
EndSplineSet
Validated: 1
EndChar

StartChar: exclam
Encoding: 33 33 2
Width: 593
GlyphClass: 2
Flags: HMW
HStem: -15.3799 135.375
VStem: 225 143.001 259 78.001 267 72
LayerCount: 2
Fore
SplineSet
345 738 m 0x90
 345 732 343.666992188 694.669921875 341 626.002929688 c 0
 339 557.3359375 338 507.668945312 338 477.001953125 c 0
 337.666015625 461.66796875 337.499023438 447.583984375 337.499023438 434.75 c 0
 337.499023438 421.916015625 337.666015625 410.33203125 338 399.998046875 c 0
 338.666992188 379.331054688 339 361.6640625 339 346.997070312 c 0x90
 339 332.330078125 338.666992188 322.663085938 338 317.99609375 c 0
 337.111328125 311.331054688 336.666992188 302.1484375 336.666992188 290.44921875 c 0
 336.666992188 284.594726562 336.778320312 278.110351562 337.000976562 270.99609375 c 0xa0
 335.66796875 259.663085938 331.000976562 250.663085938 323.000976562 243.99609375 c 0
 315.66796875 237.329101562 306.66796875 233.99609375 296.000976562 233.99609375 c 2
 293.000976562 233.99609375 l 2
 282.333984375 234.663085938 273.666992188 238.330078125 267 244.997070312 c 0x90
 261.666992188 250.997070312 259 259.330078125 259 269.997070312 c 0xa0
 259 276.6640625 260.333007812 287.997070312 263 303.997070312 c 0
 265 313.330078125 266.333007812 323.330078125 267 333.997070312 c 0
 267.666992188 344.6640625 268 367.331054688 268 401.998046875 c 0
 268 415.998046875 267.333007812 437.331054688 266 465.998046875 c 0
 264.666992188 497.331054688 264 531.6640625 264 568.997070312 c 0
 264.666992188 596.330078125 265.666992188 634.997070312 267 684.997070312 c 0
 267.666992188 710.330078125 268 726.997070312 268 734.997070312 c 0
 268.666992188 750.330078125 272.666992188 761.663085938 280 768.99609375 c 0
 287.333007812 776.329101562 296.666015625 779.99609375 307.999023438 779.99609375 c 2
 310.999023438 779.99609375 l 2
 320.999023438 779.99609375 328.999023438 776.99609375 334.999023438 770.99609375 c 0
 341.666015625 764.329101562 345 753.333007812 345 738 c 0x90
348.999023438 7.9990234375 m 0
 336.33203125 -4.66796875 319.33203125 -12.3349609375 297.999023438 -15.001953125 c 0
 295.33203125 -15.251953125 292.727539062 -15.376953125 290.185546875 -15.376953125 c 0
 272.39453125 -15.376953125 257.666015625 -9.251953125 246 2.998046875 c 0
 232 16.998046875 225 33.998046875 225 53.998046875 c 0
 225 71.3310546875 232.333007812 86.3310546875 247 98.998046875 c 0
 263.666992188 112.998046875 282.333984375 119.998046875 303.000976562 119.998046875 c 0
 321.66796875 119.998046875 337.000976562 113.998046875 349.000976562 101.998046875 c 0
 361.66796875 89.3310546875 368.000976562 73.6640625 368.000976562 54.9970703125 c 0xc0
 368.000976562 36.330078125 361.666015625 20.666015625 348.999023438 7.9990234375 c 0
EndSplineSet
Validated: 524289
EndChar

StartChar: quotedbl
Encoding: 34 34 3
Width: 593
GlyphClass: 2
Flags: HMW
HStem: 444.999 328.002
VStem: 174.001 84 333.003 86.998
LayerCount: 2
Fore
SplineSet
379.000976562 773.000976562 m 0
 389.000976562 773.000976562 398.000976562 770.66796875 406.000976562 766.000976562 c 0
 410.000976562 764.000976562 413.333984375 760.66796875 416.000976562 756.000976562 c 0
 418.66796875 750.66796875 420.000976562 744.66796875 420.000976562 738.000976562 c 2
 420.000976562 696.000976562 l 2
 420.000976562 676.66796875 419.333984375 641.000976562 418.000976562 589.000976562 c 0
 416.66796875 537.000976562 414.66796875 499.333984375 412.000976562 476.000976562 c 0
 410.66796875 466.000976562 406.334960938 458.33203125 399.001953125 452.999023438 c 0
 392.334960938 447.666015625 385.001953125 444.999023438 377.001953125 444.999023438 c 2
 374.001953125 444.999023438 l 2
 363.334960938 445.666015625 353.334960938 449.333007812 344.001953125 456 c 0
 337.334960938 460.666992188 334.001953125 467.333984375 334.001953125 476.000976562 c 0
 334.668945312 477.333984375 335.001953125 479.000976562 335.001953125 481.000976562 c 0
 336.334960938 506.333984375 337.001953125 537.3359375 337.001953125 574.002929688 c 2
 337.001953125 612.000976562 l 2
 335.668945312 665.333984375 334.3359375 709.333984375 333.002929688 744.000976562 c 2
 333.002929688 746.002929688 l 2
 333.002929688 751.3359375 334.334960938 756.000976562 337.001953125 760.000976562 c 0
 339.668945312 764.000976562 343.002929688 766.66796875 347.002929688 768.000976562 c 0
 356.3359375 772.000976562 365.002929688 774.002929688 373.002929688 774.002929688 c 0
 375.669921875 773.3359375 377.66796875 773.000976562 379.000976562 773.000976562 c 0
252 476.000976562 m 0
 250.666992188 465.333984375 246.334960938 457.666015625 239.001953125 452.999023438 c 0
 231.001953125 447.666015625 223.334960938 444.999023438 216.001953125 444.999023438 c 2
 214.001953125 444.999023438 l 2
 203.334960938 445.666015625 193.334960938 449.333007812 184.001953125 456 c 0
 177.334960938 460.666992188 174.001953125 467.333984375 174.001953125 476.000976562 c 2
 174.001953125 481.000976562 l 2
 176.001953125 507.66796875 177.001953125 540.000976562 177.001953125 578.000976562 c 0
 176.334960938 588.66796875 176.001953125 600.000976562 176.001953125 612.000976562 c 0
 174.668945312 665.333984375 173.668945312 709.333984375 173.001953125 744.000976562 c 2
 173.001953125 747.000976562 l 2
 173.001953125 751.66796875 174.001953125 756.000976562 176.001953125 760.000976562 c 0
 178.668945312 764.000976562 182.001953125 766.66796875 186.001953125 768.000976562 c 0
 195.14453125 771.4296875 204.532226562 773.14453125 214.1640625 773.14453125 c 0
 215.76953125 773.14453125 217.381835938 773.096679688 219.000976562 773.000976562 c 0
 229.000976562 773.000976562 238.000976562 770.66796875 246.000976562 766.000976562 c 0
 249.333984375 764.000976562 252.333984375 760.66796875 255.000976562 756.000976562 c 0
 257.66796875 750.66796875 259.000976562 744.334960938 259.000976562 737.001953125 c 0
 259.66796875 729.001953125 260.000976562 715.668945312 260.000976562 697.001953125 c 0
 260.000976562 678.334960938 259.333984375 642.66796875 258.000976562 590.000976562 c 0
 256.66796875 537.333984375 254.666992188 499.333984375 252 476.000976562 c 0
EndSplineSet
Validated: 524289
EndChar

StartChar: numbersign
Encoding: 35 35 4
Width: 593
GlyphClass: 2
Flags: HMW
HStem: 200 63.999 454.998 65.002 695.002 20G
LayerCount: 2
Fore
SplineSet
256.005859375 454.998046875 m 1
 217.000976562 263.999023438 l 1
 252.333984375 264.666015625 295.671875 264.998046875 347.004882812 264.998046875 c 2
 355.004882812 264.998046875 l 1
 367.004882812 324.998046875 378.671875 388.331054688 390.004882812 454.998046875 c 1
 256.005859375 454.998046875 l 1
213 200 m 1
 205 200 l 1
 189.666992188 122.666992188 179 70.6669921875 173 44 c 0
 169 32 160.666992188 22.3330078125 148 15 c 0
 140 10.3330078125 132.333007812 7.9990234375 125 7.9990234375 c 0
 121.666992188 7.33203125 118.333984375 7.6650390625 115.000976562 8.998046875 c 0
 105.66796875 10.998046875 98.66796875 17.666015625 94.0009765625 28.9990234375 c 0
 91.333984375 35.666015625 90 42.3330078125 90 49 c 0
 90 55.6669921875 91.0009765625 62.6669921875 93.0009765625 70 c 0
 98.333984375 86.6669921875 108.666992188 129.666992188 124 199 c 1
 82 199 l 2
 66.6669921875 199 55.6669921875 201.666992188 49 207 c 0
 43 211.666992188 40 218 40 226 c 2
 40 228 l 2
 40.6669921875 236.666992188 43.6669921875 243.666992188 49 249 c 0
 55 255.666992188 65.3330078125 259.333984375 80 260.000976562 c 0
 84.6669921875 260.66796875 92.6669921875 261.000976562 104 261.000976562 c 0
 115.333007812 261.000976562 126.333007812 261.333984375 137 262.000976562 c 1
 175 454.000976562 l 1
 163 454.000976562 l 1
 121 453.000976562 l 1
 118 453.000976562 l 2
 106 452.333984375 96.6669921875 455.000976562 90 461.000976562 c 0
 83.3330078125 466.333984375 80 473.333984375 80 482.000976562 c 2
 80 485.000976562 l 2
 80 493.000976562 83 500.000976562 89 506.000976562 c 0
 95.6669921875 512.66796875 106.333007812 516.334960938 121 517.001953125 c 0
 133.666992188 517.668945312 153.000976562 518.001953125 179.000976562 518.001953125 c 2
 187.000976562 518.001953125 l 1
 217.000976562 680.001953125 l 2
 221.66796875 694.001953125 228.334960938 703.668945312 237.001953125 709.001953125 c 0
 243.668945312 713.001953125 250.3359375 715.001953125 257.002929688 715.001953125 c 0
 259.669921875 715.001953125 262.669921875 714.668945312 266.002929688 714.001953125 c 0
 278.002929688 711.334960938 287.002929688 705.66796875 293.002929688 697.000976562 c 0
 296.3359375 691.66796875 298.002929688 685.000976562 298.002929688 677.000976562 c 0
 298.669921875 672.333984375 298.336914062 667.666992188 297.00390625 663 c 2
 268.00390625 520 l 1
 401.00390625 520 l 1
 429.00390625 673 l 2
 433.670898438 687 440.337890625 696.666992188 449.004882812 702 c 0
 455.004882812 706 461.337890625 708 468.004882812 708 c 0
 471.337890625 707.333007812 475.004882812 706.666015625 479.004882812 705.999023438 c 0
 491.004882812 703.33203125 500.004882812 697.999023438 506.004882812 689.999023438 c 0
 509.337890625 685.33203125 511.004882812 679.33203125 511.004882812 671.999023438 c 0
 511.004882812 667.33203125 510.337890625 661.999023438 509.004882812 655.999023438 c 0
 501.671875 627.999023438 492.671875 582.999023438 482.004882812 520.999023438 c 1
 494.004882812 520.999023438 l 1
 505.004882812 520.999023438 l 2
 519.004882812 520.999023438 530.337890625 517.33203125 539.004882812 509.999023438 c 0
 547.671875 502.666015625 552.338867188 495.333007812 553.005859375 488 c 0
 552.338867188 479.333007812 549.005859375 471.666015625 543.005859375 464.999023438 c 0
 537.005859375 458.999023438 527.338867188 455.665039062 514.005859375 454.998046875 c 2
 469.005859375 454.998046875 l 1
 437.005859375 263.999023438 l 1
 490.004882812 263.999023438 l 2
 502.671875 263.999023438 511.005859375 261.666015625 515.005859375 256.999023438 c 0
 519.005859375 252.33203125 521.338867188 245.33203125 522.005859375 235.999023438 c 0
 522.005859375 225.33203125 520.005859375 217.33203125 516.005859375 211.999023438 c 0
 511.338867188 205.33203125 502.671875 201.999023438 490.004882812 201.999023438 c 2
 426.004882812 201.999023438 l 1
 412.004882812 121.33203125 402.004882812 67.33203125 396.004882812 39.9990234375 c 0
 391.337890625 28.666015625 383.337890625 19.9990234375 372.004882812 13.9990234375 c 0
 364.671875 9.9990234375 357.338867188 7.9990234375 350.005859375 7.9990234375 c 0
 346.672851562 7.33203125 343.005859375 7.6650390625 339.005859375 8.998046875 c 0
 329.005859375 11.6650390625 321.672851562 17.998046875 317.005859375 27.998046875 c 0
 314.338867188 33.998046875 313.005859375 39.998046875 313.005859375 45.998046875 c 0
 313.005859375 51.998046875 314.005859375 58.6650390625 316.005859375 65.998046875 c 0
 322.672851562 92.6650390625 332.005859375 137.665039062 344.005859375 200.998046875 c 1
 332.005859375 200.998046875 l 1
 213 200 l 1
EndSplineSet
Validated: 524289
EndChar

StartChar: dollar
Encoding: 36 36 5
Width: 593
GlyphClass: 2
Flags: HMW
HStem: -18.9971 64.9971 368 63.0029 653 59<330.996 339.998 330.996 339.998>
VStem: 88.999 72.999 268.998 58 268.998 63.002 447.997 73.999
LayerCount: 2
Fore
SplineSet
443.498046875 245.50390625 m 0xfa
 440.498046875 257.170898438 434.998046875 269.337890625 426.998046875 282.004882812 c 0
 418.998046875 294.671875 407.331054688 306.338867188 391.998046875 317.005859375 c 0
 376.665039062 327.005859375 358.665039062 336.005859375 337.998046875 344.005859375 c 2
 326.998046875 349.005859375 l 1
 326.998046875 335.005859375 l 1
 325.997070312 187.005859375 l 2
 325.330078125 132.338867188 324.663085938 89.671875 323.99609375 59.0048828125 c 1
 336.997070312 65 l 2
 367.6640625 79 393.6640625 98.337890625 414.997070312 123.004882812 c 0
 436.997070312 147.671875 447.997070312 176.004882812 447.997070312 208.004882812 c 0
 447.997070312 221.337890625 446.498046875 233.836914062 443.498046875 245.50390625 c 0xfa
189.99609375 469.002929688 m 0
 206.663085938 451.669921875 229.330078125 439.002929688 257.997070312 431.002929688 c 2
 268.998046875 429.002929688 l 1xf6
 269.665039062 483.002929688 269.997070312 551.002929688 269.997070312 633.002929688 c 2
 269.997070312 646.002929688 l 1
 257.997070312 643.002929688 l 2
 230.6640625 633.669921875 208.331054688 619.336914062 190.998046875 600.00390625 c 0
 171.665039062 581.336914062 161.998046875 558.336914062 161.998046875 531.00390625 c 0
 161.998046875 507.00390625 171.329101562 486.3359375 189.99609375 469.002929688 c 0
192.998046875 -11 m 0
 172.998046875 -5.6669921875 156 2 142 12 c 0
 113.333007812 30.6669921875 92.3330078125 52.333984375 79 77.0009765625 c 0
 73.6669921875 89.0009765625 71 99.333984375 71 108.000976562 c 0
 71 119.333984375 76.3330078125 127.666992188 87 133 c 0
 94.3330078125 136.333007812 99.666015625 138.333007812 102.999023438 139 c 0
 106.33203125 139.666992188 108.999023438 140 110.999023438 140 c 2
 116.999023438 140 l 2
 120.999023438 140 125.166015625 138.166992188 129.499023438 134.5 c 0
 133.83203125 130.833007812 138.665039062 125 143.998046875 117 c 0
 157.998046875 95 174.331054688 77.6669921875 192.998046875 65 c 0
 209.665039062 52.3330078125 230.6640625 46 255.997070312 46 c 2
 257.997070312 46 l 1
 266.998046875 46 l 1
 268.331054688 164 268.998046875 266.666992188 268.998046875 354 c 2
 268.998046875 363 l 1
 260.331054688 363.666992188 252.498046875 364.5 245.498046875 365.5 c 2
 227.998046875 368 l 2
 207.331054688 370.666992188 187.998046875 376.666992188 169.998046875 386 c 0
 151.331054688 395.333007812 136.331054688 406.666015625 124.998046875 419.999023438 c 0
 113.665039062 433.33203125 104.83203125 447.499023438 98.4990234375 462.499023438 c 0
 92.166015625 477.499023438 88.9990234375 491.999023438 88.9990234375 505.999023438 c 0
 88.9990234375 528.666015625 92.666015625 550.499023438 99.9990234375 571.499023438 c 0
 107.33203125 592.499023438 117.999023438 611.999023438 131.999023438 629.999023438 c 0
 145.999023438 647.999023438 164.666015625 663.666015625 187.999023438 676.999023438 c 0
 209.999023438 690.33203125 234.997070312 699.665039062 262.997070312 704.998046875 c 2
 268.998046875 705.998046875 l 1xfa
 270.331054688 727.331054688 270.999023438 749.331054688 270.999023438 771.998046875 c 0
 271.666015625 786.665039062 274.166015625 797.83203125 278.499023438 805.499023438 c 0
 282.83203125 813.166015625 289.999023438 816.999023438 299.999023438 816.999023438 c 2
 301.999023438 816.999023438 l 2
 312.666015625 817.666015625 320.333007812 813.999023438 325 805.999023438 c 0
 329.666992188 798.666015625 332 788.333007812 332 775 c 2
 332 713 l 1xf6
 339.998046875 712 l 2
 353.331054688 711.333007812 371.666015625 708 394.999023438 702 c 0
 420.33203125 696 439.33203125 690.666992188 451.999023438 686 c 0
 461.999023438 682.666992188 469.331054688 677 473.998046875 669 c 0
 477.998046875 662.333007812 479.999023438 655.666015625 479.999023438 648.999023438 c 0
 479.999023438 646.999023438 479.666015625 644.666015625 478.999023438 641.999023438 c 0
 478.33203125 635.999023438 476.665039062 631.666015625 473.998046875 628.999023438 c 0
 470.665039062 626.33203125 467.1640625 624.83203125 463.497070312 624.499023438 c 0
 459.830078125 624.166015625 456.331054688 623.999023438 452.998046875 623.999023438 c 0
 439.665039062 623.999023438 424.998046875 627.666015625 408.998046875 634.999023438 c 0
 400.331054688 638.999023438 390.498046875 642.83203125 379.498046875 646.499023438 c 0
 368.498046875 650.166015625 355.331054688 652.333007812 339.998046875 653 c 2
 330.99609375 653 l 1
 326.998046875 423 l 1xfa
 334.998046875 421 l 2
 362.331054688 417.666992188 386.6640625 411 407.997070312 401 c 0
 431.330078125 391 449.830078125 379.666992188 463.497070312 367 c 0
 477.1640625 354.333007812 488.6640625 339.833007812 497.997070312 323.5 c 0
 507.330078125 307.166992188 513.663085938 291 516.99609375 275 c 0
 520.329101562 259 521.99609375 242.333007812 521.99609375 225 c 0
 521.99609375 195.666992188 516.829101562 167.833984375 506.49609375 141.500976562 c 0
 496.163085938 115.16796875 482.163085938 92.3349609375 464.49609375 73.001953125 c 0
 446.829101562 53.6689453125 425.99609375 37.001953125 401.99609375 23.001953125 c 0
 380.663085938 9.001953125 356.99609375 -1.6650390625 330.99609375 -8.998046875 c 2
 323.99609375 -11 l 1
 323.99609375 -17.998046875 l 2
 324.663085938 -57.3310546875 325.330078125 -83.998046875 325.997070312 -97.998046875 c 0
 324.6640625 -109.998046875 320.497070312 -119.165039062 313.497070312 -125.498046875 c 0
 306.497070312 -131.831054688 297.997070312 -134.998046875 287.997070312 -134.998046875 c 2
 286.997070312 -134.998046875 l 1
 285.997070312 -134.998046875 l 2
 277.997070312 -134.998046875 271.997070312 -131.998046875 267.997070312 -125.998046875 c 0
 264.6640625 -120.665039062 262.997070312 -112.998046875 262.997070312 -102.998046875 c 2
 262.997070312 -93.998046875 l 2
 264.330078125 -79.3310546875 264.997070312 -57.6640625 264.997070312 -28.9970703125 c 2
 264.997070312 -18.9970703125 l 1
 255.997070312 -18.9970703125 l 1
 251.997070312 -18.9970703125 l 2
 231.330078125 -18.9970703125 211.665039062 -16.3330078125 192.998046875 -11 c 0
EndSplineSet
Validated: 524289
EndChar

StartChar: percent
Encoding: 37 37 6
Width: 593
GlyphClass: 2
Flags: HMW
HStem: -18.001 57 180.998 54.0323 442 54.999 642.043 52.9575
VStem: 57.001 53.001 73.5039 68.499 233.002 45.998 314.003 49.002 424.001 70.001 484.075 51.9275
LayerCount: 2
Fore
SplineSet
374.00390625 58.9990234375 m 0xf340
 382.670898438 46.9990234375 398.337890625 40.33203125 421.004882812 38.9990234375 c 2
 424.000976562 38.9990234375 l 2xf380
 442.000976562 38.9990234375 456.171875 45.166015625 466.504882812 57.4990234375 c 0
 476.837890625 69.83203125 482.670898438 85.6650390625 484.00390625 104.998046875 c 2
 484.00390625 105.998046875 l 1
 484.00390625 108.998046875 l 2
 484.051757812 110.474609375 484.075195312 111.9296875 484.075195312 113.362304688 c 0
 484.075195312 131.977539062 480.051757812 146.85546875 472.00390625 157.998046875 c 0
 460.670898438 173.331054688 443.337890625 180.998046875 420.004882812 180.998046875 c 0
 402.004882812 180.998046875 388.004882812 173.998046875 378.004882812 159.998046875 c 0
 368.671875 145.998046875 363.671875 128.331054688 363.004882812 106.998046875 c 2
 363.004882812 102.998046875 l 2
 362.953125 101.561523438 362.927734375 100.1484375 362.927734375 98.7587890625 c 0
 362.927734375 82.0966796875 366.619140625 68.8447265625 374.00390625 58.9990234375 c 0xf340
359.001953125 -0.5009765625 m 0
 343.668945312 11.166015625 332.334960938 25.9990234375 325.001953125 43.9990234375 c 0
 317.668945312 61.9990234375 314.00390625 81.33203125 314.00390625 101.999023438 c 2
 314.00390625 103.999023438 l 2
 314.00390625 142.666015625 323.670898438 174.166015625 343.00390625 198.499023438 c 0
 362.336914062 222.83203125 390.336914062 234.999023438 427.00390625 234.999023438 c 0
 428.00390625 235.01953125 428.999023438 235.030273438 429.98828125 235.030273438 c 0
 460.64453125 235.030273438 485.982421875 225.01953125 506.002929688 204.999023438 c 0
 516.002929688 194.33203125 523.669921875 179.999023438 529.002929688 161.999023438 c 0
 533.669921875 147.999023438 536.002929688 132.33203125 536.002929688 114.999023438 c 0xf340
 536.002929688 110.999023438 535.669921875 104.999023438 535.002929688 96.9990234375 c 0
 533.002929688 58.33203125 522.3359375 29.33203125 503.002929688 9.9990234375 c 0
 483.669921875 -8.66796875 454.336914062 -18.0009765625 415.00390625 -18.0009765625 c 2
 412.00390625 -18.0009765625 l 2
 392.00390625 -18.0009765625 374.334960938 -12.16796875 359.001953125 -0.5009765625 c 0
122.004882812 517.999023438 m 0
 131.337890625 505.999023438 148.670898438 498.999023438 174.00390625 496.999023438 c 2
 175.00390625 496.999023438 l 2
 193.00390625 496.999023438 206.670898438 503.33203125 216.00390625 515.999023438 c 0
 225.336914062 528.666015625 230.669921875 544.999023438 232.002929688 564.999023438 c 0
 232.669921875 566.33203125 233.002929688 567.999023438 233.002929688 569.999023438 c 0
 232.3359375 593.33203125 227.002929688 610.999023438 217.002929688 622.999023438 c 0
 206.3359375 635.666015625 191.3359375 641.999023438 172.002929688 641.999023438 c 0
 171.162109375 642.028320312 170.329101562 642.04296875 169.504882812 642.04296875 c 0
 151.373046875 642.04296875 137.206054688 635.028320312 127.002929688 620.999023438 c 0
 117.669921875 607.666015625 112.002929688 589.999023438 110.002929688 567.999023438 c 2
 110.002929688 562.999023438 l 2xfb
 109.955078125 561.618164062 109.931640625 560.259765625 109.931640625 558.922851562 c 0
 109.931640625 541.545898438 113.95703125 527.904296875 122.004882812 517.999023438 c 0
180.001953125 195 m 2
 325.001953125 472 l 2
 373.668945312 565.333007812 406.668945312 632.333007812 424.001953125 673 c 0
 432.001953125 685 443.334960938 691 458.001953125 691 c 0
 464.668945312 691 471.3359375 689.333007812 478.002929688 686 c 0
 488.669921875 680.666992188 494.002929688 673.666992188 494.002929688 665 c 0
 494.002929688 657.666992188 490.671875 648.666992188 484.004882812 638 c 0
 458.671875 597.333007812 402.336914062 493.666015625 315.00390625 326.999023438 c 0
 229.00390625 160.33203125 171.336914062 47.33203125 142.00390625 -12.0009765625 c 0
 130.670898438 -32.0009765625 119.00390625 -42.0009765625 107.00390625 -42.0009765625 c 0
 103.00390625 -42.0009765625 98.1708984375 -40.66796875 92.50390625 -38.0009765625 c 0
 86.8369140625 -35.333984375 82.3369140625 -31.833984375 79.00390625 -27.5009765625 c 0
 75.6708984375 -23.16796875 73.837890625 -17.5009765625 73.5048828125 -10.5009765625 c 0xf780
 73.4853515625 -10.08984375 73.4755859375 -9.6728515625 73.4755859375 -9.2509765625 c 0
 73.4755859375 -2.49609375 75.9853515625 5.5869140625 81.0048828125 14.9990234375 c 0
 95.0048828125 43.666015625 128.001953125 103.666992188 180.001953125 195 c 2
106.500976562 459.5 m 0
 90.16796875 471.166992188 77.8349609375 486 69.501953125 504 c 0
 61.1689453125 522 57.001953125 541.333007812 57.001953125 562 c 2
 57.001953125 564 l 2xfb
 57.001953125 602.666992188 67.6689453125 634.166992188 89.001953125 658.5 c 0
 110.334960938 682.833007812 140.334960938 695 179.001953125 695 c 0
 179.918945312 695.020507812 180.831054688 695.03125 181.73828125 695.03125 c 0
 209.8515625 695.03125 233.272460938 685.020507812 252.000976562 665 c 0
 261.333984375 654.333007812 268.333984375 640 273.000976562 622 c 0
 277.000976562 608 279.000976562 591.666992188 279.000976562 573 c 0
 279.000976562 526.333007812 269.000976562 492.333007812 249.000976562 471 c 0
 231.000976562 451.666992188 203.000976562 442 165.000976562 442 c 2
 163.000976562 442 l 2
 141.66796875 442 122.833984375 447.833007812 106.500976562 459.5 c 0
EndSplineSet
Validated: 524289
EndChar

StartChar: ampersand
Encoding: 38 38 7
Width: 593
GlyphClass: 2
Flags: HMW
HStem: -32 74.001 655.001 59.1001
VStem: 48.0029 80.0029 134.003 76.002 369.005 63.1093
LayerCount: 2
Fore
SplineSet
531 11 m 2
 531 3 l 2
 529 -13 524.333007812 -23 517 -27 c 0
 513 -29.6669921875 508.333007812 -31 503 -31 c 0
 498.333007812 -31 492.666015625 -29.3330078125 485.999023438 -26 c 0
 472.666015625 -19.3330078125 460.999023438 -7.3330078125 450.999023438 10 c 0
 448.999023438 13.3330078125 444.999023438 23 438.999023438 39 c 0
 432.999023438 55 427.999023438 67 423.999023438 75 c 2
 416.999023438 90 l 1
 396.33203125 61.3330078125 384.33203125 45 380.999023438 41 c 0
 377.666015625 37.6669921875 372.333007812 32 365 24 c 0
 357.666992188 16 351.333984375 10 346.000976562 6 c 0
 340.66796875 2.6669921875 333.66796875 -2 325.000976562 -8 c 0
 317.000976562 -14 309.000976562 -18.3330078125 301.000976562 -21 c 0
 293.000976562 -23.6669921875 283.66796875 -26 273.000976562 -28 c 0
 261.66796875 -30.6669921875 250.334960938 -32 239.001953125 -32 c 0
 203.668945312 -32 171.3359375 -23 142.002929688 -5 c 0
 112.669921875 13 89.669921875 37 73.0029296875 67 c 0
 56.3359375 97.6669921875 48.0029296875 130.333984375 48.0029296875 165.000976562 c 0
 48.0029296875 219.000976562 58.0029296875 265.333984375 78.0029296875 304.000976562 c 0
 102.002929688 352.000976562 142.002929688 388.333984375 198.002929688 413.000976562 c 2
 208.002929688 418.000976562 l 1
 198.002929688 434.000976562 188.669921875 449.000976562 180.002929688 463.000976562 c 0
 171.3359375 476.333984375 165.3359375 486.000976562 162.002929688 492.000976562 c 0
 158.669921875 498.000976562 154.669921875 505.333984375 150.002929688 514.000976562 c 0
 145.3359375 522.66796875 142.3359375 530.000976562 141.002929688 536.000976562 c 0
 136.3359375 554.000976562 134.002929688 571.66796875 134.002929688 589.000976562 c 0
 134.002929688 600.333984375 135.669921875 611.333984375 139.002929688 622.000976562 c 0
 141.669921875 632.66796875 146.669921875 643.66796875 154.002929688 655.000976562 c 0
 161.3359375 666.333984375 170.3359375 676.333984375 181.002929688 685.000976562 c 0
 191.669921875 693.66796875 206.002929688 700.66796875 224.002929688 706.000976562 c 0
 241.3359375 711.333984375 261.3359375 714.000976562 284.002929688 714.000976562 c 0
 285.870117188 714.067382812 287.73046875 714.100585938 289.583984375 714.100585938 c 0
 306.263671875 714.100585938 322.403320312 711.400390625 338.002929688 706.000976562 c 0
 356.002929688 700.000976562 372.002929688 691.66796875 386.002929688 681.000976562 c 0
 400.002929688 669.66796875 411.3359375 655.334960938 420.002929688 638.001953125 c 0
 428.002929688 620.668945312 432.002929688 601.3359375 432.002929688 580.002929688 c 0
 432.077148438 577.631835938 432.114257812 575.28515625 432.114257812 572.962890625 c 0
 432.114257812 554.396484375 429.744140625 537.41015625 425.00390625 522.00390625 c 0
 419.670898438 504.00390625 413.00390625 489.336914062 405.00390625 478.00390625 c 0
 397.00390625 466.670898438 387.00390625 455.670898438 375.00390625 445.00390625 c 0
 363.00390625 434.336914062 352.00390625 425.669921875 342.00390625 419.002929688 c 0
 331.336914062 412.3359375 319.00390625 405.668945312 305.00390625 399.001953125 c 2
 296.00390625 395.001953125 l 1
 301.00390625 386.001953125 l 2
 313.670898438 364.668945312 334.337890625 333.668945312 363.004882812 293.001953125 c 0
 391.671875 252.334960938 410.004882812 225.66796875 418.004882812 213.000976562 c 2
 427.004882812 198.000976562 l 1
 437.004882812 217.333984375 444.671875 233.333984375 450.004882812 246.000976562 c 0
 456.004882812 258.66796875 460.671875 268.66796875 464.004882812 276.000976562 c 0
 467.337890625 283.333984375 470.004882812 288.666992188 472.004882812 292 c 0
 482.671875 308 492.338867188 317.666992188 501.005859375 321 c 0
 503.672851562 321.666992188 506.672851562 322 510.005859375 322 c 0
 516.005859375 322 522.338867188 320.333007812 529.005859375 317 c 0
 537.005859375 313.666992188 542.005859375 306.333984375 544.005859375 295.000976562 c 0
 544.672851562 291.66796875 545.005859375 288.66796875 545.005859375 286.000976562 c 0
 545.005859375 276.000976562 542.005859375 264.66796875 536.005859375 252.000976562 c 0
 533.338867188 246.66796875 523.671875 233.66796875 507.004882812 213.000976562 c 0
 490.337890625 192.333984375 476.337890625 173.333984375 465.004882812 156.000976562 c 2
 462.004882812 151.000976562 l 1
 472.671875 133.000976562 492.004882812 99.333984375 520.004882812 50.0009765625 c 0
 527.337890625 38.0009765625 531 25 531 11 c 2
210.004882812 572.000976562 m 0
 210.004882812 554.000976562 214.671875 534.333984375 224.004882812 513.000976562 c 0
 234.004882812 492.333984375 245.671875 474.000976562 259.004882812 458.000976562 c 2
 263.004882812 453.000976562 l 1
 269.004882812 455.000976562 l 2
 284.337890625 459.66796875 297.337890625 464.66796875 308.004882812 470.000976562 c 0
 318.671875 475.333984375 329.004882812 482.333984375 339.004882812 491.000976562 c 0
 349.004882812 499.66796875 356.337890625 510.66796875 361.004882812 524.000976562 c 0
 366.337890625 536.66796875 369.004882812 551.66796875 369.004882812 569.000976562 c 0
 369.004882812 597.000976562 360.337890625 618.333984375 343.004882812 633.000976562 c 0
 325.671875 647.66796875 305.338867188 655.000976562 282.005859375 655.000976562 c 0
 255.338867188 655.000976562 236.005859375 646.000976562 224.005859375 628.000976562 c 0
 214.672851562 614.000976562 210.004882812 595.333984375 210.004882812 572.000976562 c 0
128.005859375 174.000976562 m 0
 128.005859375 136.66796875 138.338867188 105.66796875 159.005859375 81.0009765625 c 0
 179.672851562 55.0009765625 206.672851562 42.0009765625 240.005859375 42.0009765625 c 0
 257.338867188 42.66796875 275.338867188 46.0009765625 294.005859375 52.0009765625 c 0
 300.672851562 54.0009765625 307.672851562 57.66796875 315.005859375 63.0009765625 c 0
 323.005859375 67.66796875 329.005859375 71.66796875 333.005859375 75.0009765625 c 0
 337.005859375 78.333984375 342.005859375 83.333984375 348.005859375 90.0009765625 c 0
 354.005859375 96.66796875 358.005859375 101.334960938 360.005859375 104.001953125 c 0
 362.672851562 106.001953125 366.33984375 110.668945312 371.006835938 118.001953125 c 0
 375.673828125 125.334960938 379.673828125 131.001953125 383.006835938 135.001953125 c 1
 369.006835938 165.001953125 358.006835938 187.334960938 350.006835938 202.001953125 c 0
 341.33984375 218.001953125 325.006835938 243.334960938 301.006835938 278.001953125 c 0
 277.006835938 312.668945312 258.33984375 340.668945312 245.006835938 362.001953125 c 1
 237.006835938 359.001953125 l 2
 216.33984375 349.001953125 198.672851562 337.334960938 184.005859375 324.001953125 c 0
 168.672851562 310.668945312 157.005859375 295.668945312 149.005859375 279.001953125 c 0
 141.672851562 262.334960938 136.33984375 245.66796875 133.006835938 229.000976562 c 0
 129.673828125 212.333984375 128.005859375 194.000976562 128.005859375 174.000976562 c 0
EndSplineSet
Validated: 524289
EndChar

StartChar: quotesingle
Encoding: 39 39 8
Width: 593
GlyphClass: 2
Flags: HMW
HStem: 456 307.126
VStem: 254.001 84
LayerCount: 2
Fore
SplineSet
332 487 m 0
 330.666992188 476.333007812 326.334960938 468.333007812 319.001953125 463 c 0
 311.668945312 458.333007812 304.001953125 456 296.001953125 456 c 2
 294.001953125 456 l 2
 282.668945312 456.666992188 272.668945312 460.333984375 264.001953125 467.000976562 c 0
 257.334960938 472.333984375 254.001953125 479.333984375 254.001953125 488.000976562 c 2
 254.001953125 491.000976562 l 1
 254.001953125 492.000976562 l 2
 255.848632812 519.694335938 256.771484375 551.71875 256.771484375 588.075195312 c 0
 256.771484375 630.48828125 255.514648438 678.796875 253.001953125 733.000976562 c 2
 253.001953125 735.000976562 l 2
 253.001953125 740.333984375 254.001953125 745.000976562 256.001953125 749.000976562 c 0
 258.668945312 753.000976562 262.001953125 755.66796875 266.001953125 757.000976562 c 0
 275.334960938 761.083984375 284.922851562 763.125976562 294.765625 763.125976562 c 0
 296.171875 763.125976562 297.583984375 763.083984375 299.000976562 763.000976562 c 0
 309.000976562 762.333984375 318.000976562 759.666992188 326.000976562 755 c 0
 330.000976562 753 333.333984375 749.666992188 336.000976562 745 c 0
 338.000976562 740.333007812 339.000976562 734 339.000976562 726 c 0
 339.66796875 718 340.000976562 705 340.000976562 687 c 0
 340.000976562 669 339.333984375 637 338.000976562 591 c 0
 336.66796875 545 334.666992188 510.333007812 332 487 c 0
EndSplineSet
Validated: 524289
EndChar

StartChar: parenleft
Encoding: 40 40 9
Width: 593
GlyphClass: 2
Flags: HMW
HStem: -122 64.999 743 61<395.667 409>
VStem: 156.856 78.1449
LayerCount: 2
Fore
SplineSet
435 -93 m 0
 435 -101 431.666992188 -107.666992188 425 -113 c 0
 419 -119 412.333007812 -122 405 -122 c 0
 362.333007812 -121.333007812 323.666015625 -105.666015625 288.999023438 -74.9990234375 c 0
 254.33203125 -44.33203125 225.999023438 -1.33203125 203.999023438 54.0009765625 c 0
 181.999023438 110.000976562 167.33203125 174.333984375 159.999023438 247.000976562 c 0
 157.999023438 267.000976562 156.999023438 292.000976562 156.999023438 322.000976562 c 0
 156.903320312 326.288085938 156.85546875 330.731445312 156.85546875 335.331054688 c 0
 156.85546875 362.921875 158.5703125 396.145507812 161.999023438 435.000976562 c 0
 169.33203125 512.333984375 182.33203125 575.666992188 200.999023438 625 c 0
 208.999023438 647 219.999023438 668.333007812 233.999023438 689 c 0
 247.999023438 709.666992188 263.999023438 728.666992188 281.999023438 746 c 0
 299.33203125 763.333007812 318.999023438 777.333007812 340.999023438 788 c 0
 363.666015625 798.666992188 385.333007812 804 406 804 c 0
 416 804 423.333007812 802 428 798 c 0
 433.333007812 793.333007812 436 785.333007812 436 774 c 0
 436 762.666992188 433.333007812 754.666992188 428 750 c 0
 422 745.333007812 414 743 404 743 c 0
 384.666992188 743 366.666992188 737.333007812 350 726 c 0
 334 715.333007812 320 700.666015625 308 681.999023438 c 0
 284.666992188 647.33203125 267.333984375 604.999023438 256.000976562 554.999023438 c 0
 247.333984375 520.33203125 241.333984375 472.33203125 238.000976562 410.999023438 c 0
 236.000976562 379.666015625 235.000976562 351.666015625 235.000976562 326.999023438 c 0
 235.66796875 301.666015625 236.66796875 279.666015625 238.000976562 260.999023438 c 0
 241.333984375 220.33203125 248.666992188 180.33203125 260 140.999023438 c 0
 270.666992188 101.666015625 283.666992188 67.9990234375 299 39.9990234375 c 0
 313.666992188 11.33203125 330.333984375 -12.0009765625 349.000976562 -30.0009765625 c 0
 368.333984375 -48.0009765625 387.000976562 -57.0009765625 405.000976562 -57.0009765625 c 0
 415.000976562 -57.0009765625 422.66796875 -59.333984375 428.000976562 -64.0009765625 c 0
 432.66796875 -68.66796875 435 -78.3330078125 435 -93 c 0
EndSplineSet
Validated: 524289
EndChar

StartChar: parenright
Encoding: 41 41 10
Width: 593
GlyphClass: 2
Flags: HMW
HStem: -122 65.001 743.001 61
VStem: 357.999 78
LayerCount: 2
Fore
SplineSet
433 247 m 0
 425.666992188 174.333007812 411 110 389 54 c 0
 367 -1.3330078125 338.666992188 -44.3330078125 304 -75 c 0
 268.666992188 -106.333007812 230 -122 188 -122 c 0
 181.333007812 -121.333007812 174.666015625 -118.333007812 167.999023438 -113 c 0
 160.666015625 -107.666992188 156.999023438 -101 156.999023438 -93 c 0
 156.999023438 -78.3330078125 159.666015625 -68.666015625 164.999023438 -63.9990234375 c 0
 169.666015625 -59.33203125 177.333007812 -56.9990234375 188 -56.9990234375 c 0
 206 -56.9990234375 224.333007812 -47.9990234375 243 -29.9990234375 c 0
 261.666992188 -11.33203125 278.666992188 12.0009765625 294 40.0009765625 c 0
 308.666992188 68.0009765625 321.666992188 101.66796875 333 141.000976562 c 0
 344.333007812 180.333984375 351.666015625 220.333984375 354.999023438 261.000976562 c 0
 356.999023438 281.000976562 357.999023438 303.333984375 357.999023438 328.000976562 c 0
 357.999023438 352.66796875 356.999023438 380.334960938 354.999023438 411.001953125 c 0
 351.666015625 471.668945312 345.666015625 519.668945312 336.999023438 555.001953125 c 0
 324.999023438 605.001953125 307.666015625 647.668945312 284.999023438 683.001953125 c 0
 273.666015625 700.334960938 259.666015625 714.66796875 242.999023438 726.000976562 c 0
 226.33203125 737.333984375 208.665039062 743.000976562 189.998046875 743.000976562 c 0
 179.998046875 743.000976562 171.665039062 745.333984375 164.998046875 750.000976562 c 0
 159.665039062 754.000976562 156.998046875 761.66796875 156.998046875 773.000976562 c 0
 156.331054688 780.333984375 156.998046875 786.000976562 158.998046875 790.000976562 c 0
 160.998046875 794.66796875 163.331054688 797.66796875 165.998046875 799.000976562 c 0
 171.998046875 802.333984375 178.998046875 804.000976562 186.998046875 804.000976562 c 0
 208.998046875 804.000976562 230.665039062 798.66796875 251.998046875 788.000976562 c 0
 273.331054688 777.333984375 292.998046875 763.333984375 310.998046875 746.000976562 c 0
 328.998046875 728.66796875 344.998046875 709.66796875 358.998046875 689.000976562 c 0
 372.998046875 667.66796875 383.998046875 646.334960938 391.998046875 625.001953125 c 0
 410.665039062 575.668945312 423.33203125 512.3359375 429.999023438 435.002929688 c 0
 433.999023438 389.669921875 435.999023438 352.002929688 435.999023438 322.002929688 c 0
 435.999023438 292.002929688 435 267 433 247 c 0
EndSplineSet
Validated: 524289
EndChar

StartChar: asterisk
Encoding: 42 42 11
Width: 593
GlyphClass: 2
Flags: HMW
HStem: 303 84<90.3325 93 90 109.999> 315.998 56.999 315.998 69.999
VStem: 363 71.9951
LayerCount: 2
Fore
SplineSet
425 132 m 0x50
 419 128 411.33203125 126.333007812 401.999023438 127 c 0
 393.33203125 127 385.33203125 128.666992188 377.999023438 132 c 0
 370.666015625 135.333007812 365.666015625 140.666015625 362.999023438 147.999023438 c 0
 354.33203125 175.999023438 336.665039062 215.33203125 309.998046875 265.999023438 c 2
 300.998046875 282.999023438 l 1
 292.998046875 265.999023438 l 2
 260.998046875 203.33203125 241.331054688 161.999023438 233.998046875 141.999023438 c 0
 231.998046875 136.666015625 228.665039062 132.333007812 223.998046875 129 c 0
 219.331054688 126.333007812 213.998046875 124.666015625 207.998046875 123.999023438 c 2
 202.998046875 123.999023438 l 2
 190.998046875 123.999023438 180.998046875 126.33203125 172.998046875 130.999023438 c 0
 168.998046875 132.999023438 165.331054688 136.666015625 161.998046875 141.999023438 c 0
 158.665039062 147.999023438 156.33203125 154.666015625 154.999023438 161.999023438 c 2
 154.999023438 164.999023438 l 2
 154.999023438 171.666015625 156.666015625 178.333007812 159.999023438 185 c 2
 235.999023438 309 l 1
 169.33203125 305 122.999023438 303 96.9990234375 303 c 0
 83.666015625 303 73.3330078125 307.333007812 66 316 c 0
 58.6669921875 324 55 333 55 343 c 2
 55 346 l 2
 55 356 57.6669921875 365.333007812 63 374 c 0
 65.6669921875 378.666992188 69.333984375 382 74.0009765625 384 c 0
 79.333984375 386 84.6669921875 387 90 387 c 2
 93 387 l 2x90
 123.666992188 384.333007812 175 380.666015625 247 375.999023438 c 1
 238 391.999023438 l 2
 209.333007812 440.666015625 185.666015625 477.999023438 166.999023438 503.999023438 c 0
 160.33203125 515.33203125 156.999023438 526.33203125 156.999023438 536.999023438 c 2
 156.999023438 542.999023438 l 2
 158.33203125 553.666015625 162.665039062 560.666015625 169.998046875 563.999023438 c 1
 169.998046875 564.999023438 l 1
 175.331054688 568.33203125 181.6640625 569.999023438 188.997070312 569.999023438 c 0
 196.330078125 570.666015625 203.997070312 568.666015625 211.997070312 563.999023438 c 0
 219.997070312 559.33203125 225.997070312 552.665039062 229.997070312 543.998046875 c 0
 237.330078125 527.331054688 259.663085938 483.6640625 296.99609375 412.997070312 c 1
 304.99609375 427.997070312 l 2
 331.663085938 473.997070312 351.99609375 512.330078125 365.99609375 542.997070312 c 0
 369.99609375 550.997070312 375.663085938 557.330078125 382.99609375 561.997070312 c 0
 389.928710938 566.50390625 396.681640625 568.756835938 403.254882812 568.756835938 c 0
 409.322265625 568.756835938 415.236328125 566.836914062 420.99609375 562.997070312 c 0
 425.663085938 560.330078125 429.663085938 556.330078125 432.99609375 550.997070312 c 0
 436.329101562 545.6640625 437.99609375 538.6640625 437.99609375 529.997070312 c 0
 437.99609375 521.330078125 435.329101562 512.997070312 429.99609375 504.997070312 c 0
 408.663085938 473.6640625 384.99609375 434.6640625 358.99609375 387.997070312 c 2
 350.99609375 372.997070312 l 1
 367.99609375 372.997070312 l 2x50
 427.329101562 372.997070312 469.662109375 376.6640625 494.995117188 383.997070312 c 0
 498.328125 385.330078125 501.661132812 385.997070312 504.994140625 385.997070312 c 0
 512.327148438 385.997070312 518.66015625 383.6640625 523.993164062 378.997070312 c 0
 532.66015625 370.997070312 537.327148438 362.6640625 537.994140625 353.997070312 c 0
 537.994140625 348.6640625 537.327148438 343.331054688 535.994140625 337.998046875 c 0
 532.661132812 325.331054688 527.328125 316.998046875 519.995117188 312.998046875 c 0
 517.328125 311.665039062 514.661132812 310.998046875 511.994140625 310.998046875 c 0
 508.661132812 310.331054688 505.994140625 310.331054688 503.994140625 310.998046875 c 0
 486.661132812 314.331054688 455.994140625 315.998046875 411.994140625 315.998046875 c 0x30
 405.328125 316.33203125 396.995117188 316.499023438 386.995117188 316.499023438 c 0
 376.995117188 316.499023438 365.328125 316.33203125 351.995117188 315.998046875 c 1
 427.995117188 185.998046875 l 2
 433.328125 174.665039062 435.995117188 164.665039062 435.995117188 155.998046875 c 0
 435.328125 154.665039062 434.995117188 152.998046875 434.995117188 150.998046875 c 0
 434.328125 141.665039062 431 135.333007812 425 132 c 0x50
EndSplineSet
Validated: 524289
EndChar

StartChar: plus
Encoding: 43 43 12
Width: 593
GlyphClass: 2
Flags: HMW
HStem: 367.001 63.999
VStem: 263.997 62.0029
LayerCount: 2
Fore
SplineSet
154 366 m 2
 140 366 130 369.333007812 124 376 c 0
 117.333007812 382 114 389.666992188 114 399 c 2
 114 402 l 2
 114.666992188 410.666992188 117.666992188 418 123 424 c 0
 129 430 138 433 150 433 c 2
 153 433 l 2
 200.333007812 431.666992188 234.330078125 431 254.997070312 431 c 2
 263.997070312 431 l 1
 263.997070312 441 l 2
 263.997070312 474.333007812 263.333007812 510.333007812 262 549 c 2
 262 553 l 2
 262 563.666992188 265 571.333984375 271 576.000976562 c 0
 276.333007812 580.000976562 284.333007812 582.000976562 295 582.000976562 c 2
 299 582.000976562 l 2
 308.333007812 582.000976562 316 580.000976562 322 576.000976562 c 0
 326.666992188 572.66796875 329 565.66796875 329 555.000976562 c 2
 329 550.000976562 l 2
 327 511.333984375 326 474.333984375 326 439.000976562 c 2
 326 430.000976562 l 1
 446 430.000976562 l 2
 458.666992188 430.000976562 467 427.66796875 471 423.000976562 c 0
 475.666992188 417.66796875 478.333984375 410.666992188 479.000976562 402 c 0
 478.333984375 396.666992188 477.666992188 392.000976562 477 388.000976562 c 0
 476.333007812 384.000976562 474.666015625 380 471.999023438 376 c 0
 468.666015625 370.666992188 461.666015625 368.000976562 450.999023438 368.000976562 c 2
 446.999023438 368.000976562 l 2
 435.666015625 369.333984375 419.666015625 370.000976562 398.999023438 370.000976562 c 0
 378.999023438 370.000976562 354.33203125 369.66796875 324.999023438 369.000976562 c 1
 324.999023438 359.000976562 l 1
 324.999023438 295.000976562 l 2
 325.666015625 270.333984375 326 255.333984375 326 250.000976562 c 0
 325.333007812 238.000976562 322.665039062 229.66796875 317.998046875 225.000976562 c 0
 313.331054688 220.333984375 306.6640625 217.666992188 297.997070312 217 c 0
 287.330078125 217.666992188 279.330078125 220 273.997070312 224 c 0
 267.330078125 228.666992188 263.997070312 237.333984375 263.997070312 250.000976562 c 2
 263.997070312 367.000976562 l 1
 254.997070312 367.000976562 l 1
 154 366 l 2
EndSplineSet
Validated: 524289
EndChar

StartChar: comma
Encoding: 44 44 13
Width: 593
GlyphClass: 2
Flags: HMW
VStem: 204 185.998
LayerCount: 2
Fore
SplineSet
240 -207 m 0
 228 -207 218.333007812 -203.333007812 211 -196 c 0
 207 -191.333007812 204.666992188 -185.666015625 204 -178.999023438 c 0
 203.333007812 -177.666015625 203 -176.666015625 203 -175.999023438 c 0
 203.666992188 -171.999023438 206 -165.999023438 210 -157.999023438 c 0
 224 -137.999023438 243.333007812 -93.666015625 268 -24.9990234375 c 0
 293.333007812 43.66796875 308.666015625 91.66796875 313.999023438 119.000976562 c 0
 315.33203125 125.66796875 318.665039062 131.000976562 323.998046875 135.000976562 c 0
 329.998046875 139.000976562 335.998046875 141.000976562 341.998046875 141.000976562 c 2
 343.998046875 141.000976562 l 2
 350.665039062 141.000976562 356.998046875 140.333984375 362.998046875 139.000976562 c 0
 371.665039062 136.333984375 378.665039062 131.333984375 383.998046875 124.000976562 c 0
 387.998046875 119.333984375 389.998046875 113.333984375 389.998046875 106.000976562 c 0
 389.998046875 104.66796875 389.665039062 102.000976562 388.998046875 98.0009765625 c 0
 382.331054688 65.333984375 367.998046875 15.333984375 345.998046875 -51.9990234375 c 0
 333.998046875 -89.33203125 323.998046875 -117.665039062 315.998046875 -136.998046875 c 0
 307.331054688 -155.665039062 300.6640625 -168.33203125 295.997070312 -174.999023438 c 0
 286.6640625 -187.666015625 274.6640625 -196.666015625 259.997070312 -201.999023438 c 0
 251.997070312 -205.33203125 245.333007812 -207 240 -207 c 0
EndSplineSet
Validated: 524289
EndChar

StartChar: hyphen
Encoding: 45 45 14
Width: 593
GlyphClass: 2
Flags: HMW
HStem: 252 68<184.998 196.665> 259 61
VStem: 151.998 289.002
LayerCount: 2
Fore
SplineSet
152 290 m 2x60
 152 301.333007812 155 309.333007812 161 314 c 0
 165.666992188 318 173 320 183 320 c 0
 221 320 266.333007812 320.333007812 319 321 c 0
 371.666992188 322.333007812 401.666992188 323 409 323 c 0
 421.666992188 323 430 320.666992188 434 316 c 0
 438 310.666992188 440.333007812 303.666992188 441 295 c 0
 441 284.333007812 439 276.333007812 435 271 c 0
 430.333007812 264.333007812 421.666015625 261 408.999023438 261 c 0
 400.33203125 261 366.665039062 259.666992188 307.998046875 257 c 0
 249.331054688 253.666992188 208.331054688 252 184.998046875 252 c 0xa0
 174.331054688 252.666992188 166.331054688 255 160.998046875 259 c 0
 154.998046875 264.333007812 151.998046875 273.333007812 151.998046875 286 c 2
 152 290 l 2x60
EndSplineSet
Validated: 524289
EndChar

StartChar: period
Encoding: 46 46 15
Width: 593
GlyphClass: 2
Flags: HMW
HStem: -4 134.053
VStem: 225.001 143.001
LayerCount: 2
Fore
SplineSet
298 -4 m 2
 289 -4 l 2
 288.086914062 -4.03515625 287.182617188 -4.052734375 286.287109375 -4.052734375 c 0
 270.166015625 -4.052734375 256.737304688 1.6318359375 246.000976562 13 c 0
 232.000976562 27.6669921875 225.000976562 44.6669921875 225.000976562 64 c 0
 225.000976562 81.3330078125 232.333984375 96.3330078125 247.000976562 109 c 0
 263.66796875 123 282.334960938 130 303.001953125 130 c 0
 303.984375 130.03515625 304.958007812 130.052734375 305.922851562 130.052734375 c 0
 323.274414062 130.052734375 337.633789062 124.368164062 349.001953125 113 c 0
 361.668945312 100.333007812 368.001953125 84.666015625 368.001953125 65.9990234375 c 0
 368.001953125 47.33203125 361.668945312 31.6650390625 349.001953125 18.998046875 c 0
 337.001953125 6.3310546875 320 -1.3330078125 298 -4 c 2
EndSplineSet
Validated: 524289
EndChar

StartChar: slash
Encoding: 47 47 16
Width: 593
GlyphClass: 2
Flags: W
LayerCount: 2
Fore
SplineSet
56 -9 m 0
 56 5 59.6669921875 17.6669921875 67 29 c 0
 164.333007812 189 247.666015625 331.333007812 316.999023438 456 c 0
 360.999023438 532.666992188 407.33203125 619.666992188 455.999023438 717 c 0
 460.666015625 725.666992188 466.666015625 732.333984375 473.999023438 737.000976562 c 0
 481.33203125 741.66796875 488.33203125 744.000976562 494.999023438 744.000976562 c 0
 502.33203125 744.000976562 509.999023438 742.333984375 517.999023438 739.000976562 c 0
 526.666015625 733.66796875 532.333007812 726.334960938 535 717.001953125 c 0
 535.666992188 715.001953125 536 712.334960938 536 709.001953125 c 0
 536 704.334960938 533.666992188 695.001953125 529 681.001953125 c 0
 511.666992188 646.334960938 463 562.66796875 383 430.000976562 c 0
 303 297.333984375 254.333007812 214.666992188 237 182 c 0
 229 166.666992188 211.666992188 131.666992188 185 77 c 0
 161 28.3330078125 146 -1.333984375 140 -12.0009765625 c 0
 130.666992188 -28.66796875 118.666992188 -40.3349609375 104 -47.001953125 c 0
 97.3330078125 -50.3349609375 91.3330078125 -52.001953125 86 -52.001953125 c 0
 80 -52.001953125 74.6669921875 -50.3349609375 70 -47.001953125 c 0
 62.6669921875 -43.001953125 58.333984375 -33.3349609375 57.0009765625 -18.001953125 c 0
 56.333984375 -14.6689453125 56 -11.6669921875 56 -9 c 0
EndSplineSet
Validated: 524289
EndChar

StartChar: zero
Encoding: 48 48 17
Width: 593
GlyphClass: 2
Flags: HMW
HStem: -14.998 65.001 646.003 61.999
VStem: 81.0029 79 437.004 74.998
LayerCount: 2
Fore
SplineSet
82 391 m 0
 82.6669921875 418.333007812 84.333984375 441.83203125 87.0009765625 461.499023438 c 0
 89.66796875 481.166015625 93.3349609375 502.333007812 98.001953125 525 c 0
 102.668945312 547.666992188 108.001953125 567.666992188 114.001953125 585 c 0
 129.334960938 625.666992188 155.334960938 656.333984375 192.001953125 677.000976562 c 0
 225.334960938 697.66796875 266.001953125 708.000976562 314.001953125 708.000976562 c 0
 337.334960938 708.000976562 359.334960938 703.66796875 380.001953125 695.000976562 c 0
 402.001953125 686.333984375 422.001953125 673.500976562 440.001953125 656.500976562 c 0
 458.001953125 639.500976562 473.001953125 617.000976562 485.001953125 589.000976562 c 0
 497.001953125 561.000976562 504.668945312 529.000976562 508.001953125 493.000976562 c 0
 510.668945312 453.000976562 512.001953125 409.333984375 512.001953125 362.000976562 c 0
 512.001953125 326.000976562 510.834960938 288.16796875 508.501953125 248.500976562 c 0
 506.168945312 208.833984375 502.001953125 178.000976562 496.001953125 156.000976562 c 0
 484.668945312 114.000976562 470.668945312 80.333984375 454.001953125 55.0009765625 c 0
 446.001953125 43.0009765625 437.001953125 33.0009765625 427.001953125 25.0009765625 c 0
 417.001953125 17.0009765625 406.668945312 10.333984375 396.001953125 5.0009765625 c 0
 386.668945312 -0.33203125 375.3359375 -4.4990234375 362.002929688 -7.4990234375 c 0
 348.669921875 -10.4990234375 335.669921875 -12.4990234375 323.002929688 -13.4990234375 c 0
 310.3359375 -14.4990234375 295.002929688 -14.9990234375 277.002929688 -14.9990234375 c 0
 249.669921875 -14.33203125 224.669921875 -8.6650390625 202.002929688 2.001953125 c 0
 176.669921875 12.6689453125 155.002929688 27.501953125 137.002929688 46.501953125 c 0
 119.002929688 65.501953125 105.169921875 89.001953125 95.5029296875 117.001953125 c 0
 85.8359375 145.001953125 81.0029296875 175.334960938 81.0029296875 208.001953125 c 2
 81.0029296875 214.001953125 l 1
 81.0029296875 309.001953125 l 2
 80.7802734375 316.125976562 80.6689453125 323.918945312 80.6689453125 332.380859375 c 0
 80.6689453125 349.258789062 81.1123046875 368.797851562 82 391 c 0
216.001953125 613.000976562 m 0
 194.668945312 591.000976562 178.334960938 555.998046875 167.001953125 507.998046875 c 0
 163.001953125 490.665039062 160.001953125 470.665039062 158.001953125 447.998046875 c 0
 156.3359375 428.33203125 155.502929688 402.166015625 155.502929688 369.5 c 0
 155.502929688 336.833984375 156.3359375 297.66796875 158.002929688 252.001953125 c 0
 158.669921875 234.001953125 159.169921875 222.501953125 159.502929688 217.501953125 c 0
 159.8359375 212.501953125 160.002929688 209.001953125 160.002929688 207.001953125 c 2
 160.002929688 177.001953125 l 1
 178.002929688 201.001953125 l 1
 260.669921875 323.001953125 335.002929688 448.668945312 401.002929688 578.001953125 c 2
 404.002929688 584.001953125 l 1
 400.002929688 589.001953125 l 2
 388.002929688 607.001953125 373.502929688 621.001953125 356.502929688 631.001953125 c 0
 339.502929688 641.001953125 320.669921875 646.001953125 300.002929688 646.001953125 c 0
 264.002929688 646.001953125 236.001953125 635.000976562 216.001953125 613.000976562 c 0
322.501953125 54.9990234375 m 0
 336.168945312 58.33203125 349.3359375 63.9990234375 362.002929688 71.9990234375 c 0
 387.3359375 88.666015625 407.002929688 119.666015625 421.002929688 164.999023438 c 0
 423.669921875 173.666015625 426.502929688 196.166015625 429.502929688 232.499023438 c 0
 432.502929688 268.83203125 434.669921875 310.33203125 436.002929688 356.999023438 c 0
 436.669921875 369.666015625 437.002929688 381.999023438 437.002929688 393.999023438 c 0
 437.002929688 427.999023438 435.669921875 460.666015625 433.002929688 491.999023438 c 2
 430.002929688 526.999023438 l 1
 414.002929688 494.999023438 l 1
 348.002929688 349.666015625 270.669921875 227.666015625 182.002929688 128.999023438 c 1
 178.002929688 123.999023438 l 1
 180.002929688 117.999023438 l 2
 191.3359375 93.33203125 206.3359375 75.33203125 225.002929688 63.9990234375 c 0
 239.669921875 54.666015625 257.002929688 49.9990234375 277.002929688 49.9990234375 c 0
 293.669921875 49.9990234375 308.834960938 51.666015625 322.501953125 54.9990234375 c 0
EndSplineSet
Validated: 524289
EndChar

StartChar: one
Encoding: 49 49 18
Width: 593
GlyphClass: 2
Flags: HMW
HStem: 1 64.9961<477.999 479.999 477.666 486.333> 520.999 21G
VStem: 263.998 70 274.998 61
LayerCount: 2
Fore
SplineSet
511 59 m 0xe0
 517 53 520 45 520 35 c 0
 520 25 517.166992188 16.8330078125 511.5 10.5 c 0
 505.833007812 4.1669921875 494.666015625 1 477.999023438 1 c 0
 254.666015625 3 130.666015625 4 105.999023438 4 c 0
 93.9990234375 4 85.4990234375 7.1669921875 80.4990234375 13.5 c 0
 75.4990234375 19.8330078125 72.9990234375 28 72.9990234375 38 c 2
 72.9990234375 41 l 2
 72.9990234375 50.3330078125 75.4990234375 58.3330078125 80.4990234375 65 c 0
 85.4990234375 71.6669921875 94.33203125 75 106.999023438 75 c 0
 136.33203125 75 188.665039062 74.3330078125 263.998046875 73 c 1
 263.998046875 83 l 2xe0
 263.998046875 109 263.665039062 127.666992188 262.998046875 139 c 0
 262.331054688 150.333007812 261.998046875 160.666015625 261.998046875 169.999023438 c 0
 261.998046875 180.666015625 262.331054688 212.333007812 262.998046875 265 c 0
 262.998046875 278.333007812 264.498046875 328.666015625 267.498046875 415.999023438 c 0
 270.498046875 503.33203125 272.998046875 567.999023438 274.998046875 609.999023438 c 1
 258.998046875 595.999023438 l 2
 214.998046875 555.999023438 181.998046875 531.666015625 159.998046875 522.999023438 c 0
 156.665039062 521.666015625 153.665039062 520.999023438 150.998046875 520.999023438 c 0
 144.998046875 520.999023438 137.998046875 524.33203125 129.998046875 530.999023438 c 0
 119.331054688 540.33203125 113.998046875 549.33203125 113.998046875 557.999023438 c 2
 113.998046875 558.999023438 l 1
 113.998046875 559.999023438 l 2
 113.998046875 568.666015625 115.998046875 576.666015625 119.998046875 583.999023438 c 0
 123.998046875 591.33203125 131.331054688 598.999023438 141.998046875 606.999023438 c 0
 161.998046875 622.33203125 182.331054688 638.665039062 202.998046875 655.998046875 c 2
 244.998046875 693.998046875 l 2
 252.998046875 701.331054688 261.165039062 707.6640625 269.498046875 712.997070312 c 0
 277.831054688 718.330078125 284.6640625 720.997070312 289.997070312 720.997070312 c 0
 301.330078125 720.997070312 312.997070312 715.6640625 324.997070312 704.997070312 c 0
 331.6640625 698.997070312 336.331054688 693.6640625 338.998046875 688.997070312 c 0
 340.998046875 686.330078125 341.998046875 683.997070312 341.998046875 681.997070312 c 0
 341.331054688 665.997070312 339.331054688 611.330078125 335.998046875 517.997070312 c 0xd0
 332.665039062 424.6640625 330.998046875 369.997070312 330.998046875 353.997070312 c 0
 330.998046875 237.330078125 331.998046875 142.663085938 333.998046875 69.99609375 c 1
 377.331054688 68.6630859375 411.331054688 67.6630859375 435.998046875 66.99609375 c 0
 460.665039062 66.3291015625 475.33203125 65.99609375 479.999023438 65.99609375 c 0
 481.705078125 66.0703125 483.349609375 66.107421875 484.931640625 66.107421875 c 0
 497.5703125 66.107421875 506.260742188 63.7392578125 511 59 c 0xe0
EndSplineSet
Validated: 524289
EndChar

StartChar: two
Encoding: 50 50 19
Width: 593
GlyphClass: 2
Flags: HMW
HStem: -8 64.0029 -1.99512 68.998 647.002 64.998
VStem: 82 81.0029 416.001 80.002
LayerCount: 2
Fore
SplineSet
282 -8 m 0xb8
 252.666992188 -9.3330078125 223 -10 193 -10 c 0
 159.666992188 -9.3330078125 133.666992188 -8 115 -6 c 0
 109 -5.3330078125 104 -3.166015625 100 0.5009765625 c 0
 96 4.16796875 93 9.0009765625 91 15.0009765625 c 0
 85 30.333984375 82 52.5009765625 82 81.5009765625 c 0
 82 110.500976562 88 140.16796875 100 170.500976562 c 0
 112 200.833984375 129.833007812 230.000976562 153.5 258.000976562 c 0
 177.166992188 286.000976562 203.333984375 308.66796875 232.000976562 326.000976562 c 0
 297.333984375 366.66796875 339.333984375 395.000976562 358.000976562 411.000976562 c 0
 384.66796875 433.66796875 402.000976562 458.334960938 410.000976562 485.001953125 c 0
 414.000976562 499.668945312 416.000976562 517.668945312 416.000976562 539.001953125 c 0
 416.000976562 577.001953125 405.000976562 604.668945312 383.000976562 622.001953125 c 0
 363.000976562 638.668945312 335.000976562 647.001953125 299.000976562 647.001953125 c 0
 273.66796875 647.001953125 249.66796875 638.668945312 227.000976562 622.001953125 c 0
 204.333984375 605.334960938 186.000976562 586.66796875 172.000976562 566.000976562 c 0
 166.000976562 558.000976562 161.000976562 552.16796875 157.000976562 548.500976562 c 0
 153.000976562 544.833984375 149.000976562 542.666992188 145.000976562 542 c 2
 139.500976562 542 l 2
 137.16796875 542 134.334960938 542.333007812 131.001953125 543 c 0
 127.668945312 543.666992188 122.3359375 545.666992188 115.002929688 549 c 0
 106.3359375 553.666992188 101.002929688 560 99.0029296875 568 c 2
 99.0029296875 575 l 2
 98.9365234375 575.799804688 98.9033203125 576.623046875 98.9033203125 577.469726562 c 0
 98.9033203125 585.08984375 101.603515625 594.599609375 107.002929688 606 c 0
 113.002929688 617.333007812 122.3359375 629.166015625 135.002929688 641.499023438 c 0
 147.669921875 653.83203125 162.336914062 665.33203125 179.00390625 675.999023438 c 0
 195.670898438 686.666015625 214.00390625 695.333007812 234.00390625 702 c 0
 254.00390625 708.666992188 274.336914062 712 295.00390625 712 c 0
 358.336914062 712 407.669921875 696.333007812 443.002929688 665 c 0
 478.3359375 633.666992188 496.002929688 586 496.002929688 522 c 0
 496.002929688 469.333007812 482.669921875 427 456.002929688 395 c 0
 435.3359375 371.666992188 400.3359375 345.333984375 351.002929688 316.000976562 c 0
 335.669921875 306.000976562 315.002929688 293.333984375 289.002929688 278.000976562 c 0
 261.669921875 262.66796875 239.002929688 243.334960938 221.002929688 220.001953125 c 0
 202.3359375 196.668945312 188.502929688 172.8359375 179.502929688 148.502929688 c 0
 170.502929688 124.169921875 165.002929688 98.0029296875 163.002929688 70.0029296875 c 2
 163.002929688 60.0029296875 l 1
 208.3359375 57.3359375 249.002929688 56.0029296875 285.002929688 56.0029296875 c 0xb8
 311.002929688 56.0029296875 332.3359375 56.669921875 349.002929688 58.0029296875 c 0
 365.669921875 59.3359375 387.669921875 61.0029296875 415.002929688 63.0029296875 c 0
 443.669921875 65.0029296875 462.002929688 66.3359375 470.002929688 67.0029296875 c 2
 480.002929688 67.0029296875 l 2
 483.115234375 67.2255859375 485.8203125 67.3369140625 488.1171875 67.3369140625 c 0
 492.708007812 67.3369140625 495.669921875 66.892578125 497.002929688 66.00390625 c 0
 499.002929688 65.3369140625 501.3359375 64.00390625 504.002929688 62.00390625 c 0
 506.002929688 60.6708984375 507.3359375 59.337890625 508.002929688 58.0048828125 c 0
 510.002929688 54.0048828125 511.002929688 48.337890625 511.002929688 41.0048828125 c 0
 511.002929688 26.337890625 507.3359375 14.337890625 500.002929688 5.0048828125 c 0
 496.669921875 0.337890625 492.336914062 -1.9951171875 487.00390625 -1.9951171875 c 0x78
 439.00390625 -1.9951171875 370.666992188 -4 282 -8 c 0xb8
EndSplineSet
Validated: 524289
EndChar

StartChar: three
Encoding: 51 51 20
Width: 593
GlyphClass: 2
Flags: HMW
HStem: -14.998 64.998 328.002 81.002 647.004 65.001
VStem: 401.997 81 424.996 80.002
LayerCount: 2
Fore
SplineSet
482 532 m 0xf0
 482.666992188 530.666992188 482.997070312 529.333984375 482.997070312 528.000976562 c 0xf0
 482.997070312 511.333984375 480.5 495.833984375 475.5 481.500976562 c 0
 470.5 467.16796875 464 455.16796875 456 445.500976562 c 0
 448 435.833984375 438.166992188 427.000976562 426.5 419.000976562 c 0
 414.833007812 411.000976562 402.666015625 404.66796875 389.999023438 400.000976562 c 0
 378.666015625 395.333984375 366.666015625 391.666992188 353.999023438 389 c 2
 311.999023438 380 l 1
 353.999023438 370 l 2
 377.999023438 364.666992188 399.166015625 357.833984375 417.499023438 349.500976562 c 0
 435.83203125 341.16796875 451.665039062 330.500976562 464.998046875 317.500976562 c 0
 478.331054688 304.500976562 488.331054688 288.333984375 494.998046875 269.000976562 c 0
 501.665039062 249.66796875 504.998046875 226.334960938 504.998046875 199.001953125 c 0
 504.998046875 133.668945312 484.665039062 81.6689453125 443.998046875 43.001953125 c 0
 403.998046875 4.3349609375 350.998046875 -14.998046875 284.998046875 -14.998046875 c 0
 264.998046875 -14.998046875 244.998046875 -11.6650390625 224.998046875 -4.998046875 c 0
 203.665039062 2.3349609375 184.498046875 11.16796875 167.498046875 21.5009765625 c 0
 150.498046875 31.833984375 135.831054688 43.1669921875 123.498046875 55.5 c 0
 111.165039062 67.8330078125 101.998046875 80 95.998046875 92 c 0
 90.6650390625 102 87.998046875 111.333007812 87.998046875 120 c 0
 87.998046875 122.666992188 88.3310546875 125.333984375 88.998046875 128.000976562 c 0
 90.998046875 137.333984375 95.998046875 144.000976562 103.998046875 148.000976562 c 0
 111.331054688 152.000976562 118.331054688 154.000976562 124.998046875 154.000976562 c 0
 127.665039062 154.000976562 130.33203125 153.66796875 132.999023438 153.000976562 c 0
 142.33203125 150.333984375 151.665039062 143.000976562 160.998046875 131.000976562 c 0
 176.331054688 110.333984375 195.6640625 91.6669921875 218.997070312 75 c 0
 240.330078125 58.3330078125 263.663085938 50 288.99609375 50 c 0
 326.99609375 50 358.329101562 62.3330078125 382.99609375 87 c 0
 410.99609375 111.666992188 424.99609375 143.333984375 424.99609375 182.000976562 c 0xe8
 424.99609375 204.66796875 421.329101562 224.834960938 413.99609375 242.501953125 c 0
 406.663085938 260.168945312 395.330078125 275.668945312 379.997070312 289.001953125 c 0
 351.997070312 315.001953125 304.997070312 328.001953125 238.997070312 328.001953125 c 0
 228.997070312 328.001953125 220.330078125 332.334960938 212.997070312 341.001953125 c 0
 205.6640625 349.668945312 201.997070312 359.8359375 201.997070312 371.502929688 c 0
 201.997070312 383.169921875 204.6640625 392.336914062 209.997070312 399.00390625 c 0
 214.6640625 405.670898438 221.997070312 409.00390625 231.997070312 409.00390625 c 0
 283.997070312 409.00390625 324.997070312 420.670898438 354.997070312 444.00390625 c 0
 386.330078125 467.336914062 401.997070312 501.00390625 401.997070312 545.00390625 c 2
 401.997070312 549.00390625 l 1
 401.997070312 553.00390625 l 2
 402.016601562 553.899414062 402.026367188 554.7890625 402.026367188 555.671875 c 0
 402.026367188 585.68359375 391.016601562 608.4609375 368.997070312 624.00390625 c 0
 347.6640625 639.336914062 317.6640625 647.00390625 278.997070312 647.00390625 c 0
 266.330078125 647.00390625 252.997070312 644.670898438 238.997070312 640.00390625 c 0
 234.330078125 638.00390625 229.330078125 634.670898438 223.997070312 630.00390625 c 0
 218.6640625 625.336914062 214.331054688 621.669921875 210.998046875 619.002929688 c 0
 207.665039062 616.3359375 203.498046875 611.8359375 198.498046875 605.502929688 c 0
 193.498046875 599.169921875 189.998046875 594.836914062 187.998046875 592.50390625 c 0
 185.998046875 590.170898438 182.665039062 585.337890625 177.998046875 578.004882812 c 0
 168.665039062 565.337890625 159.665039062 558.004882812 150.998046875 556.004882812 c 0
 148.331054688 555.337890625 145.6640625 555.004882812 142.997070312 555.004882812 c 0
 136.330078125 555.004882812 128.997070312 557.004882812 120.997070312 561.004882812 c 0
 112.997070312 565.004882812 107.997070312 571.671875 105.997070312 581.004882812 c 0
 105.330078125 583.004882812 104.997070312 585.337890625 104.997070312 588.004882812 c 0
 104.997070312 596.671875 107.6640625 606.338867188 112.997070312 617.005859375 c 0
 125.6640625 642.338867188 144.997070312 664.005859375 170.997070312 682.005859375 c 0
 184.330078125 691.338867188 200.330078125 698.671875 218.997070312 704.004882812 c 0
 236.330078125 709.337890625 254.997070312 712.004882812 274.997070312 712.004882812 c 0
 413.6640625 712.004882812 482.997070312 653.337890625 482.997070312 536.004882812 c 0
 482.330078125 534.671875 482 533.333007812 482 532 c 0xf0
EndSplineSet
Validated: 524289
EndChar

StartChar: four
Encoding: 52 52 21
Width: 593
GlyphClass: 2
Flags: HMW
HStem: -13.998 21G 234 61.002 696.001 20G
VStem: 366.002 65.499 373 67.001 373 75.001
LayerCount: 2
Fore
SplineSet
388 -1 m 0xf0
 378.666992188 7 373.666992188 14.6669921875 373 22 c 2
 373 60 l 1xe4
 373 233 l 1xe8
 351.666992188 233.666992188 334 234 320 234 c 0
 232 233.333007812 167.333007812 228.666015625 126 219.999023438 c 0
 122 219.33203125 118 218.999023438 114 218.999023438 c 0
 110 218.999023438 106 219.666015625 102 220.999023438 c 0
 96 223.666015625 91 227.333007812 87 232 c 0
 77.6669921875 244 73 258.333007812 73 275 c 0
 73 283 74.3330078125 291 77 299 c 0
 83.6669921875 317.666992188 101.333984375 347.833984375 130.000976562 389.500976562 c 0
 158.66796875 431.16796875 194.66796875 483.000976562 238.000976562 545.000976562 c 0
 280.66796875 607.000976562 311.000976562 652.333984375 329.000976562 681.000976562 c 0
 336.333984375 692.333984375 344.333984375 700.833984375 353.000976562 706.500976562 c 0
 361.66796875 712.16796875 369.66796875 715.000976562 377.000976562 715.000976562 c 0
 379.000976562 715.66796875 381.000976562 716.000976562 383.000976562 716.000976562 c 0
 391.000976562 716.000976562 399.000976562 713.66796875 407.000976562 709.000976562 c 0
 415.000976562 704.333984375 420.000976562 696.333984375 422.000976562 685.000976562 c 0
 426.000976562 662.333984375 429.16796875 626.833984375 431.500976562 578.500976562 c 0xf0
 433.833984375 530.16796875 435.333984375 489.334960938 436.000976562 456.001953125 c 2
 439.000976562 294.001953125 l 1
 456.333984375 292.668945312 471.833984375 292.001953125 485.500976562 292.001953125 c 0
 499.16796875 292.001953125 508.16796875 289.501953125 512.500976562 284.501953125 c 0
 516.833984375 279.501953125 519.333984375 272.668945312 520.000976562 264.001953125 c 0
 520.000976562 253.334960938 518.000976562 245.334960938 514.000976562 240.001953125 c 0
 508.66796875 233.334960938 499.500976562 230.001953125 486.500976562 230.001953125 c 0
 473.500976562 230.001953125 458.000976562 230.668945312 440.000976562 232.001953125 c 1xe8
 440.66796875 126.668945312 442.66796875 67.001953125 446.000976562 53.001953125 c 0
 447.333984375 45.6689453125 448.000976562 39.001953125 448.000976562 33.001953125 c 0xe4
 448.66796875 22.3349609375 446.66796875 12.66796875 442.000976562 4.0009765625 c 0
 439.333984375 -1.33203125 435.833984375 -5.6650390625 431.500976562 -8.998046875 c 0
 427.16796875 -12.3310546875 422.000976562 -13.998046875 416.000976562 -13.998046875 c 0
 406.66796875 -13.3310546875 397.333007812 -9 388 -1 c 0xf0
366.001953125 603.001953125 m 2xf0
 365.001953125 629.001953125 l 1
 350.001953125 608.001953125 l 2
 259.334960938 478.001953125 197.001953125 377.001953125 163.001953125 305.001953125 c 2
 156.001953125 290.001953125 l 1
 172.001953125 291.001953125 l 2
 207.334960938 293.668945312 250.001953125 295.001953125 300.001953125 295.001953125 c 0
 320.001953125 295.001953125 344.334960938 294.668945312 373.001953125 294.001953125 c 1
 373.001953125 304.001953125 l 2
 373.001953125 429.334960938 370.668945312 529.001953125 366.001953125 603.001953125 c 2xf0
EndSplineSet
Validated: 524289
EndChar

StartChar: five
Encoding: 53 53 22
Width: 593
GlyphClass: 2
Flags: HMW
HStem: -7.99902 64.999 430 69.9971 628.997 69.002 639.996 60.0029
VStem: 88 73.999 96 67.999 434.999 80
LayerCount: 2
Fore
SplineSet
497 166 m 0xd6
 485 127.333007812 468.166992188 95.3330078125 446.5 70 c 0
 424.833007812 44.6669921875 400 25.333984375 372 12.0009765625 c 0
 344.666992188 -1.33203125 314.666992188 -7.9990234375 282 -7.9990234375 c 0
 256.666992188 -7.9990234375 233 -4.9990234375 211 1.0009765625 c 0
 187.666992188 7.0009765625 168 14.833984375 152 24.5009765625 c 0
 136 34.16796875 122.666992188 44.66796875 112 56.0009765625 c 0
 101.333007812 67.333984375 92.666015625 79.0009765625 85.9990234375 91.0009765625 c 0
 80.666015625 103.66796875 77.9990234375 114.000976562 77.9990234375 122.000976562 c 0
 77.9990234375 133.333984375 83.666015625 141.666992188 94.9990234375 147 c 0
 106.33203125 152.333007812 114.33203125 155 118.999023438 155 c 0
 120.999023438 154.333007812 122.666015625 154 123.999023438 154 c 0
 127.999023438 154 131.999023438 152 135.999023438 148 c 0
 139.999023438 144 144.999023438 138 150.999023438 130 c 0
 183.666015625 81.3330078125 224.666015625 57 273.999023438 57 c 0
 321.999023438 57 360.33203125 78 388.999023438 120 c 0
 419.666015625 161.333007812 434.999023438 216.333007812 434.999023438 285 c 0
 434.999023438 328.333007812 424.999023438 363 404.999023438 389 c 0
 385.666015625 416.333007812 357.333007812 430 320 430 c 0
 304 430 287.333007812 428 270 424 c 0
 260.666992188 421.333007812 248.333984375 415.666015625 233.000976562 406.999023438 c 0
 229.000976562 404.999023438 223.833984375 401.166015625 217.500976562 395.499023438 c 0
 211.16796875 389.83203125 207.000976562 385.999023438 205.000976562 383.999023438 c 0
 195.000976562 374.666015625 186.66796875 366.666015625 180.000976562 359.999023438 c 0
 169.333984375 350.666015625 156.333984375 345.333007812 141.000976562 344 c 2
 137.000976562 344 l 2
 130.333984375 344 124.000976562 345.333007812 118.000976562 348 c 0
 109.333984375 351.333007812 102.666992188 359.666015625 98 372.999023438 c 0
 92.6669921875 388.33203125 89.6669921875 407.33203125 89 429.999023438 c 0
 88.3330078125 440.666015625 88 450.999023438 88 460.999023438 c 0xda
 88 485.666015625 89.6669921875 520.666015625 93 565.999023438 c 0
 95 590.666015625 96 607.999023438 96 617.999023438 c 2
 96 620.999023438 l 1
 94 622.999023438 l 2
 88 632.999023438 85 644.999023438 85 658.999023438 c 0
 85 674.33203125 89.3330078125 686.33203125 98 694.999023438 c 0
 103.333007812 700.33203125 109.333007812 702.999023438 116 702.999023438 c 0
 140.666992188 702.33203125 196 701.33203125 282 699.999023438 c 0xd6
 366.666992188 698.666015625 433 697.999023438 481 697.999023438 c 0
 485.666992188 697.999023438 490 695.666015625 494 690.999023438 c 0
 498.666992188 684.999023438 501.666992188 677.83203125 503 669.499023438 c 0
 504.333007812 661.166015625 504.666015625 653.666015625 503.999023438 646.999023438 c 0
 503.33203125 640.33203125 501.499023438 636.165039062 498.499023438 634.498046875 c 0
 495.499023438 632.831054688 493.166015625 631.6640625 491.499023438 630.997070312 c 0
 489.83203125 630.330078125 486.999023438 629.830078125 482.999023438 629.497070312 c 0
 478.999023438 629.1640625 476.166015625 628.997070312 474.499023438 628.997070312 c 0xe6
 472.83203125 628.997070312 469.165039062 629.1640625 463.498046875 629.497070312 c 0
 457.831054688 629.830078125 452.498046875 630.163085938 447.498046875 630.49609375 c 0
 442.498046875 630.829101562 427.998046875 631.99609375 403.998046875 633.99609375 c 0
 381.998046875 635.99609375 362.331054688 637.49609375 344.998046875 638.49609375 c 0
 327.665039062 639.49609375 303.83203125 639.99609375 273.499023438 639.99609375 c 0
 243.166015625 639.99609375 207.666015625 638.663085938 166.999023438 635.99609375 c 1
 166.33203125 623.329101562 165.33203125 600.99609375 163.999023438 568.99609375 c 0xd6
 162.666015625 536.99609375 161.999023438 516.663085938 161.999023438 507.99609375 c 0xda
 161.999023438 499.329101562 162.166015625 490.829101562 162.499023438 482.49609375 c 0
 162.83203125 474.163085938 163.33203125 451.330078125 163.999023438 413.997070312 c 1
 179.999023438 431.997070312 l 2
 197.33203125 451.330078125 219.83203125 467.497070312 247.499023438 480.497070312 c 0
 275.166015625 493.497070312 306.999023438 499.997070312 342.999023438 499.997070312 c 0
 368.999023438 499.997070312 392.666015625 494.6640625 413.999023438 483.997070312 c 0
 436.666015625 473.330078125 455.166015625 458.997070312 469.499023438 440.997070312 c 0
 483.83203125 422.997070312 494.999023438 401.497070312 502.999023438 376.497070312 c 0
 510.999023438 351.497070312 514.999023438 324.6640625 514.999023438 295.997070312 c 0
 514.999023438 247.997070312 509 204.666992188 497 166 c 0xd6
EndSplineSet
Validated: 524289
EndChar

StartChar: six
Encoding: 54 54 23
Width: 593
GlyphClass: 2
Flags: HMW
HStem: -13 64.998 401.999 69.999
VStem: 76.001 69.999 439 78.002
LayerCount: 2
Fore
SplineSet
499 144 m 0
 487 112 470.833007812 84.5 450.5 61.5 c 0
 430.166992188 38.5 406.333984375 20.3330078125 379.000976562 7 c 0
 353.000976562 -6.3330078125 325.66796875 -13 297.000976562 -13 c 0
 261.000976562 -13 229.66796875 -5.3330078125 203.000976562 10 c 0
 173.66796875 25.3330078125 149.66796875 47.166015625 131.000976562 75.4990234375 c 0
 112.333984375 103.83203125 98.5009765625 137.499023438 89.5009765625 176.499023438 c 0
 80.5009765625 215.499023438 76.0009765625 258.666015625 76.0009765625 305.999023438 c 0
 76.0009765625 365.999023438 81.66796875 419.999023438 93.0009765625 467.999023438 c 0
 103.66796875 512.666015625 118.16796875 550.333007812 136.500976562 581 c 0
 154.833984375 611.666992188 177.333984375 637.333984375 204.000976562 658.000976562 c 0
 228.66796875 679.333984375 255.334960938 695.333984375 284.001953125 706.000976562 c 0
 312.668945312 716.66796875 344.668945312 723.66796875 380.001953125 727.000976562 c 2
 386.001953125 727.000976562 l 2
 396.001953125 727.000976562 405.001953125 725.000976562 413.001953125 721.000976562 c 0
 421.001953125 717.000976562 425.668945312 710.333984375 427.001953125 701.000976562 c 2
 427.001953125 700.000976562 l 2
 427.001953125 695.333984375 424.001953125 689.666992188 418.001953125 683 c 0
 410.668945312 674.333007812 402.668945312 668.666015625 394.001953125 665.999023438 c 0
 387.334960938 663.999023438 377.001953125 661.499023438 363.001953125 658.499023438 c 0
 349.001953125 655.499023438 337.001953125 652.33203125 327.001953125 648.999023438 c 0
 317.001953125 645.666015625 305.334960938 640.999023438 292.001953125 634.999023438 c 0
 265.334960938 622.33203125 238.334960938 598.999023438 211.001953125 564.999023438 c 0
 196.334960938 546.33203125 182.66796875 521.665039062 170.000976562 490.998046875 c 0
 157.333984375 460.331054688 149.333984375 432.998046875 146.000976562 408.998046875 c 2
 142.000976562 375.998046875 l 1
 163.000976562 400.998046875 l 2
 183.000976562 424.331054688 207.66796875 441.998046875 237.000976562 453.998046875 c 0
 265.66796875 465.998046875 298.000976562 471.998046875 334.000976562 471.998046875 c 0
 360.66796875 471.331054688 384.66796875 466.998046875 406.000976562 458.998046875 c 0
 428.66796875 450.998046875 448.334960938 438.165039062 465.001953125 420.498046875 c 0
 481.668945312 402.831054688 494.501953125 379.498046875 503.501953125 350.498046875 c 0
 512.501953125 321.498046875 517.001953125 286.665039062 517.001953125 245.998046875 c 0
 517.001953125 209.998046875 511 176 499 144 c 0
148.001953125 228.998046875 m 0
 150.668945312 196.331054688 160.668945312 164.998046875 178.001953125 134.998046875 c 0
 186.668945312 118.998046875 196.668945312 104.998046875 208.001953125 92.998046875 c 0
 218.668945312 80.3310546875 231.668945312 70.3310546875 247.001953125 62.998046875 c 0
 262.334960938 55.6650390625 278.66796875 51.998046875 296.000976562 51.998046875 c 2
 298.000976562 51.998046875 l 2
 322.66796875 51.998046875 345.66796875 61.3310546875 367.000976562 79.998046875 c 0
 388.333984375 97.998046875 405.666992188 120.998046875 419 148.998046875 c 0
 432.333007812 176.998046875 439 205.331054688 439 233.998046875 c 0
 439 266.665039062 436 294.165039062 430 316.498046875 c 0
 424 338.831054688 414.666992188 356.331054688 402 368.998046875 c 0
 390 381.665039062 376.666992188 390.33203125 362 394.999023438 c 0
 347.333007812 399.666015625 330 401.999023438 310 401.999023438 c 0
 278 401.999023438 248 392.999023438 220 374.999023438 c 0
 191.333007812 356.999023438 167.333007812 333.999023438 148 305.999023438 c 1
 146 303.999023438 l 1
 146 300.999023438 l 2
 146 269.666015625 146.668945312 245.665039062 148.001953125 228.998046875 c 0
EndSplineSet
Validated: 524289
EndChar

StartChar: seven
Encoding: 55 55 24
Width: 593
GlyphClass: 2
Flags: HMW
HStem: -14 21G<143.669 149.003> 632.8 71.2011
LayerCount: 2
Fore
SplineSet
493.5 693.5 m 0
 499.166992188 691.166992188 504.333984375 687.333984375 509.000976562 682.000976562 c 0
 513.66796875 676.66796875 516.000976562 669.66796875 516.000976562 661.000976562 c 0
 516.000976562 652.333984375 513.333984375 641.666992188 508.000976562 629 c 0
 498.66796875 609 481.834960938 579 457.501953125 539 c 0
 433.168945312 499 408.3359375 457.666992188 383.002929688 415 c 0
 359.002929688 373 329.669921875 316.833007812 295.002929688 246.5 c 0
 260.3359375 176.166992188 227.668945312 104 197.001953125 30 c 0
 189.668945312 14 180.3359375 2.3330078125 169.002929688 -5 c 0
 161.002929688 -11 153.002929688 -14 145.002929688 -14 c 0
 142.3359375 -14 140.002929688 -13.6669921875 138.002929688 -13 c 0
 127.3359375 -10.3330078125 119.668945312 -3.8330078125 115.001953125 6.5 c 0
 112.959960938 11.0205078125 111.939453125 15.701171875 111.939453125 20.541015625 c 0
 111.939453125 26.763671875 113.626953125 33.25 117.001953125 40 c 0
 151.668945312 108 187.3359375 176 224.002929688 244 c 0
 259.3359375 312 288.502929688 366.166992188 311.502929688 406.5 c 0
 334.502929688 446.833007812 356.002929688 486.333007812 376.002929688 525 c 0
 396.669921875 563 411.002929688 594 419.002929688 618 c 2
 423.002929688 631 l 1
 385.803710938 632.200195312 348.96484375 632.799804688 312.485351562 632.799804688 c 0
 288.165039062 632.799804688 264.00390625 632.533203125 240.002929688 632 c 0
 176.002929688 630 133.669921875 626.333007812 113.002929688 621 c 0
 111.002929688 620.333007812 108.669921875 620 106.002929688 620 c 0
 103.3359375 620 100.668945312 620.666992188 98.001953125 622 c 0
 93.3349609375 623.333007812 89.66796875 626 87.0009765625 630 c 0
 81.0009765625 638.666992188 77.66796875 648.666992188 77.0009765625 660 c 0
 77.0009765625 669.333007812 79.16796875 676.833007812 83.5009765625 682.5 c 0
 87.833984375 688.166992188 97.0009765625 692.333984375 111.000976562 695.000976562 c 0
 146.333984375 701.000976562 202.333984375 704.000976562 279.000976562 704.000976562 c 0
 303.000976562 704.000976562 350.000976562 702.333984375 420.000976562 699.000976562 c 0
 455.333984375 697.66796875 474.333984375 697.000976562 477.000976562 697.000976562 c 0
 482.333984375 697.000976562 487.833007812 695.833007812 493.5 693.5 c 0
EndSplineSet
Validated: 524289
EndChar

StartChar: eight
Encoding: 56 56 25
Width: 593
GlyphClass: 2
Flags: HMW
HStem: -17.999 66.001 656.002 52.001
VStem: 70.002 66.9971 97.0029 73.9971 409.002 70 449 74.002
LayerCount: 2
Fore
SplineSet
515 142.5 m 0xc4
 509.666992188 122.166992188 500.5 102.333984375 487.5 83.0009765625 c 0
 474.5 63.66796875 458.833007812 46.66796875 440.5 32.0009765625 c 0
 422.166992188 17.333984375 399.333984375 5.333984375 372.000976562 -3.9990234375 c 0
 346.000976562 -13.33203125 317.333984375 -17.9990234375 286.000976562 -17.9990234375 c 0
 254.66796875 -17.9990234375 227.000976562 -13.666015625 203.000976562 -4.9990234375 c 0
 177.66796875 3.66796875 157.000976562 15.0009765625 141.000976562 29.0009765625 c 0
 125.000976562 43.0009765625 111.333984375 59.5009765625 100.000976562 78.5009765625 c 0
 88.66796875 97.5009765625 80.8349609375 116.66796875 76.501953125 136.000976562 c 0
 72.1689453125 155.333984375 70.001953125 175.500976562 70.001953125 196.500976562 c 0xe4
 70.001953125 217.500976562 75.501953125 240.333984375 86.501953125 265.000976562 c 0
 97.501953125 289.66796875 113.334960938 312.66796875 134.001953125 334.000976562 c 0
 154.668945312 355.333984375 177.001953125 370.000976562 201.001953125 378.000976562 c 2
 223.001953125 386.000976562 l 1
 202.001953125 396.000976562 l 2
 168.668945312 412.000976562 142.8359375 432.66796875 124.502929688 458.000976562 c 0
 106.169921875 483.333984375 97.0029296875 509.000976562 97.0029296875 535.000976562 c 0
 97.0029296875 542.333984375 97.5029296875 550.333984375 98.5029296875 559.000976562 c 0
 99.5029296875 567.66796875 102.002929688 577.834960938 106.002929688 589.501953125 c 0
 110.002929688 601.168945312 114.8359375 612.3359375 120.502929688 623.002929688 c 0
 126.169921875 633.669921875 134.169921875 644.169921875 144.502929688 654.502929688 c 0
 154.8359375 664.8359375 166.668945312 674.002929688 180.001953125 682.002929688 c 0
 192.668945312 689.3359375 208.168945312 695.502929688 226.501953125 700.502929688 c 0
 244.834960938 705.502929688 265.334960938 708.002929688 288.001953125 708.002929688 c 0
 310.668945312 708.002929688 331.168945312 705.669921875 349.501953125 701.002929688 c 0
 367.834960938 696.3359375 383.334960938 690.002929688 396.001953125 682.002929688 c 0
 409.334960938 674.002929688 421.16796875 664.8359375 431.500976562 654.502929688 c 0
 441.833984375 644.169921875 449.833984375 633.669921875 455.500976562 623.002929688 c 0
 461.16796875 612.3359375 465.834960938 601.002929688 469.501953125 589.002929688 c 0
 473.168945312 577.002929688 475.668945312 566.502929688 477.001953125 557.502929688 c 0
 478.334960938 548.502929688 479.001953125 540.002929688 479.001953125 532.002929688 c 0xd8
 479.001953125 524.002929688 478.001953125 516.502929688 476.001953125 509.502929688 c 0
 474.001953125 502.502929688 471.668945312 496.169921875 469.001953125 490.502929688 c 0
 466.334960938 484.8359375 462.501953125 479.002929688 457.501953125 473.002929688 c 0
 452.501953125 467.002929688 447.668945312 461.669921875 443.001953125 457.002929688 c 0
 435.001953125 448.3359375 421.334960938 437.3359375 402.001953125 424.002929688 c 0
 394.001953125 418.002929688 381.001953125 408.3359375 363.001953125 395.002929688 c 1
 378.001953125 388.002929688 l 2
 400.668945312 378.002929688 421.001953125 366.502929688 439.001953125 353.502929688 c 0
 457.001953125 340.502929688 471.168945312 327.669921875 481.501953125 315.002929688 c 0
 491.834960938 302.3359375 500.334960938 289.168945312 507.001953125 275.501953125 c 0
 513.668945312 261.834960938 518.001953125 249.501953125 520.001953125 238.501953125 c 0
 522.001953125 227.501953125 523.001953125 216.001953125 523.001953125 204.001953125 c 0
 523.001953125 183.334960938 520.333007812 162.833007812 515 142.5 c 0xc4
204.001953125 472.001953125 m 0
 223.334960938 454.001953125 255.001953125 436.334960938 299.001953125 419.001953125 c 1
 302.001953125 417.001953125 l 1
 306.001953125 419.001953125 l 2
 332.001953125 430.334960938 355.334960938 446.334960938 376.001953125 467.001953125 c 0
 398.001953125 488.334960938 409.001953125 509.001953125 409.001953125 529.001953125 c 0
 409.001953125 549.001953125 403.668945312 568.668945312 393.001953125 588.001953125 c 0
 382.334960938 607.334960938 367.66796875 623.501953125 349.000976562 636.501953125 c 0
 330.333984375 649.501953125 310.333984375 656.001953125 289.000976562 656.001953125 c 2
 287.000976562 656.001953125 l 2
 256.333984375 655.334960938 229.666992188 643.001953125 207 619.001953125 c 0
 183 595.001953125 171 568.001953125 171 538.001953125 c 0xd8
 171 513.334960938 182.001953125 491.334960938 204.001953125 472.001953125 c 0
161 113.501953125 m 0
 177 91.8349609375 196.333007812 75.3349609375 219 64.001953125 c 0
 241 53.3349609375 264.666992188 48.001953125 290 48.001953125 c 0
 308 48.001953125 326 51.001953125 344 57.001953125 c 0
 362 63.001953125 378.666992188 71.6689453125 394 83.001953125 c 0
 410 95.001953125 423.166992188 110.168945312 433.5 128.501953125 c 0
 443.833007812 146.834960938 449 166.66796875 449 188.000976562 c 0
 449 200.000976562 448.166992188 211.16796875 446.5 221.500976562 c 0
 444.833007812 231.833984375 440.666015625 243.666992188 433.999023438 257 c 0
 427.33203125 270.333007812 418.33203125 282.666015625 406.999023438 293.999023438 c 0
 396.33203125 305.33203125 382.165039062 316.83203125 364.498046875 328.499023438 c 0
 346.831054688 340.166015625 324.998046875 351.333007812 298.998046875 362 c 1
 295.998046875 361 l 2
 250.665039062 347.666992188 213.33203125 324.666992188 183.999023438 292 c 0
 152.666015625 259.333007812 136.999023438 224 136.999023438 186 c 0xe4
 136.999023438 159.333007812 145 135.168945312 161 113.501953125 c 0
EndSplineSet
Validated: 524289
EndChar

StartChar: nine
Encoding: 57 57 26
Width: 593
GlyphClass: 2
Flags: HMW
HStem: -13 21G<179.001 184.001 184.001 192.001> 244.999 69 664.999 64.002
VStem: 76 78<464 497> 447.999 69.001
LayerCount: 2
Fore
SplineSet
498 238 m 0
 486 196 469.666992188 160.333007812 449 131 c 0
 428.333007812 101.666992188 404 76.6669921875 376 56 c 0
 349.333007812 35.3330078125 320.833007812 19.5 290.5 8.5 c 0
 260.166992188 -2.5 227.333984375 -9.6669921875 192.000976562 -13 c 2
 184.000976562 -13 l 2
 174.000976562 -13 164.833984375 -10.8330078125 156.500976562 -6.5 c 0
 148.16796875 -2.1669921875 143.334960938 4.3330078125 142.001953125 13 c 2
 142.001953125 14 l 2
 142.001953125 19.3330078125 145.001953125 25.3330078125 151.001953125 32 c 0
 158.334960938 40 166.66796875 45.3330078125 176.000976562 48 c 0
 183.333984375 50.6669921875 194.666992188 53.6669921875 210 57 c 0
 225.333007812 60.3330078125 239 63.666015625 251 66.9990234375 c 0
 263 70.33203125 276.666992188 75.1650390625 292 81.498046875 c 0
 307.333007812 87.8310546875 322.166015625 96.498046875 336.499023438 107.498046875 c 0
 350.83203125 118.498046875 364.33203125 131.665039062 376.999023438 146.998046875 c 0
 392.999023438 167.665039062 407.666015625 190.998046875 420.999023438 216.998046875 c 0
 434.33203125 242.998046875 443.33203125 266.998046875 447.999023438 288.998046875 c 2
 454.999023438 324.998046875 l 1
 430.999023438 296.998046875 l 2
 413.666015625 277.665039062 392.333007812 264.33203125 367 256.999023438 c 0
 342.333007812 248.999023438 310.666015625 244.999023438 271.999023438 244.999023438 c 0
 246.666015625 244.999023438 222.333007812 251.666015625 199 264.999023438 c 0
 174.333007812 277.666015625 153 294.833007812 135 316.5 c 0
 117 338.166992188 102.666992188 363.166992188 92 391.5 c 0
 81.3330078125 419.833007812 76 449 76 479 c 0
 76 515 82 548.666992188 94 580 c 0
 106 611.333007812 122 637.833007812 142 659.5 c 0
 162 681.166992188 185.666992188 698.333984375 213 711.000976562 c 0
 239 723.000976562 266.666992188 729.000976562 296 729.000976562 c 0
 367.333007812 729.000976562 422 699.66796875 460 641.000976562 c 0
 498 582.333984375 517 498.666992188 517 390 c 0
 517 333.333007812 510.666992188 282.666992188 498 238 c 0
192 359.999023438 m 0
 215.333007812 329.33203125 249.666015625 313.999023438 294.999023438 313.999023438 c 0
 322.999023438 313.999023438 350.33203125 320.999023438 376.999023438 334.999023438 c 0
 405.666015625 348.999023438 428.666015625 368.33203125 445.999023438 392.999023438 c 2
 447.999023438 395.999023438 l 1
 447.999023438 411.999023438 l 2
 447.999023438 430.666015625 446.999023438 455.666015625 444.999023438 486.999023438 c 2
 444.999023438 487.999023438 l 2
 441.666015625 520.666015625 431.666015625 551.999023438 414.999023438 581.999023438 c 0
 406.33203125 597.999023438 396.33203125 611.999023438 384.999023438 623.999023438 c 0
 374.33203125 635.999023438 361.33203125 645.83203125 345.999023438 653.499023438 c 0
 330.666015625 661.166015625 314.333007812 664.999023438 297 664.999023438 c 2
 295 664.999023438 l 2
 271 664.33203125 248.333007812 655.665039062 227 638.998046875 c 0
 205.666992188 622.331054688 188.166992188 600.6640625 174.5 573.997070312 c 0
 160.833007812 547.330078125 154 519.663085938 154 490.99609375 c 0
 154 434.329101562 166.666992188 390.666015625 192 359.999023438 c 0
EndSplineSet
Validated: 524289
EndChar

StartChar: colon
Encoding: 58 58 27
Width: 593
GlyphClass: 2
Flags: HMW
HStem: 49.001 136.124 317 135.143
VStem: 241.997 110.001
LayerCount: 2
Fore
SplineSet
300 317 m 2
 297 317 l 2
 281 317.666992188 268.333007812 320.666992188 259 326 c 0
 249 332 243.333007812 341.333007812 242 354 c 0
 241.333007812 365.333007812 241 377 241 389 c 0
 240.666015625 394.666015625 240.499023438 400.249023438 240.499023438 405.749023438 c 0
 240.499023438 411.249023438 240.666015625 416.666015625 241 422 c 0
 241.666992188 428.666992188 243.666992188 434 247 438 c 0
 250.333007812 442 254.666015625 445 259.999023438 447 c 0
 270.284179688 450.428710938 281.059570312 452.143554688 292.32421875 452.143554688 c 0
 294.202148438 452.143554688 296.09375 452.095703125 297.999023438 452 c 0
 303.33203125 452 308.665039062 451.333007812 313.998046875 450 c 0
 327.998046875 447.333007812 337.665039062 442 342.998046875 434 c 0
 346.331054688 429.333007812 348.331054688 423.333007812 348.998046875 416 c 0
 349.665039062 412 349.998046875 408 349.998046875 404 c 0
 349.998046875 386.666992188 347.331054688 368.333984375 341.998046875 349.000976562 c 0
 339.331054688 338.333984375 333.6640625 330.333984375 324.997070312 325.000976562 c 0
 316.330078125 319.66796875 308 317 300 317 c 2
296.997070312 49.0009765625 m 0
 284.330078125 49.0009765625 271.997070312 53.0009765625 259.997070312 61.0009765625 c 0
 249.997070312 67.0009765625 244.330078125 75.333984375 242.997070312 86.0009765625 c 0
 242.330078125 104.000976562 241.997070312 114.000976562 241.997070312 116.000976562 c 0
 241.997070312 118.000976562 242.330078125 123.66796875 242.997070312 133.000976562 c 0
 243.6640625 142.333984375 244.331054688 149.666992188 244.998046875 155 c 0
 244.998046875 161 246.665039062 166 249.998046875 170 c 0
 252.665039062 174 256.665039062 177 261.998046875 179 c 0
 273.6640625 183.083007812 284.564453125 185.125 294.69921875 185.125 c 0
 296.147460938 185.125 297.580078125 185.083007812 298.997070312 185 c 0
 305.6640625 185 312.331054688 184 318.998046875 182 c 0
 326.331054688 180 332.998046875 176 338.998046875 170 c 0
 344.998046875 164 348.665039062 157 349.998046875 149 c 0
 351.331054688 140.333007812 351.998046875 132 351.998046875 124 c 0
 351.998046875 110 349.998046875 95.6669921875 345.998046875 81 c 0
 343.331054688 70.3330078125 336.6640625 62.3330078125 325.997070312 57 c 0
 315.997070312 51.6669921875 306.330078125 49.0009765625 296.997070312 49.0009765625 c 0
EndSplineSet
Validated: 524289
EndChar

StartChar: semicolon
Encoding: 59 59 28
Width: 593
GlyphClass: 2
Flags: HMW
HStem: 275.002 136.001
VStem: 270.336 109.666
LayerCount: 2
Fore
SplineSet
360.000976562 79.001953125 m 0
 360.000976562 62.3349609375 338.333984375 -25.33203125 295.000976562 -183.999023438 c 0
 291.66796875 -195.999023438 286.334960938 -204.33203125 279.001953125 -208.999023438 c 0
 271.668945312 -213.666015625 264.001953125 -215.999023438 256.001953125 -215.999023438 c 2
 254.001953125 -215.999023438 l 2
 242.668945312 -215.33203125 232.3359375 -211.665039062 223.002929688 -204.998046875 c 0
 216.3359375 -200.331054688 213.002929688 -193.6640625 213.002929688 -184.997070312 c 0
 213.002929688 -173.6640625 220.002929688 -133.331054688 234.002929688 -63.998046875 c 0
 246.669921875 -2.6650390625 257.002929688 44.3349609375 265.002929688 77.001953125 c 0
 267.002929688 85.6689453125 269.502929688 92.3359375 272.502929688 97.0029296875 c 0
 275.502929688 101.669921875 278.3359375 104.669921875 281.002929688 106.002929688 c 0
 287.669921875 108.669921875 294.002929688 110.002929688 300.002929688 110.002929688 c 0
 302.002929688 110.002929688 304.3359375 109.669921875 307.002929688 109.002929688 c 2
 308.002929688 109.002929688 l 2
 319.3359375 109.002929688 331.002929688 106.3359375 343.002929688 101.002929688 c 0
 349.002929688 98.3359375 353.669921875 94.6689453125 357.002929688 90.001953125 c 0
 359.002929688 87.3349609375 360.000976562 83.6689453125 360.000976562 79.001953125 c 0
328.002929688 275.001953125 m 2
 320.669921875 275.668945312 312.833984375 277.333984375 304.500976562 280.000976562 c 0
 296.16796875 282.66796875 288.834960938 286.834960938 282.501953125 292.501953125 c 0
 276.168945312 298.168945312 272.668945312 304.668945312 272.001953125 312.001953125 c 0
 271.334960938 323.334960938 270.834960938 334.834960938 270.501953125 346.501953125 c 0
 270.390625 350.38671875 270.334960938 354.216796875 270.334960938 357.991210938 c 0
 270.334960938 365.55078125 270.557617188 372.887695312 271.002929688 380.002929688 c 0
 271.669921875 386.002929688 273.669921875 391.169921875 277.002929688 395.502929688 c 0
 280.3359375 399.8359375 285.002929688 403.002929688 291.002929688 405.002929688 c 0
 297.002929688 407.002929688 302.8359375 408.502929688 308.502929688 409.502929688 c 0
 314.169921875 410.502929688 318.502929688 411.002929688 321.502929688 411.002929688 c 2
 328.002929688 411.002929688 l 2
 339.3359375 410.3359375 350.000976562 407.668945312 360.000976562 403.001953125 c 0
 365.333984375 401.001953125 369.668945312 397.501953125 373.001953125 392.501953125 c 0
 376.334960938 387.501953125 378.334960938 381.668945312 379.001953125 375.001953125 c 0
 379.668945312 371.001953125 380.001953125 367.001953125 380.001953125 363.001953125 c 0
 380.001953125 345.001953125 377.334960938 326.334960938 372.001953125 307.001953125 c 0
 369.334960938 296.334960938 363.66796875 288.334960938 355.000976562 283.001953125 c 0
 346.333984375 277.668945312 338.000976562 275.001953125 330.000976562 275.001953125 c 2
 328.500976562 275.001953125 l 1
 328.002929688 275.001953125 l 2
EndSplineSet
Validated: 524289
EndChar

StartChar: less
Encoding: 60 60 29
Width: 593
GlyphClass: 2
Flags: HMW
HStem: 683 20G<483.667 491.001>
LayerCount: 2
Fore
SplineSet
525 648 m 0
 518.333007812 637.333007812 504.333007812 624.333007812 483 609 c 0
 445.666992188 583 389 540.333007812 313 481 c 0
 236.333007812 421 184.333007812 380.666992188 157 360 c 1
 168 353 l 2
 193.333007812 333 222 308.666992188 254 280 c 0
 286 251.333007812 314 225.666015625 338 202.999023438 c 0
 362 179.666015625 388 155.999023438 416 131.999023438 c 0
 444.666992188 107.999023438 469.333984375 89.33203125 490.000976562 75.9990234375 c 0
 511.333984375 61.9990234375 525.000976562 50.33203125 531.000976562 40.9990234375 c 0
 533.66796875 36.9990234375 535.000976562 32.666015625 535.000976562 27.9990234375 c 0
 535.000976562 25.9990234375 534.333984375 22.666015625 533.000976562 17.9990234375 c 0
 531.000976562 12.666015625 527.333984375 8.3330078125 522.000976562 5 c 0
 516.66796875 1.6669921875 509.000976562 -0.666015625 499.000976562 -1.9990234375 c 0
 496.333984375 -2.666015625 494.000976562 -2.9990234375 492.000976562 -2.9990234375 c 0
 483.333984375 -2.9990234375 473.666992188 -0.9990234375 463 3.0009765625 c 0
 446.333007812 8.333984375 426.333007812 19.6669921875 403 37 c 0
 379 54.3330078125 353 75.666015625 325 100.999023438 c 0
 297 126.33203125 269 151.999023438 241 177.999023438 c 0
 213 203.999023438 183.333007812 230.666015625 152 257.999023438 c 0
 120.666992188 285.33203125 94 306.999023438 72 322.999023438 c 0
 65.3330078125 328.33203125 61 335.665039062 59 344.998046875 c 0
 58.3330078125 349.665039062 58 354.33203125 58 358.999023438 c 0
 58 363.666015625 58.6669921875 368.333007812 60 373 c 0
 62.6669921875 381.666992188 67 388 73 392 c 0
 111 420 155.666992188 455.333007812 207 498 c 0
 258.333007812 540.666992188 305 579 347 613 c 0
 389.666992188 647 427.333984375 673.666992188 460.000976562 693 c 0
 470.000976562 699.666992188 479.333984375 703 488.000976562 703 c 0
 494.000976562 703 499.000976562 701.666992188 503.000976562 699 c 0
 514.333984375 693 522.333984375 684.666992188 527.000976562 674 c 0
 529.000976562 669.333007812 530.000976562 665 530.000976562 661 c 0
 529.333984375 657 527.666992188 652.666992188 525 648 c 0
EndSplineSet
Validated: 524289
EndChar

StartChar: equal
Encoding: 61 61 30
Width: 593
GlyphClass: 2
Flags: HMW
HStem: 256.909 63.091 452.907 66.0929
LayerCount: 2
Fore
SplineSet
150 519 m 2
 153 519 l 2
 191 517.666992188 230 517 270 517 c 0
 310.666992188 517 348.333984375 517.333007812 383.000976562 518 c 0
 417.66796875 518.666992188 438.66796875 519 446.000976562 519 c 0
 458.66796875 518.333007812 467.000976562 515.666015625 471.000976562 510.999023438 c 0
 475.66796875 506.33203125 478.334960938 499.665039062 479.001953125 490.998046875 c 0
 478.334960938 473.665039062 473.334960938 462.998046875 464.001953125 458.998046875 c 0
 461.334960938 457.665039062 458.334960938 456.998046875 455.001953125 456.998046875 c 2
 447.001953125 456.998046875 l 2
 431.668945312 457.665039062 417.668945312 457.998046875 405.001953125 457.998046875 c 2
 370.001953125 457.998046875 l 1
 260.001953125 454.998046875 l 2
 214.001953125 453.665039062 180.001953125 452.998046875 158.001953125 452.998046875 c 0
 156.66796875 452.9375 155.364257812 452.907226562 154.090820312 452.907226562 c 0
 141.364257812 452.907226562 131.66796875 455.9375 125.001953125 461.998046875 c 0
 117.668945312 467.998046875 114.001953125 475.331054688 114.001953125 483.998046875 c 2
 114.001953125 486.998046875 l 2
 114.668945312 495.665039062 117.668945312 502.998046875 123.001953125 508.998046875 c 0
 129.001953125 515.665039062 138 519 150 519 c 2
156.001953125 319.998046875 m 2
 177.334960938 319.331054688 202.66796875 318.998046875 232.000976562 318.998046875 c 0
 262.000976562 319.665039062 298.000976562 320.33203125 340.000976562 320.999023438 c 2
 446.000976562 322.999023438 l 2
 458.66796875 322.999023438 467.000976562 320.666015625 471.000976562 315.999023438 c 0
 475.66796875 310.666015625 478.334960938 303.666015625 479.001953125 294.999023438 c 0
 479.001953125 284.33203125 477.001953125 275.999023438 473.001953125 269.999023438 c 0
 470.334960938 266.666015625 467.334960938 264.333007812 464.001953125 263 c 0
 461.334960938 261.666992188 458.334960938 261 455.001953125 261 c 2
 447.001953125 261 l 2
 430.334960938 261.666992188 411.66796875 262 391.000976562 262 c 0
 370.333984375 262 325.666992188 261 257 259 c 0
 209.666992188 257.666992188 175.333984375 257 154.000976562 257 c 0
 152.727539062 256.939453125 151.487304688 256.909179688 150.280273438 256.909179688 c 0
 138.21484375 256.909179688 129.455078125 259.939453125 124.000976562 266 c 0
 117.333984375 272.666992188 114.000976562 280.666992188 114.000976562 290 c 2
 114.000976562 292 l 2
 114.66796875 300 118.000976562 306.666992188 124.000976562 312 c 0
 130.000976562 317.333007812 140.000976562 320 154.000976562 320 c 2
 156.001953125 319.998046875 l 2
EndSplineSet
Validated: 524289
EndChar

StartChar: greater
Encoding: 62 62 31
Width: 593
GlyphClass: 2
Flags: HMW
HStem: 690 20G<99.998 105.332>
LayerCount: 2
Fore
SplineSet
533 334 m 0
 530.333007812 325.333007812 526 319 520 315 c 0
 482 287 437.333007812 251.666992188 386 209 c 0
 334.666992188 166.333007812 288 128 246 94 c 0
 203.333007812 60.6669921875 165.666015625 34 132.999023438 14 c 0
 122.999023438 7.3330078125 113.33203125 4 103.999023438 4 c 0
 98.666015625 4 93.9990234375 5.3330078125 89.9990234375 8 c 0
 78.666015625 14 70.666015625 22.3330078125 65.9990234375 33 c 0
 63.9990234375 37.6669921875 62.9990234375 42 62.9990234375 46 c 0
 62.9990234375 50 64.33203125 54.3330078125 66.9990234375 59 c 0
 73.666015625 69.6669921875 87.9990234375 82.6669921875 109.999023438 98 c 0
 147.33203125 124 203.999023438 166.666992188 279.999023438 226 c 0
 355.999023438 286 404.666015625 323.666992188 425.999023438 339 c 2
 435.999023438 347 l 1
 425.999023438 354 l 2
 399.999023438 374 370.999023438 398.333007812 338.999023438 427 c 0
 306.999023438 455.666992188 278.999023438 481.333984375 254.999023438 504.000976562 c 0
 230.999023438 527.333984375 204.999023438 551.000976562 176.999023438 575.000976562 c 0
 148.33203125 599.000976562 123.665039062 617.66796875 102.998046875 631.000976562 c 0
 81.6650390625 645.000976562 67.998046875 656.66796875 61.998046875 666.000976562 c 0
 59.3310546875 670.66796875 57.998046875 675.334960938 57.998046875 680.001953125 c 0
 57.998046875 681.334960938 58.6650390625 684.334960938 59.998046875 689.001953125 c 0
 61.998046875 694.334960938 65.6650390625 698.66796875 70.998046875 702.000976562 c 0
 76.3310546875 705.333984375 83.998046875 707.666992188 93.998046875 709 c 0
 96.6650390625 709.666992188 98.998046875 710 100.998046875 710 c 0
 109.665039062 710 119.33203125 708 129.999023438 704 c 0
 145.999023438 698.666992188 165.999023438 687.333984375 189.999023438 670.000976562 c 0
 213.999023438 652.66796875 239.999023438 631.334960938 267.999023438 606.001953125 c 0
 295.999023438 580.668945312 323.999023438 555.001953125 351.999023438 529.001953125 c 0
 379.999023438 503.001953125 409.666015625 476.334960938 440.999023438 449.001953125 c 0
 471.666015625 421.668945312 498.333007812 400.001953125 521 384.001953125 c 0
 527.666992188 378.668945312 532 371.3359375 534 362.002929688 c 0
 534.666992188 357.3359375 535 352.668945312 535 348.001953125 c 0
 535 343.334960938 534.333007812 338.666992188 533 334 c 0
EndSplineSet
Validated: 524289
EndChar

StartChar: question
Encoding: 63 63 32
Width: 593
GlyphClass: 2
Flags: HMW
HStem: -4.00195 134.053 646.999 64.999
VStem: 202.999 143 413.999 80.001
LayerCount: 2
Fore
SplineSet
494 522 m 0
 494 505.333007812 491.333007812 490 486 476 c 0
 480.666992188 462.666992188 473.666992188 451 465 441 c 0
 456.333007812 431 446.333007812 421.333007812 435 412 c 0
 423 403.333007812 411 394.333007812 399 385 c 0
 387 375.666992188 375.333007812 365.666992188 364 355 c 0
 353.333007812 343.666992188 343.666015625 330.333984375 334.999023438 315.000976562 c 0
 326.33203125 299.66796875 320.665039062 282.66796875 317.998046875 264.000976562 c 0
 315.331054688 248.66796875 309.998046875 237.000976562 301.998046875 229.000976562 c 0
 297.331054688 225.000976562 290.998046875 223.000976562 282.998046875 223.000976562 c 0
 278.998046875 222.333984375 274.665039062 222.666992188 269.998046875 224 c 0
 254.665039062 228 244.665039062 235 239.998046875 245 c 0
 237.331054688 250.333007812 235.998046875 256.666015625 235.998046875 263.999023438 c 0
 235.998046875 271.999023438 236.998046875 280.666015625 238.998046875 289.999023438 c 0
 243.665039062 306.666015625 250.33203125 322.666015625 258.999023438 337.999023438 c 0
 267.666015625 353.33203125 276.999023438 366.33203125 286.999023438 376.999023438 c 0
 297.666015625 388.33203125 308.666015625 398.999023438 319.999023438 408.999023438 c 0
 331.33203125 418.999023438 342.33203125 428.666015625 352.999023438 437.999023438 c 0
 363.666015625 447.33203125 373.666015625 456.999023438 382.999023438 466.999023438 c 0
 391.666015625 476.999023438 398.999023438 487.999023438 404.999023438 499.999023438 c 0
 410.999023438 511.999023438 413.999023438 524.999023438 413.999023438 538.999023438 c 0
 413.999023438 576.999023438 402.666015625 604.666015625 379.999023438 621.999023438 c 0
 358.666015625 638.666015625 327.999023438 646.999023438 287.999023438 646.999023438 c 0
 277.33203125 646.999023438 266.665039062 644.666015625 255.998046875 639.999023438 c 0
 245.331054688 635.999023438 236.331054688 630.999023438 228.998046875 624.999023438 c 0
 221.665039062 618.999023438 213.998046875 611.33203125 205.998046875 601.999023438 c 0
 197.331054688 591.999023438 190.998046875 583.999023438 186.998046875 577.999023438 c 0
 182.998046875 571.999023438 177.998046875 564.666015625 171.998046875 555.999023438 c 0
 165.998046875 547.33203125 160.998046875 540.999023438 156.998046875 536.999023438 c 0
 152.998046875 533.666015625 148.998046875 531.666015625 144.998046875 530.999023438 c 2
 138.998046875 530.999023438 l 2
 136.998046875 530.999023438 134.331054688 531.33203125 130.998046875 531.999023438 c 0
 127.665039062 532.666015625 122.33203125 534.666015625 114.999023438 537.999023438 c 0
 106.999023438 542.666015625 101.999023438 548.999023438 99.9990234375 556.999023438 c 0
 99.318359375 559.040039062 98.8994140625 562.078125 98.8994140625 566.469726562 c 0
 98.8994140625 574.08984375 101.599609375 583.599609375 106.999023438 594.999023438 c 0
 121.666015625 622.33203125 142.666015625 647.665039062 169.999023438 670.998046875 c 0
 184.666015625 683.665039062 201.999023438 693.665039062 221.999023438 700.998046875 c 0
 241.999023438 708.331054688 262.666015625 711.998046875 283.999023438 711.998046875 c 0
 353.33203125 711.998046875 405.665039062 696.331054688 440.998046875 664.998046875 c 0
 476.331054688 633.665039062 494 586 494 522 c 0
274.998046875 -4.001953125 m 2
 265.999023438 -4.001953125 l 2
 265.0859375 -4.037109375 264.181640625 -4.0546875 263.286132812 -4.0546875 c 0
 247.165039062 -4.0546875 233.736328125 1.6298828125 223 12.998046875 c 0
 209.666992188 27.6650390625 203 44.6650390625 203 63.998046875 c 0
 203 81.3310546875 210.333007812 96.3310546875 225 108.998046875 c 0
 241 122.998046875 259.666992188 129.998046875 281 129.998046875 c 0
 281.947265625 130.033203125 282.88671875 130.05078125 283.817382812 130.05078125 c 0
 300.5703125 130.05078125 314.630859375 124.366210938 325.999023438 112.998046875 c 0
 339.33203125 100.331054688 345.999023438 84.6640625 345.999023438 65.9970703125 c 0
 345.999023438 47.330078125 339.666015625 31.6630859375 326.999023438 18.99609375 c 0
 313.666015625 6.3291015625 296.331054688 -1.3349609375 274.998046875 -4.001953125 c 2
EndSplineSet
Validated: 524289
EndChar

StartChar: at
Encoding: 64 64 33
Width: 593
GlyphClass: 2
Flags: HMW
HStem: -120 66.0049 111.004 59 127.005 61.002 391.008 56.998 623.005 69.9971
VStem: 47.999 67.0049 171.001 58.0029 353.004 61.001 491.005 53.9971
LayerCount: 2
Fore
SplineSet
495 9 m 0xdf80
 491.666992188 -0.3330078125 488 -8.3330078125 484 -15 c 0
 480.666992188 -22.3330078125 476 -30.666015625 470 -39.9990234375 c 0
 464 -49.9990234375 457.666992188 -58.33203125 451 -64.9990234375 c 0
 444.333007812 -71.666015625 435.666015625 -78.666015625 424.999023438 -85.9990234375 c 0
 414.999023438 -93.33203125 403.666015625 -99.33203125 390.999023438 -103.999023438 c 0
 378.33203125 -108.666015625 363.665039062 -112.333007812 346.998046875 -115 c 0
 330.331054688 -118.333007812 312.998046875 -120 294.998046875 -120 c 2
 288.998046875 -120 l 2
 255.665039062 -120 224.33203125 -111.666992188 194.999023438 -95 c 0
 164.999023438 -78.3330078125 139.33203125 -55 117.999023438 -25 c 0
 96.666015625 5 79.666015625 41.6669921875 66.9990234375 85 c 0
 54.33203125 129 47.9990234375 176.666992188 47.9990234375 228 c 0
 48.666015625 286 53.3330078125 340 62 390 c 0
 71.3330078125 440.666992188 84 484.333984375 100 521.000976562 c 0
 116 557.66796875 135 589.000976562 157 615.000976562 c 0
 178.333007812 641.66796875 202 661.334960938 228 674.001953125 c 0
 254 686.668945312 281.333007812 693.001953125 310 693.001953125 c 0
 332 693.001953125 351.666992188 691.334960938 369 688.001953125 c 0
 387 684.668945312 404 679.001953125 420 671.001953125 c 0
 436 663.001953125 450 652.334960938 462 639.001953125 c 0
 474.666992188 625.668945312 486.333984375 609.001953125 497.000976562 589.001953125 c 0
 507.66796875 569.001953125 516.334960938 545.334960938 523.001953125 518.001953125 c 0
 537.668945312 458.668945312 545.001953125 383.3359375 545.001953125 292.002929688 c 0
 544.334960938 244.669921875 537.334960938 203.336914062 524.001953125 168.00390625 c 0
 517.334960938 150.00390625 508.001953125 136.00390625 496.001953125 126.00390625 c 0
 484.668945312 116.00390625 471.001953125 111.00390625 455.001953125 111.00390625 c 0xdf80
 431.668945312 111.670898438 414.001953125 119.337890625 402.001953125 134.004882812 c 0
 392.001953125 146.004882812 385.668945312 163.671875 383.001953125 187.004882812 c 2
 379.001953125 232.004882812 l 1
 364.001953125 189.00390625 l 2
 357.334960938 170.336914062 348.66796875 156.004882812 338.000976562 146.004882812 c 0
 325.333984375 133.337890625 308.333984375 127.004882812 287.000976562 127.004882812 c 0
 250.333984375 127.671875 222.000976562 139.338867188 202.000976562 162.005859375 c 0
 181.333984375 184.672851562 171.000976562 220.005859375 171.000976562 268.005859375 c 0
 171.000976562 292.005859375 173.66796875 314.338867188 179.000976562 335.005859375 c 0
 184.333984375 355.672851562 191.666992188 373.005859375 201 387.005859375 c 0
 210.333007812 400.338867188 221 412.005859375 233 422.005859375 c 0
 245.666992188 432.005859375 258.333984375 439.005859375 271.000976562 443.005859375 c 0
 283.66796875 446.338867188 296.334960938 448.005859375 309.001953125 448.005859375 c 0
 327.001953125 448.005859375 344.334960938 444.672851562 361.001953125 438.005859375 c 0
 375.001953125 432.672851562 386.001953125 425.672851562 394.001953125 417.005859375 c 0
 398.668945312 411.672851562 401.001953125 407.33984375 401.001953125 404.006835938 c 0
 401.001953125 402.673828125 400.668945312 401.340820312 400.001953125 400.0078125 c 0
 396.001953125 392.0078125 391.001953125 387.0078125 385.001953125 385.0078125 c 0
 378.334960938 383.0078125 373.334960938 382.0078125 370.001953125 382.0078125 c 0
 364.668945312 382.674804688 357.3359375 384.0078125 348.002929688 386.0078125 c 2
 333.002929688 389.0078125 l 2
 327.002929688 390.340820312 321.3359375 391.0078125 316.002929688 391.0078125 c 2
 304.002929688 391.0078125 l 2
 294.669921875 390.340820312 285.336914062 387.0078125 276.00390625 381.0078125 c 0
 266.670898438 375.0078125 258.670898438 367.674804688 252.00390625 359.0078125 c 0
 244.670898438 351.0078125 239.00390625 340.005859375 235.00390625 326.005859375 c 0
 231.00390625 312.005859375 229.00390625 296.674804688 229.00390625 280.0078125 c 0
 229.00390625 271.340820312 229.670898438 262.673828125 231.00390625 254.006835938 c 0
 231.670898438 246.006835938 233.670898438 236.670898438 237.00390625 226.00390625 c 0
 240.336914062 215.336914062 246.00390625 206.33984375 254.00390625 199.006835938 c 0
 262.00390625 191.673828125 272.00390625 188.006835938 284.00390625 188.006835938 c 0xbf80
 308.670898438 188.006835938 326.337890625 198.006835938 337.004882812 218.006835938 c 0
 346.337890625 235.33984375 351.670898438 263.672851562 353.00390625 303.005859375 c 0
 353.670898438 309.672851562 360.337890625 315.672851562 373.004882812 321.005859375 c 0
 383.004882812 324.338867188 391.671875 326.005859375 399.004882812 326.005859375 c 0
 403.671875 326.005859375 408.002929688 325.338867188 412.002929688 324.005859375 c 0
 416.002929688 322.005859375 418.004882812 319.672851562 418.004882812 317.005859375 c 2
 418.004882812 315.005859375 l 2
 415.337890625 290.338867188 414.004882812 269.671875 414.004882812 253.004882812 c 0
 414.004882812 244.337890625 414.337890625 236.670898438 415.004882812 230.00390625 c 0
 417.671875 208.670898438 421.671875 193.670898438 427.004882812 185.00390625 c 0
 433.671875 175.00390625 443.001953125 170.00390625 455.001953125 170.00390625 c 0
 465.001953125 170.00390625 472.671875 176.336914062 478.004882812 189.00390625 c 0
 482.004882812 199.00390625 485.004882812 211.336914062 487.004882812 226.00390625 c 0
 489.671875 250.670898438 491.004882812 273.670898438 491.004882812 295.00390625 c 0
 491.004882812 329.670898438 489.671875 361.333007812 487.004882812 390 c 0
 483.671875 419.333007812 479.670898438 444.337890625 475.00390625 465.004882812 c 0
 470.336914062 486.337890625 464.336914062 505.337890625 457.00390625 522.004882812 c 0
 449.670898438 539.337890625 442.338867188 553.337890625 435.005859375 564.004882812 c 0
 427.672851562 574.671875 419.005859375 584.004882812 409.005859375 592.004882812 c 0
 399.005859375 599.337890625 390.334960938 605.004882812 383.001953125 609.004882812 c 0
 375.668945312 613.671875 367.005859375 617.004882812 357.005859375 619.004882812 c 0
 347.005859375 621.004882812 339.672851562 622.004882812 335.005859375 622.004882812 c 0
 330.338867188 622.671875 324.671875 623.004882812 318.004882812 623.004882812 c 0
 289.337890625 622.337890625 262.670898438 613.337890625 238.00390625 596.004882812 c 0
 213.336914062 578.671875 192.00390625 554.671875 174.00390625 524.004882812 c 0
 156.00390625 492.671875 141.670898438 454.671875 131.00390625 410.004882812 c 0
 120.336914062 365.337890625 115.00390625 316.670898438 115.00390625 264.00390625 c 0
 115.670898438 218.00390625 119.337890625 176.670898438 126.004882812 140.00390625 c 0
 133.337890625 102.670898438 142.670898438 72.337890625 154.00390625 49.0048828125 c 0
 165.336914062 25.671875 178.999023438 6.0048828125 194.999023438 -9.9951171875 c 0
 210.33203125 -25.9951171875 226.336914062 -37.328125 243.00390625 -43.9951171875 c 0
 259.670898438 -50.662109375 276.998046875 -53.9951171875 294.998046875 -53.9951171875 c 0
 312.331054688 -53.9951171875 328.669921875 -52.328125 344.002929688 -48.9951171875 c 0
 359.3359375 -45.662109375 372.002929688 -41.3291015625 382.002929688 -35.99609375 c 0
 392.669921875 -30.6630859375 402.669921875 -23.6669921875 412.002929688 -15 c 0
 420.669921875 -7 427.669921875 0.6708984375 433.002929688 8.00390625 c 0
 437.669921875 15.3369140625 443.336914062 24.3369140625 450.00390625 35.00390625 c 0
 452.670898438 39.6708984375 455.00390625 43.337890625 457.00390625 46.0048828125 c 0
 459.00390625 48.0048828125 461.00390625 50.671875 463.00390625 54.0048828125 c 0
 465.670898438 57.337890625 467.670898438 59.6708984375 469.00390625 61.00390625 c 2
 475.00390625 64.00390625 l 2
 477.670898438 66.00390625 481.337890625 66.00390625 486.004882812 64.00390625 c 0
 493.337890625 61.3369140625 498.337890625 57.00390625 501.004882812 51.00390625 c 0
 502.337890625 48.3369140625 503.004882812 45.669921875 503.004882812 43.0029296875 c 0
 503.004882812 34.3359375 500.333007812 23 495 9 c 0xdf80
EndSplineSet
Validated: 524289
EndChar

StartChar: A
Encoding: 65 65 34
Width: 593
GlyphClass: 2
Flags: HMW
HStem: 271 50.998
VStem: 48.999 72.001
LayerCount: 2
Fore
SplineSet
332.000976562 606.997070312 m 2
 304.66796875 561.6640625 265.66796875 466.331054688 215.000976562 320.998046875 c 2
 210.000976562 305.998046875 l 1
 224.000976562 307.998046875 l 2
 286.66796875 315.998046875 342.334960938 320.665039062 391.001953125 321.998046875 c 2
 402.001953125 321.998046875 l 1
 344.001953125 626.998046875 l 1
 332.000976562 606.997070312 l 2
464 53.9990234375 m 0
 456 74.666015625 439 147 413 271 c 0
 411 277.666992188 408.666992188 277.666992188 406 271 c 1
 326.666992188 267 253.666992188 259.33203125 187 247.999023438 c 1
 165 189.33203125 143 124.333007812 121 53 c 0
 115.666992188 35 108 23.330078125 98 17.9970703125 c 0
 92.6669921875 15.330078125 87.6669921875 13.9970703125 83 13.9970703125 c 0
 78.3330078125 13.9970703125 73.666015625 14.9970703125 68.9990234375 16.9970703125 c 0
 55.666015625 22.330078125 48.9990234375 34.3330078125 48.9990234375 53 c 0
 48.9990234375 61 50.33203125 70.3330078125 52.9990234375 81 c 0
 57.666015625 104.333007812 77.666015625 158.666015625 112.999023438 243.999023438 c 1
 110.33203125 251.999023438 107.999023438 253.33203125 105.999023438 247.999023438 c 1
 97.33203125 253.999023438 92.9990234375 260.999023438 92.9990234375 268.999023438 c 2
 92.9990234375 269.999023438 l 2
 92.33203125 275.999023438 95.33203125 281.999023438 101.999023438 287.999023438 c 0
 110.666015625 295.33203125 121.333007812 300.999023438 134 304.999023438 c 1
 135.333007812 311.666015625 136.666015625 311.998046875 137.999023438 305.998046875 c 1
 216.666015625 499.331054688 276.333007812 627.665039062 317 690.998046875 c 0
 325.666992188 703.665039062 332.833984375 712.498046875 338.500976562 717.498046875 c 0
 344.16796875 722.498046875 350.334960938 724.998046875 357.001953125 724.998046875 c 2
 358.001953125 724.998046875 l 1
 364.001953125 724.998046875 l 2
 371.334960938 724.998046875 378.334960938 722.998046875 385.001953125 718.998046875 c 0
 391.668945312 714.998046875 396.001953125 706.998046875 398.001953125 694.998046875 c 0
 411.334960938 612.331054688 434.334960938 494.998046875 467.001953125 342.998046875 c 0
 499.668945312 190.331054688 522.668945312 102.331054688 536.001953125 78.998046875 c 0
 541.334960938 69.6650390625 544.001953125 61.33203125 544.001953125 53.9990234375 c 0
 543.334960938 53.33203125 543.001953125 52.33203125 543.001953125 50.9990234375 c 0
 542.334960938 42.33203125 539.834960938 35.1650390625 535.501953125 29.498046875 c 0
 531.168945312 23.8310546875 526.001953125 19.6640625 520.001953125 16.9970703125 c 0
 515.334960938 14.9970703125 510.66796875 13.9970703125 506.000976562 13.9970703125 c 0
 500.66796875 13.9970703125 495.334960938 15.330078125 490.001953125 17.9970703125 c 0
 479.334960938 23.330078125 470.666992188 35.33203125 464 53.9990234375 c 0
EndSplineSet
Validated: 524289
EndChar

StartChar: B
Encoding: 66 66 35
Width: 593
GlyphClass: 2
Flags: HMW
HStem: -20.3672 79.3672 307 51.999 640.002 49.998
VStem: 72.998 77.7998 76.998 82.999 407.998 72.001 442 79.998
LayerCount: 2
Fore
SplineSet
393.995117188 260.001953125 m 0xea
 379.995117188 269.334960938 360.828125 278.16796875 336.495117188 286.500976562 c 0
 312.162109375 294.833984375 284.329101562 301.666992188 252.99609375 307 c 1
 251.99609375 307 l 2
 206.663085938 307 173.330078125 306.666992188 151.997070312 306 c 1
 155.330078125 192 157.997070312 109 159.997070312 57 c 1
 173.330078125 58.3330078125 187.997070312 59 203.997070312 59 c 0
 219.997070312 59.6669921875 231.997070312 60 239.997070312 60 c 0
 268.6640625 61.3330078125 295.831054688 66.666015625 321.498046875 75.9990234375 c 0
 347.165039062 85.33203125 368.33203125 96.9990234375 384.999023438 110.999023438 c 0
 401.666015625 124.33203125 415.333007812 138.83203125 426 154.499023438 c 0
 436.666992188 170.166015625 442 184.999023438 442 198.999023438 c 0
 442 219.666015625 425.995117188 240.001953125 393.995117188 260.001953125 c 0xea
162.998046875 626.999023438 m 2
 155.998046875 624.999023438 l 1
 155.998046875 607.666015625 155.331054688 584.999023438 153.998046875 556.999023438 c 0
 151.864257812 503.668945312 150.797851562 451.40625 150.797851562 400.209960938 c 0
 150.797851562 387.40625 150.864257812 374.668945312 150.998046875 361.999023438 c 1
 186.998046875 359.999023438 217.998046875 358.999023438 243.998046875 358.999023438 c 0
 263.331054688 358.999023438 280.831054688 360.83203125 296.498046875 364.499023438 c 0
 312.165039062 368.166015625 325.665039062 372.833007812 336.998046875 378.5 c 0
 348.331054688 384.166992188 358.331054688 391.166992188 366.998046875 399.5 c 0
 375.665039062 407.833007812 382.331054688 416.333007812 386.998046875 425 c 0
 391.665039062 433.666992188 395.666015625 443 398.999023438 453 c 0
 402.33203125 463 404.665039062 472.333007812 405.998046875 481 c 0
 407.331054688 489.666992188 407.998046875 498.333984375 407.998046875 507.000976562 c 0xf4
 407.331054688 525.66796875 403.6640625 543.000976562 396.997070312 559.000976562 c 0
 390.330078125 575.000976562 381.663085938 587.833984375 370.99609375 597.500976562 c 0
 360.329101562 607.16796875 348.662109375 615.334960938 335.995117188 622.001953125 c 0
 313.328125 634.001953125 289.328125 640.001953125 263.995117188 640.001953125 c 0
 229.995117188 640.001953125 196.331054688 635.666015625 162.998046875 626.999023438 c 2
503.5 130 m 0
 491.166992188 106.666992188 473.1640625 84.833984375 449.497070312 64.5009765625 c 0
 425.830078125 44.16796875 396.665039062 27.0009765625 361.998046875 13.0009765625 c 0
 327.998046875 -0.9990234375 290.331054688 -9.9990234375 248.998046875 -13.9990234375 c 1
 229.314453125 -20.3671875 l 2
 224.54296875 -20.3671875 219.771484375 -19.244140625 215 -16.9990234375 c 2
 196.47265625 -23.3671875 l 2
 191.981445312 -23.3671875 187.490234375 -22.244140625 182.999023438 -19.9990234375 c 0
 162.999023438 -21.9990234375 147.33203125 -22.9990234375 135.999023438 -22.9990234375 c 0
 128.666015625 -22.9990234375 121.666015625 -22.33203125 114.999023438 -20.9990234375 c 2
 110.999023438 -20.9990234375 l 2
 100.33203125 -21.666015625 91.6650390625 -18.3330078125 84.998046875 -11 c 0
 79.6650390625 -5 76.998046875 3.3330078125 76.998046875 14 c 2
 76.998046875 19 l 2xea
 78.3310546875 39.6669921875 78.998046875 74.333984375 78.998046875 123.000976562 c 0
 78.998046875 213.66796875 76.998046875 314.000976562 72.998046875 424.000976562 c 0
 71.6650390625 468.66796875 70.998046875 498.500976562 70.998046875 513.500976562 c 0
 70.998046875 528.500976562 71.6650390625 549.000976562 72.998046875 575.000976562 c 0
 74.3310546875 601.000976562 74.998046875 619.000976562 74.998046875 629.000976562 c 0
 75.6650390625 644.333984375 79.83203125 655.666992188 87.4990234375 663 c 0
 95.166015625 670.333007812 104.33203125 674 114.999023438 674 c 2
 119 674 l 1
 120 674 l 2
 131.333007812 677.333007812 142.665039062 680 153.998046875 682 c 0
 175.998046875 686 195.999023438 688.333007812 213.999023438 689 c 0
 223.999023438 689.666992188 231.666015625 690 236.999023438 690 c 2
 255.999023438 690 l 1
 265.999023438 690 l 2
 305.999023438 690 341.33203125 682 371.999023438 666 c 0
 403.999023438 650 429.999023438 626.833007812 449.999023438 596.5 c 0
 469.999023438 566.166992188 479.999023438 530 479.999023438 488 c 0xf4
 479.999023438 452.666992188 471.666015625 422.333984375 454.999023438 397.000976562 c 0
 438.33203125 371.66796875 415.665039062 353.000976562 386.998046875 341.000976562 c 1
 378.998046875 331.000976562 371.331054688 327.66796875 363.998046875 331.000976562 c 1
 371.998046875 321.000976562 379.665039062 318.000976562 386.998046875 322.000976562 c 1
 407.665039062 314.66796875 428.498046875 304.16796875 449.498046875 290.500976562 c 0
 470.498046875 276.833984375 487.831054688 261.666992188 501.498046875 245 c 0
 515.165039062 228.333007812 521.998046875 213.666015625 521.998046875 200.999023438 c 2
 521.998046875 198.999023438 l 2xe2
 521.998046875 176.33203125 515.833007812 153.333007812 503.5 130 c 0
EndSplineSet
Validated: 524289
EndChar

StartChar: C
Encoding: 67 67 36
Width: 593
GlyphClass: 2
Flags: HMW
HStem: -30.999 72.001 650.002 62.999
VStem: 57.999 80.999 451 83.001
LayerCount: 2
Fore
SplineSet
521 553.5 m 0
 512.333007812 541.166992188 504 534.333984375 496 533.000976562 c 2
 490 533.000976562 l 2
 482 533.000976562 473.666992188 535.66796875 465 541.000976562 c 0
 455.666992188 547.66796875 451 556.334960938 451 567.001953125 c 0
 451 572.334960938 451.666992188 588.334960938 453 615.001953125 c 1
 437.666992188 625.668945312 428.666992188 632.001953125 426 634.001953125 c 0
 423.333007812 636.001953125 419.333007812 638.334960938 414 641.001953125 c 0
 404 647.001953125 393.666992188 650.001953125 383 650.001953125 c 0
 362.333007812 650.001953125 340.5 642.668945312 317.5 628.001953125 c 0
 294.5 613.334960938 272.666992188 593.001953125 252 567.001953125 c 0
 231.333007812 541.001953125 212.666015625 511.334960938 195.999023438 478.001953125 c 0
 179.33203125 444.001953125 165.665039062 406.001953125 154.998046875 364.001953125 c 0
 144.331054688 322.001953125 138.998046875 279.668945312 138.998046875 237.001953125 c 0
 138.998046875 205.001953125 144.998046875 174.168945312 156.998046875 144.501953125 c 0
 168.998046875 114.834960938 185.665039062 90.001953125 206.998046875 70.001953125 c 0
 227.665039062 50.6689453125 250.665039062 41.001953125 275.998046875 41.001953125 c 0
 296.665039062 41.001953125 316.665039062 43.3349609375 335.998046875 48.001953125 c 0
 355.331054688 52.6689453125 372.831054688 58.8359375 388.498046875 66.5029296875 c 0
 404.165039062 74.169921875 417.998046875 81.669921875 429.998046875 89.0029296875 c 0
 441.331054688 96.3359375 452.331054688 104.3359375 462.998046875 113.002929688 c 0
 470.998046875 118.3359375 477.831054688 122.3359375 483.498046875 125.002929688 c 0
 489.165039062 127.669921875 494.998046875 129.002929688 500.998046875 129.002929688 c 0
 506.331054688 129.002929688 511.331054688 127.3359375 515.998046875 124.002929688 c 0
 524.665039062 117.3359375 528.998046875 109.668945312 528.998046875 101.001953125 c 0
 528.998046875 90.3349609375 522.665039062 77.66796875 509.998046875 63.0009765625 c 0
 455.998046875 0.333984375 376.998046875 -30.9990234375 272.998046875 -30.9990234375 c 2
 264.998046875 -30.9990234375 l 2
 240.998046875 -30.9990234375 218.331054688 -26.666015625 196.998046875 -17.9990234375 c 0
 174.998046875 -8.666015625 155.665039062 3.6669921875 138.998046875 19 c 0
 122.331054688 34.3330078125 107.831054688 52 95.498046875 72 c 0
 83.1650390625 92 73.83203125 113.333007812 67.4990234375 136 c 0
 61.166015625 158.666992188 57.9990234375 181.333984375 57.9990234375 204.000976562 c 0
 57.9990234375 252.66796875 62.9990234375 300.16796875 72.9990234375 346.500976562 c 0
 82.9990234375 392.833984375 96.33203125 434.333984375 112.999023438 471.000976562 c 0
 129.666015625 507.66796875 149.333007812 541.334960938 172 572.001953125 c 0
 192.666992188 603.334960938 214.5 629.16796875 237.5 649.500976562 c 0
 260.5 669.833984375 283.833007812 685.500976562 307.5 696.500976562 c 0
 331.166992188 707.500976562 354 713.000976562 376 713.000976562 c 0
 398 713.000976562 418.666992188 710.333984375 438 705.000976562 c 1
 440.666992188 710.333984375 443.666992188 709.333984375 447 702.000976562 c 1
 448.333007812 712.000976562 449.333007812 715.333984375 450 712.000976562 c 1
 452 720.000976562 456 726.66796875 462 732.000976562 c 0
 468 736.66796875 474.666992188 739.334960938 482 740.001953125 c 0
 485.333007812 740.668945312 487.333007812 741.001953125 488 741.001953125 c 0
 494.666992188 741.001953125 501.666992188 738.668945312 509 734.001953125 c 0
 517.666992188 728.668945312 523.333984375 720.3359375 526.000976562 709.002929688 c 0
 531.333984375 683.669921875 534.000976562 656.668945312 534.000976562 628.001953125 c 2
 534.000976562 591.002929688 l 2
 534.000976562 578.3359375 529.666992188 565.833007812 521 553.5 c 0
EndSplineSet
Validated: 524289
EndChar

StartChar: D
Encoding: 68 68 37
Width: 593
GlyphClass: 2
Flags: HMW
HStem: -31 75.999 675 20G<93.3315 109.665>
VStem: 55.999 77.7113 460.001 76.9953
LayerCount: 2
Fore
SplineSet
310.99609375 551 m 0
 276.99609375 574.333007812 227.99609375 598.666015625 163.99609375 623.999023438 c 1
 162.99609375 624.999023438 l 1
 161.99609375 624.999023438 l 1
 160.99609375 625.999023438 l 1
 159.99609375 625.999023438 l 1
 158.99609375 625.999023438 l 1
 158.99609375 626.999023438 l 1
 157.99609375 626.999023438 l 1
 156.99609375 626.999023438 l 1
 155.99609375 626.999023438 l 1
 155.99609375 627.999023438 l 1
 154.99609375 627.999023438 l 1
 153.99609375 627.999023438 l 1
 152.99609375 627.999023438 l 1
 152.99609375 628.999023438 l 1
 151.99609375 628.999023438 l 1
 150.99609375 628.999023438 l 1
 149.994140625 629.999023438 l 1
 148.99609375 629.999023438 l 1
 135.99609375 643.999023438 l 1
 134.99609375 620.999023438 l 2
 134.138671875 583.283203125 133.709960938 546.118164062 133.709960938 509.50390625 c 0
 133.709960938 460.689453125 134.471679688 412.854492188 135.99609375 365.999023438 c 0
 137.329101562 324.666015625 138.662109375 275.166015625 139.995117188 217.499023438 c 0
 141.328125 159.83203125 142.661132812 114.33203125 143.994140625 80.9990234375 c 1
 149.994140625 78.9990234375 l 2
 177.327148438 66.33203125 204.994140625 57.4990234375 232.994140625 52.4990234375 c 0
 260.994140625 47.4990234375 292.994140625 44.9990234375 328.994140625 44.9990234375 c 0
 348.327148438 44.9990234375 366.327148438 51.83203125 382.994140625 65.4990234375 c 0
 399.661132812 79.166015625 413.328125 96.3330078125 423.995117188 117 c 0
 435.328125 137.666992188 444.161132812 160.166992188 450.494140625 184.5 c 0
 459.956054688 220.85546875 460.000976562 247.245117188 460.000976562 258.552734375 c 0
 460.000976562 385.967773438 410.333984375 483.450195312 310.99609375 551 c 0
528 152.5 m 0
 522 128.833007812 512.666992188 106 500 84 c 0
 487.333007812 62 472.666015625 42.5 455.999023438 25.5 c 0
 439.33203125 8.5 419.999023438 -5.3330078125 397.999023438 -16 c 0
 376.666015625 -26 353.999023438 -31 329.999023438 -31 c 2
 320.999023438 -31 l 2
 293.666015625 -31 266.166015625 -29.6669921875 238.499023438 -27 c 0
 210.83203125 -24.3330078125 188.33203125 -21 170.999023438 -17 c 0
 152.999023438 -12.3330078125 136.83203125 -8.3330078125 122.499023438 -5 c 0
 108.166015625 -1.6669921875 99.3330078125 0 96 0 c 0
 85.3330078125 0 76.666015625 3.3330078125 69.9990234375 10 c 0
 63.9990234375 16 60.9990234375 24.3330078125 60.9990234375 35 c 2
 60.9990234375 41 l 2
 62.9990234375 65 63.9990234375 102.333007812 63.9990234375 153 c 0
 63.33203125 243.666992188 60.9990234375 351.666992188 56.9990234375 477 c 0
 56.33203125 514.333007812 55.9990234375 538.833007812 55.9990234375 550.5 c 0
 55.9990234375 562.166992188 56.4990234375 580.333984375 57.4990234375 605.000976562 c 0
 58.4990234375 629.66796875 58.9990234375 644.66796875 58.9990234375 650.000976562 c 0
 59.666015625 665.333984375 63.666015625 676.666992188 70.9990234375 684 c 0
 78.33203125 691.333007812 87.6650390625 695 98.998046875 695 c 0
 120.331054688 695 147.6640625 691.666992188 180.997070312 685 c 0
 200.330078125 681 219.997070312 675.5 239.997070312 668.5 c 0
 259.997070312 661.5 281.6640625 651.833007812 304.997070312 639.5 c 0
 328.330078125 627.166992188 350.330078125 612.666992188 370.997070312 596 c 0
 391.6640625 579.333007812 411.997070312 559 431.997070312 535 c 0
 453.330078125 511 471.663085938 484.5 486.99609375 455.5 c 0
 502.329101562 426.5 514.49609375 391.833007812 523.49609375 351.5 c 0
 532.49609375 311.166992188 536.99609375 267.666992188 536.99609375 221 c 0
 536.99609375 199 534 176.166992188 528 152.5 c 0
EndSplineSet
Validated: 524289
EndChar

StartChar: E
Encoding: 69 69 38
Width: 593
GlyphClass: 2
Flags: HMW
HStem: -20 68.0039<177.666 238.338> -6 71.0039<464.333 496.338 472 496.338> 312.004 65.998 332.004 61.999 615.002 63.999
VStem: 69.999 76.0039
LayerCount: 2
Fore
SplineSet
485 -6 m 2x4c
 472 -6 l 2x4c
 456.666992188 -6 431.666992188 -7 397 -9 c 0
 296.333007812 -16.3330078125 226.666015625 -20 187.999023438 -20 c 0
 167.33203125 -20 149.999023438 -19.3330078125 135.999023438 -18 c 0
 122.666015625 -17.3330078125 109.166015625 -10.666015625 95.4990234375 2.0009765625 c 0
 81.83203125 14.66796875 73.9990234375 30.00390625 71.9990234375 48.00390625 c 0
 69.9990234375 64.00390625 68.9990234375 91.333984375 68.9990234375 130.000976562 c 0
 68.9990234375 168.66796875 69.33203125 210.66796875 69.9990234375 256.000976562 c 2
 69.9990234375 343.500976562 l 2
 69.9990234375 370.500976562 69.33203125 408.000976562 67.9990234375 456.000976562 c 0
 67.33203125 496.000976562 66.9990234375 522.333984375 66.9990234375 535.000976562 c 0
 66.9990234375 547.66796875 67.4990234375 566.500976562 68.4990234375 591.500976562 c 0
 69.4990234375 616.500976562 69.9990234375 632.333984375 69.9990234375 639.000976562 c 0
 70.666015625 654.333984375 74.8330078125 665.833984375 82.5 673.500976562 c 0
 90.1669921875 681.16796875 99.333984375 685.000976562 110.000976562 685.000976562 c 1
 110.66796875 678.333984375 111.66796875 678.333984375 113.000976562 685.000976562 c 1
 125.66796875 684.333984375 135.334960938 679.666992188 142.001953125 671 c 0
 143.334960938 663.666992188 144.669921875 662.333984375 146.002929688 667.000976562 c 1
 148.002929688 661.000976562 150.000976562 661.333984375 152.000976562 668.000976562 c 1
 202.66796875 675.333984375 266.334960938 679.000976562 343.001953125 679.000976562 c 0
 364.334960938 679.000976562 383.334960938 678.66796875 400.001953125 678.000976562 c 0
 438.668945312 676.000976562 469.3359375 673.666992188 492.002929688 671 c 0
 506.002929688 669.666992188 515.169921875 666.834960938 519.502929688 662.501953125 c 0
 523.8359375 658.168945312 526.002929688 652.001953125 526.002929688 644.001953125 c 0
 526.002929688 626.668945312 521.3359375 616.001953125 512.002929688 612.001953125 c 0
 508.002929688 610.001953125 504.502929688 609.168945312 501.502929688 609.501953125 c 0
 498.502929688 609.834960938 496.002929688 610.001953125 494.002929688 610.001953125 c 0
 447.3359375 613.334960938 402.002929688 615.001953125 358.002929688 615.001953125 c 0
 342.669921875 615.001953125 327.336914062 614.668945312 312.00390625 614.001953125 c 0
 254.00390625 612.668945312 203.00390625 608.668945312 159.00390625 602.001953125 c 1
 156.336914062 595.334960938 153.669921875 595.001953125 151.002929688 601.001953125 c 1
 147.669921875 525.668945312 146.002929688 454.668945312 146.002929688 388.001953125 c 2
 146.002929688 378.001953125 l 1xac
 199.3359375 378.668945312 264.668945312 381.3359375 342.001953125 386.002929688 c 0
 422.001953125 391.3359375 467.001953125 394.002929688 477.001953125 394.002929688 c 0
 489.668945312 394.002929688 498.3359375 391.502929688 503.002929688 386.502929688 c 0
 507.669921875 381.502929688 510.002929688 374.669921875 510.002929688 366.002929688 c 0
 510.002929688 354.669921875 508.002929688 346.336914062 504.002929688 341.00390625 c 0
 498.669921875 335.00390625 489.836914062 332.00390625 477.50390625 332.00390625 c 0x1c
 465.170898438 332.00390625 416.00390625 328.670898438 330.00390625 322.00390625 c 0
 246.00390625 315.336914062 188.00390625 312.00390625 156.00390625 312.00390625 c 1
 153.336914062 304.670898438 150.336914062 304.337890625 147.00390625 311.004882812 c 1
 147.00390625 284.337890625 147.336914062 247.670898438 148.00390625 201.00390625 c 0
 148.00390625 172.336914062 148.336914062 149.00390625 149.00390625 131.00390625 c 0
 150.336914062 93.00390625 153.00390625 68.6708984375 157.00390625 58.00390625 c 0
 157.670898438 50.00390625 158.336914062 48.6708984375 159.00390625 54.00390625 c 1
 161.00390625 47.3369140625 162.671875 47.00390625 164.004882812 53.00390625 c 1
 174.671875 49.6708984375 195.671875 48.00390625 227.004882812 48.00390625 c 0xac
 249.671875 48.00390625 278.00390625 48.6708984375 312.00390625 50.00390625 c 0
 393.336914062 54.00390625 446.666992188 58.3369140625 472 63.00390625 c 0
 480.666992188 64.3369140625 487.837890625 65.00390625 493.504882812 65.00390625 c 0x4c
 499.171875 65.00390625 504.004882812 64.00390625 508.004882812 62.00390625 c 0
 512.004882812 60.00390625 515.004882812 58.00390625 517.004882812 56.00390625 c 0
 519.004882812 54.00390625 520.671875 51.3369140625 522.004882812 48.00390625 c 0x8c
 523.337890625 44.6708984375 524.337890625 41.837890625 525.004882812 39.5048828125 c 0
 525.671875 37.171875 526.002929688 34.3388671875 526.002929688 31.005859375 c 0
 526.669921875 20.3388671875 523.338867188 11.005859375 516.005859375 3.005859375 c 0
 510.672851562 -3.6611328125 502.33984375 -6.994140625 491.006835938 -6.994140625 c 0
 489.006835938 -6.3271484375 487 -6 485 -6 c 2x4c
EndSplineSet
Validated: 524289
EndChar

StartChar: F
Encoding: 70 70 39
Width: 593
GlyphClass: 2
Flags: HMW
HStem: 310.003 62 323.003 64.999 619.002 67.998 675.001 20G
VStem: 67.9951 77.8028 71.9951 84.001
LayerCount: 2
Fore
SplineSet
493 682 m 0x28
 506.333007812 680.666992188 515 677.833007812 519 673.5 c 0
 523 669.166992188 525.333007812 662.666992188 526 654 c 0
 526 644.666992188 523 636.333984375 517 629.000976562 c 0
 512.333007812 622.333984375 503.666015625 619.000976562 490.999023438 619.000976562 c 2
 489.999023438 619.000976562 l 2
 453.33203125 621.000976562 416.33203125 622.000976562 378.999023438 622.000976562 c 0
 310.33203125 622.000976562 234.33203125 618.333984375 150.999023438 611.000976562 c 1
 150.33203125 594.333984375 149.665039062 573.333984375 148.998046875 548.000976562 c 0
 146.864257812 502.670898438 145.797851562 458.194335938 145.797851562 414.571289062 c 0
 145.797851562 403.661132812 145.864257812 392.8046875 145.998046875 382.001953125 c 0
 149.998046875 376.001953125 153.665039062 376.334960938 156.998046875 383.001953125 c 1
 184.331054688 386.334960938 213.6640625 388.001953125 244.997070312 388.001953125 c 2
 266.997070312 388.001953125 l 2x68
 306.997070312 386.668945312 342.997070312 384.668945312 374.997070312 382.001953125 c 0
 407.6640625 378.668945312 434.331054688 375.3359375 454.998046875 372.002929688 c 0
 469.665039062 369.3359375 478.998046875 366.002929688 482.998046875 362.002929688 c 0
 486.998046875 358.002929688 489.331054688 352.002929688 489.998046875 344.002929688 c 0
 489.998046875 334.002929688 487.665039062 325.3359375 482.998046875 318.002929688 c 0
 480.331054688 312.669921875 473.6640625 310.002929688 462.997070312 310.002929688 c 2
 457.997070312 310.002929688 l 2x88
 437.330078125 313.3359375 408.997070312 316.3359375 372.997070312 319.002929688 c 0
 338.997070312 321.669921875 300.6640625 323.002929688 257.997070312 323.002929688 c 0
 217.330078125 322.3359375 182.997070312 320.002929688 154.997070312 316.002929688 c 1
 152.330078125 309.3359375 149.663085938 309.002929688 146.99609375 315.002929688 c 1
 149.663085938 208.3359375 152.663085938 108.3359375 155.99609375 15.0029296875 c 0
 154.663085938 3.669921875 149.49609375 -5.330078125 140.49609375 -11.9970703125 c 0
 131.49609375 -18.6640625 121.329101562 -21.9970703125 109.99609375 -21.9970703125 c 1
 109.329101562 -27.9970703125 108.329101562 -27.6640625 106.99609375 -20.9970703125 c 1
 96.3291015625 -21.6640625 87.662109375 -18.3310546875 80.9951171875 -10.998046875 c 0
 74.9951171875 -4.998046875 71.9951171875 3.3349609375 71.9951171875 14.001953125 c 2
 71.9951171875 19.001953125 l 2x44
 73.9951171875 41.001953125 74.9951171875 77.6689453125 74.9951171875 129.001953125 c 0
 74.328125 223.668945312 71.9951171875 329.001953125 67.9951171875 445.001953125 c 0
 66.662109375 489.668945312 65.9951171875 519.668945312 65.9951171875 535.001953125 c 0
 65.9951171875 550.334960938 66.662109375 570.834960938 67.9951171875 596.501953125 c 0
 69.328125 622.168945312 69.9951171875 640.001953125 69.9951171875 650.001953125 c 0
 70.662109375 665.334960938 74.662109375 676.66796875 81.9951171875 684.000976562 c 0
 89.328125 691.333984375 98.6611328125 695.000976562 109.994140625 695.000976562 c 1
 111.994140625 688.333984375 113.661132812 688.333984375 114.994140625 695.000976562 c 1x58
 127.661132812 695.000976562 137.328125 690.66796875 143.995117188 682.000976562 c 1
 144.662109375 673.333984375 145.662109375 671.666992188 146.995117188 677 c 1
 226.995117188 683.666992188 301.995117188 687 371.995117188 687 c 0
 418.662109375 687 459 685.333007812 493 682 c 0x28
EndSplineSet
Validated: 524289
EndChar

StartChar: G
Encoding: 71 71 40
Width: 593
GlyphClass: 2
Flags: HMW
HStem: -31.002 72.002 248.5 74.501 285.998 64.5022 661 62.998
VStem: 57.0029 79.998
LayerCount: 2
Fore
SplineSet
461 705 m 0xb8
 494.333007812 692.333007812 515.333007812 681.333007812 524 672 c 0
 532 664 536 654.666992188 536 644 c 0
 536.666992188 638 535.666992188 631.333007812 533 624 c 0
 531.666992188 618 527.333984375 613.666992188 520.000976562 611 c 0
 515.333984375 609.666992188 511.500976562 609 508.500976562 609 c 0
 505.500976562 609 501.333984375 609.666992188 496.000976562 611 c 0
 492.000976562 612.333007812 482.833984375 617.333007812 468.500976562 626 c 0
 454.16796875 634.666992188 439.000976562 642.666992188 423.000976562 650 c 0
 407.66796875 657.333007812 393.66796875 661 381.000976562 661 c 0
 360.333984375 661 338.500976562 653.5 315.500976562 638.5 c 0
 292.500976562 623.5 270.833984375 602.5 250.500976562 575.5 c 0
 230.16796875 548.5 211.66796875 518 195.000976562 484 c 0
 177.66796875 449.333007812 163.66796875 410.5 153.000976562 367.5 c 0
 142.333984375 324.5 137.000976562 281 137.000976562 237 c 0
 137.000976562 205 143.000976562 174.166992188 155.000976562 144.5 c 0
 167.000976562 114.833007812 183.66796875 90 205.000976562 70 c 0
 225.66796875 50.6669921875 248.66796875 41 274.000976562 41 c 0
 290.66796875 41 307.334960938 46.6669921875 324.001953125 58 c 0
 340.668945312 69.3330078125 355.501953125 83.666015625 368.501953125 100.999023438 c 0
 381.501953125 118.33203125 393.668945312 137.33203125 405.001953125 157.999023438 c 0
 416.334960938 178.666015625 426.001953125 198.999023438 434.001953125 218.999023438 c 0
 442.001953125 238.999023438 448.334960938 257.33203125 453.001953125 273.999023438 c 0
 454.334960938 276.666015625 455.66796875 280.999023438 457.000976562 286.999023438 c 1
 452.333984375 285.666015625 447.666992188 285.333007812 443 286 c 0
 403 284 364 280.166992188 326 274.5 c 0
 288 268.833007812 261.333007812 261.333007812 246 252 c 0
 242.666992188 250 239.333984375 248.833007812 236.000976562 248.5 c 0
 232.66796875 248.166992188 229.334960938 249.333984375 226.001953125 252.000976562 c 0
 218.668945312 257.333984375 214.3359375 264.333984375 213.002929688 273.000976562 c 2
 213.002929688 281.000976562 l 2
 213.002929688 298.333984375 223.3359375 312.333984375 244.002929688 323.000976562 c 0xd8
 260.002929688 332.333984375 296.3359375 339.666992188 353.002929688 345 c 0
 395.002929688 348.333007812 431.669921875 350 463.002929688 350 c 0
 469.002929688 350.333984375 474.669921875 350.500976562 480.002929688 350.500976562 c 0
 485.3359375 350.500976562 490.3359375 350.333984375 495.002929688 350 c 0
 509.669921875 348.666992188 519.336914062 346 524.00390625 342 c 0
 530.00390625 337.333007812 533.00390625 328.666015625 533.00390625 315.999023438 c 0
 533.00390625 309.33203125 531.836914062 303.665039062 529.50390625 298.998046875 c 0
 527.170898438 294.331054688 523.00390625 290.998046875 517.00390625 288.998046875 c 0
 515.00390625 286.331054688 513.00390625 285.331054688 511.00390625 285.998046875 c 1
 511.00390625 278.998046875 l 2
 511.00390625 276.998046875 510.50390625 271.665039062 509.50390625 262.998046875 c 0
 508.50390625 254.331054688 507.670898438 247.331054688 507.00390625 241.998046875 c 0
 505.670898438 227.998046875 501.670898438 211.831054688 495.00390625 193.498046875 c 0
 488.336914062 175.165039062 479.50390625 155.498046875 468.50390625 134.498046875 c 0
 457.50390625 113.498046875 444.336914062 92.998046875 429.00390625 72.998046875 c 0
 414.336914062 53.6650390625 398.669921875 35.998046875 382.002929688 19.998046875 c 0
 365.3359375 3.998046875 347.002929688 -8.6689453125 327.002929688 -18.001953125 c 0
 307.002929688 -26.6689453125 286.669921875 -31.001953125 266.002929688 -31.001953125 c 2
 264.002929688 -31.001953125 l 1
 263.002929688 -31.001953125 l 2
 239.002929688 -31.001953125 216.3359375 -26.6689453125 195.002929688 -18.001953125 c 0
 173.002929688 -8.6689453125 153.669921875 3.6640625 137.002929688 18.9970703125 c 0
 120.3359375 34.330078125 105.8359375 51.9970703125 93.5029296875 71.9970703125 c 0
 81.169921875 91.9970703125 72.0029296875 113.330078125 66.0029296875 135.997070312 c 0
 60.0029296875 158.6640625 57.0029296875 181.331054688 57.0029296875 203.998046875 c 0
 57.0029296875 253.998046875 61.8359375 302.665039062 71.5029296875 349.998046875 c 0
 81.169921875 397.331054688 94.3369140625 439.831054688 111.00390625 477.498046875 c 0
 127.670898438 515.165039062 147.337890625 549.665039062 170.004882812 580.998046875 c 0
 190.671875 612.331054688 212.504882812 638.331054688 235.504882812 658.998046875 c 0
 258.504882812 679.665039062 282.004882812 695.665039062 306.004882812 706.998046875 c 0
 330.004882812 718.331054688 353.004882812 723.998046875 375.004882812 723.998046875 c 0
 399.004882812 723.998046875 427.666992188 717.666992188 461 705 c 0xb8
EndSplineSet
Validated: 524289
EndChar

StartChar: H
Encoding: 72 72 41
Width: 593
GlyphClass: 2
Flags: HMW
HStem: 311.994 66.002 674.994 20G
VStem: 84.502 79.499 426 83.001 435 80.001
LayerCount: 2
Fore
SplineSet
161.5 292 m 0xe8
 161.166992188 287.333007812 161 284 161 282 c 0
 159 248.666992188 158 209.833984375 158 165.500976562 c 0
 158 121.16796875 159 70.9951171875 161 14.9951171875 c 0
 159.666992188 3.662109375 154.333984375 -5.337890625 145.000976562 -12.0048828125 c 0
 135.66796875 -18.671875 125.334960938 -22.0048828125 114.001953125 -22.0048828125 c 1
 113.334960938 -28.0048828125 112.334960938 -27.671875 111.001953125 -21.0048828125 c 1
 101.001953125 -21.671875 92.6689453125 -18.3388671875 86.001953125 -11.005859375 c 0
 80.001953125 -5.005859375 77.001953125 3 77.001953125 13 c 0
 77.6689453125 15 78.001953125 16.994140625 78.001953125 18.994140625 c 0
 79.3349609375 38.3271484375 80.001953125 81.3330078125 80.001953125 148 c 0
 80.001953125 182.666992188 80.3349609375 214 81.001953125 242 c 2
 81.001953125 243 l 2
 81.001953125 265 81.501953125 297.166992188 82.501953125 339.5 c 0
 83.501953125 381.833007812 84.1689453125 409.166015625 84.501953125 421.499023438 c 0
 84.8349609375 433.83203125 85.001953125 446.165039062 85.001953125 458.498046875 c 0
 85.001953125 470.831054688 84.6689453125 490.998046875 84.001953125 518.998046875 c 0
 83.3349609375 546.998046875 83.001953125 565.498046875 83.001953125 574.498046875 c 0
 83.001953125 583.498046875 84.001953125 608.662109375 86.001953125 649.995117188 c 0
 86.6689453125 665.328125 90.6689453125 676.661132812 98.001953125 683.994140625 c 0
 105.334960938 691.327148438 114.66796875 694.994140625 126.000976562 694.994140625 c 2
 129.000976562 694.994140625 l 2
 139.66796875 694.994140625 148.66796875 691.827148438 156.000976562 685.494140625 c 0
 163.333984375 679.161132812 167.000976562 668.328125 167.000976562 652.995117188 c 0
 167.000976562 646.328125 166.16796875 632.1640625 164.500976562 610.497070312 c 0
 162.833984375 588.830078125 162 568.830078125 162 550.497070312 c 0
 162 532.1640625 162.333984375 505.1640625 163.000976562 469.497070312 c 0
 163.66796875 433.830078125 164.000976562 406.663085938 164.000976562 387.99609375 c 2
 164.000976562 377.99609375 l 2
 166.66796875 371.329101562 169.66796875 371.329101562 173.000976562 377.99609375 c 1
 226.333984375 379.329101562 290.333984375 385.662109375 365.000976562 396.995117188 c 0
 393.66796875 400.995117188 416.66796875 403.662109375 434.000976562 404.995117188 c 1
 434.000976562 413.995117188 l 2
 434.000976562 418.662109375 433.66796875 425.662109375 433.000976562 434.995117188 c 0
 432.333984375 444.328125 432.000976562 451.328125 432.000976562 455.995117188 c 0
 431.333984375 497.328125 431.000976562 524.495117188 431.000976562 537.495117188 c 0
 431.000976562 550.495117188 431.66796875 570.995117188 433.000976562 598.995117188 c 0
 434.333984375 626.995117188 435 643.995117188 435 649.995117188 c 0
 435 665.328125 438.833984375 676.661132812 446.500976562 683.994140625 c 0
 454.16796875 691.327148438 463.334960938 694.994140625 474.001953125 694.994140625 c 2
 477.001953125 694.994140625 l 2
 488.334960938 694.994140625 497.66796875 691.827148438 505.000976562 685.494140625 c 0
 512.333984375 679.161132812 516.000976562 668.328125 516.000976562 652.995117188 c 0
 516.000976562 640.328125 515.500976562 614.495117188 514.500976562 575.495117188 c 0
 513.500976562 536.495117188 513.000976562 501.995117188 513.000976562 471.995117188 c 0
 513.000976562 441.995117188 513.333984375 398.995117188 514.000976562 342.995117188 c 0
 514.66796875 327.662109375 515.000976562 305.995117188 515.000976562 277.995117188 c 0xe8
 515.000976562 249.995117188 514.000976562 206.495117188 512.000976562 147.495117188 c 0
 510.000976562 88.4951171875 509.000976562 46.9951171875 509.000976562 22.9951171875 c 2
 509.000976562 16.9951171875 l 1
 509.000976562 14.9951171875 l 2
 509.000976562 4.328125 503.66796875 -4.671875 493.000976562 -12.0048828125 c 0
 484.333984375 -18.671875 474.333984375 -22.0048828125 463.000976562 -22.0048828125 c 1
 462.333984375 -28.0048828125 461.333984375 -27.671875 460.000976562 -21.0048828125 c 1
 449.333984375 -21.671875 440.66796875 -18.3388671875 434.000976562 -11.005859375 c 0
 428.66796875 -5.005859375 426 3.3271484375 426 13.994140625 c 2
 426 18.994140625 l 1xf0
 432 103.661132812 435 197.661132812 435 300.994140625 c 2
 435 342.995117188 l 1
 431 336.328125 427.333007812 335.994140625 424 341.994140625 c 1
 412.666992188 341.327148438 374.666992188 335.994140625 310 325.994140625 c 0
 246 316.661132812 199.666992188 311.994140625 171 311.994140625 c 2
 162 311.994140625 l 1
 162 301.994140625 l 2
 162 299.994140625 161.833007812 296.666992188 161.5 292 c 0xe8
EndSplineSet
Validated: 524289
EndChar

StartChar: I
Encoding: 73 73 42
Width: 593
GlyphClass: 2
Flags: HMW
HStem: -6.40211 58.3992 612 69.001 624 64.001
VStem: 254.998 76.001 261.998 75.001
LayerCount: 2
Fore
SplineSet
258.999023438 540 m 2xc8
 258.999023438 546.666992188 259.665039062 560.001953125 260.998046875 580.001953125 c 0
 262.331054688 600.001953125 262.999023438 611.668945312 262.999023438 615.001953125 c 2
 262.999023438 624.001953125 l 1
 228.999023438 624.668945312 200.666015625 625.001953125 177.999023438 625.001953125 c 0
 153.33203125 625.001953125 136.33203125 624.834960938 126.999023438 624.501953125 c 0
 117.666015625 624.168945312 112.666015625 624.001953125 111.999023438 624.001953125 c 0
 98.666015625 624.001953125 88.8330078125 626.834960938 82.5 632.501953125 c 0
 76.1669921875 638.168945312 73 645.3359375 73 654.002929688 c 2
 73 657.002929688 l 2
 73 665.002929688 76 672.169921875 82 678.502929688 c 0
 88 684.8359375 98.3330078125 688.002929688 113 688.002929688 c 0xa8
 168.333007812 690.002929688 217.997070312 691.002929688 261.997070312 691.002929688 c 0
 349.997070312 691.002929688 425.666015625 687.669921875 488.999023438 681.002929688 c 0
 500.33203125 679.669921875 509 677.002929688 515 673.002929688 c 0
 521.666992188 668.3359375 525.333984375 660.668945312 526.000976562 650.001953125 c 0
 526.000976562 640.001953125 523.000976562 630.668945312 517.000976562 622.001953125 c 0
 514.333984375 618.001953125 510.666992188 615.001953125 506 613.001953125 c 0
 502.666992188 611.668945312 499.666992188 611.001953125 497 611.001953125 c 0
 494.333007812 611.001953125 491.666015625 611.334960938 488.999023438 612.001953125 c 0
 468.33203125 615.334960938 417.665039062 619.001953125 336.998046875 623.001953125 c 1
 336.998046875 613.001953125 l 2
 336.998046875 607.668945312 336.665039062 590.168945312 335.998046875 560.501953125 c 0
 335.331054688 530.834960938 334.998046875 504.66796875 334.998046875 482.000976562 c 2
 334.998046875 436.000976562 l 2
 334.998046875 415.333984375 335.331054688 394.166992188 335.998046875 372.5 c 0
 336.665039062 350.833007812 336.998046875 326.166015625 336.998046875 298.499023438 c 0xc8
 336.998046875 270.83203125 335.998046875 227.999023438 333.998046875 169.999023438 c 0
 331.998046875 111.999023438 330.998046875 75.9990234375 330.998046875 61.9990234375 c 2
 330.998046875 51.9990234375 l 1
 339.998046875 51.9990234375 l 2
 363.998046875 51.9990234375 415.331054688 51.666015625 493.998046875 50.9990234375 c 0
 507.331054688 50.9990234375 516.1640625 48.4990234375 520.497070312 43.4990234375 c 0
 524.830078125 38.4990234375 527.330078125 31.666015625 527.997070312 22.9990234375 c 0
 527.997070312 17.666015625 527.497070312 12.9990234375 526.497070312 8.9990234375 c 0
 525.497070312 4.9990234375 523.6640625 0.9990234375 520.997070312 -3.0009765625 c 0
 519.6640625 -6.333984375 517.331054688 -8.5009765625 513.998046875 -9.5009765625 c 0
 510.665039062 -10.5009765625 507.498046875 -11.16796875 504.498046875 -11.5009765625 c 0
 501.498046875 -11.833984375 498.665039062 -11.6669921875 495.998046875 -11 c 0
 477.998046875 -8.3330078125 449.331054688 -7 409.998046875 -7 c 0
 405.331054688 -7 393.998046875 -6.8330078125 375.998046875 -6.5 c 0
 372.400390625 -6.43359375 368.549804688 -6.400390625 364.446289062 -6.400390625 c 0
 348.018554688 -6.400390625 327.536132812 -6.93359375 302.999023438 -8 c 2
 236.999023438 -15.2001953125 l 2
 222.33203125 -15.2001953125 207.665039062 -14.1337890625 192.998046875 -12.0009765625 c 0
 151.665039062 -13.333984375 123.165039062 -14.0009765625 107.498046875 -14.0009765625 c 0
 91.8310546875 -14.0009765625 80.8310546875 -11.5009765625 74.498046875 -6.5009765625 c 0
 68.1650390625 -1.5009765625 64.998046875 4.9990234375 64.998046875 12.9990234375 c 2
 64.998046875 14.9990234375 l 2
 64.998046875 22.9990234375 67.998046875 30.166015625 73.998046875 36.4990234375 c 0
 79.998046875 42.83203125 90.3310546875 46.33203125 104.998046875 46.9990234375 c 0
 132.998046875 47.666015625 182.998046875 48.998046875 254.998046875 50.998046875 c 1xd0
 259.665039062 133.665039062 261.998046875 215.999023438 261.998046875 297.999023438 c 0
 262.220703125 311.783203125 262.33203125 325.641601562 262.33203125 339.57421875 c 0
 262.33203125 367.418945312 261.887695312 395.560546875 260.999023438 423.998046875 c 0
 259.666015625 453.331054688 258.999023438 484.998046875 258.999023438 518.998046875 c 2
 258.999023438 540 l 2xc8
EndSplineSet
Validated: 524289
EndChar

StartChar: J
Encoding: 74 74 43
Width: 593
GlyphClass: 2
Flags: HMW
HStem: -34.999 82.001 626 65.001
VStem: 62.999 70 316.999 64.001
LayerCount: 2
Fore
SplineSet
201 626 m 0
 169.666992188 626 147.999023438 625.666015625 135.999023438 624.999023438 c 0
 123.999023438 624.33203125 117.666015625 623.999023438 116.999023438 623.999023438 c 0
 103.666015625 623.999023438 93.666015625 626.83203125 86.9990234375 632.499023438 c 0
 80.33203125 638.166015625 76.9990234375 645.333007812 76.9990234375 654 c 2
 76.9990234375 657 l 2
 76.9990234375 665 80.166015625 672.166992188 86.4990234375 678.5 c 0
 92.83203125 684.833007812 103.33203125 688 117.999023438 688 c 0
 172.666015625 690 221.999023438 691 265.999023438 691 c 0
 353.999023438 691 429.666015625 687.666992188 492.999023438 681 c 0
 504.33203125 680.333007812 512.999023438 677.666015625 518.999023438 672.999023438 c 0
 525.666015625 668.33203125 529.333007812 660.665039062 530 649.998046875 c 0
 530 639.998046875 527 630.665039062 521 621.998046875 c 0
 518.333007812 617.998046875 514.666015625 614.998046875 509.999023438 612.998046875 c 0
 507.33203125 611.665039062 504.499023438 610.998046875 501.499023438 610.998046875 c 0
 498.499023438 610.998046875 495.666015625 611.331054688 492.999023438 611.998046875 c 0
 472.999023438 615.331054688 434.33203125 618.331054688 376.999023438 620.998046875 c 1
 376.999023438 610.998046875 l 2
 376.999023438 591.665039062 377.666015625 562.33203125 378.999023438 522.999023438 c 0
 379.666015625 480.999023438 380.666015625 445.33203125 381.999023438 415.999023438 c 0
 383.33203125 387.999023438 383.999023438 353.83203125 383.999023438 313.499023438 c 0
 383.999023438 273.166015625 382.999023438 237.333007812 380.999023438 206 c 0
 376.33203125 146 369.165039062 98 359.498046875 62 c 0
 349.831054688 26 338.6640625 0.8330078125 325.997070312 -13.5 c 0
 313.330078125 -27.8330078125 298.330078125 -35 280.997070312 -35 c 0
 261.6640625 -35 242.331054688 -31.1669921875 222.998046875 -23.5 c 0
 203.665039062 -15.8330078125 186.665039062 -5.666015625 171.998046875 7.0009765625 c 0
 156.665039062 19.66796875 142.165039062 33.66796875 128.498046875 49.0009765625 c 0
 114.831054688 64.333984375 103.498046875 79.5009765625 94.498046875 94.5009765625 c 0
 85.498046875 109.500976562 78.3310546875 123.000976562 72.998046875 135.000976562 c 0
 67.6650390625 147.000976562 64.6650390625 156.66796875 63.998046875 164.000976562 c 0
 63.3310546875 167.333984375 62.998046875 171.000976562 62.998046875 175.000976562 c 0
 62.998046875 183.000976562 64.3310546875 192.000976562 66.998046875 202.000976562 c 0
 68.3310546875 208.66796875 71.498046875 214.16796875 76.498046875 218.500976562 c 0
 81.498046875 222.833984375 87.998046875 225.666992188 95.998046875 227 c 2
 103.998046875 227 l 2
 111.998046875 227.666992188 118.331054688 225.666992188 122.998046875 221 c 0
 129.665039062 214.333007812 132.998046875 206 132.998046875 196 c 0
 132.998046875 176.666992188 138.998046875 154.333984375 150.998046875 129.000976562 c 0
 157.665039062 115.000976562 166.33203125 102.000976562 176.999023438 90.0009765625 c 0
 186.33203125 78.0009765625 199.165039062 67.833984375 215.498046875 59.5009765625 c 0
 231.831054688 51.16796875 249.998046875 47.0009765625 269.998046875 47.0009765625 c 0
 284.665039062 47.0009765625 295.665039062 60.66796875 302.998046875 88.0009765625 c 0
 310.331054688 117.333984375 314.998046875 164.666992188 316.998046875 230 c 2
 316.998046875 254 l 2
 316.998046875 267.333007812 316.498046875 310 315.498046875 382 c 0
 314.8984375 425.202148438 314.598632812 471.404296875 314.598632812 520.606445312 c 0
 314.598632812 553.404296875 314.732421875 587.536132812 314.999023438 623.000976562 c 1
 268.999023438 625.000976562 231 626 201 626 c 0
EndSplineSet
Validated: 524289
EndChar

StartChar: K
Encoding: 75 75 44
Width: 593
GlyphClass: 2
Flags: HMW
HStem: -21.0341 21G 694.001 21G
VStem: 70 79.002 74.002 83
LayerCount: 2
Fore
SplineSet
68 541.5 m 0xe0
 68 556.5 68.66796875 578.333007812 70.0009765625 607 c 0
 71.333984375 635 72.0009765625 652.666992188 72.0009765625 660 c 0
 72.66796875 678.666992188 76.66796875 692.333984375 84.0009765625 701.000976562 c 0
 91.333984375 709.66796875 100.666992188 714.000976562 112 714.000976562 c 2
 115 714.000976562 l 2
 125.666992188 714.66796875 134.666992188 711.000976562 142 703.000976562 c 0
 149.333007812 695.66796875 153 682.334960938 153 663.001953125 c 0
 153 647.668945312 152.333007812 613.001953125 151 559.001953125 c 0
 149.666992188 505.001953125 148.666992188 452.334960938 148 401.001953125 c 1
 182 437.001953125 221.333007812 480.001953125 266 530.001953125 c 0
 355.333007812 625.334960938 408 680.001953125 424 694.001953125 c 0
 432 703.334960938 439.666992188 709.334960938 447 712.001953125 c 0
 451.666992188 714.001953125 455.666992188 715.001953125 459 715.001953125 c 0
 465.666992188 715.001953125 472 711.000976562 478 703.000976562 c 0
 483.333007812 694.333984375 486 685.334960938 486 676.001953125 c 0
 486 667.334960938 480 657.334960938 468 646.001953125 c 0
 458 634.001953125 424 597.668945312 366 537.001953125 c 0
 310.666992188 473.668945312 259.333984375 416.001953125 212.000976562 364.001953125 c 1
 218.000976562 357.001953125 l 2
 239.333984375 333.668945312 275.000976562 296.3359375 325.000976562 245.002929688 c 0
 425.66796875 142.3359375 486.000976562 79.3359375 506.000976562 56.0029296875 c 0
 514.66796875 46.0029296875 520.000976562 39.3359375 522.000976562 36.0029296875 c 0
 524.000976562 32.669921875 525.000976562 29.3369140625 525.000976562 26.00390625 c 0
 525.000976562 20.00390625 524.333984375 14.6708984375 523.000976562 10.00390625 c 0
 519.66796875 0.00390625 514.66796875 -7.6630859375 508.000976562 -12.99609375 c 0
 501.333984375 -18.3291015625 495.000976562 -20.9970703125 489.000976562 -20.9970703125 c 0
 488.60546875 -21.021484375 488.208984375 -21.0341796875 487.811523438 -21.0341796875 c 0
 477.4921875 -21.0341796875 466.555664062 -12.6875 455 4.0029296875 c 0
 447.666992188 13.3359375 424 36.3359375 384 73.0029296875 c 0
 346.666992188 110.3359375 306.333984375 151.3359375 263.000976562 196.002929688 c 0
 219.66796875 244.002929688 187.334960938 282.002929688 166.001953125 310.002929688 c 2
 149.001953125 331.002929688 l 1
 149.001953125 284.002929688 l 1xe0
 157.001953125 24.001953125 l 2
 156.334960938 9.3349609375 151.33203125 -1.9970703125 141.999023438 -9.9970703125 c 0
 132.666015625 -17.9970703125 122.3359375 -21.9970703125 111.002929688 -21.9970703125 c 1
 110.3359375 -27.9970703125 109.3359375 -27.6640625 108.002929688 -20.9970703125 c 1
 97.3359375 -21.6640625 88.6689453125 -17.3310546875 82.001953125 -7.998046875 c 0
 76.6689453125 0.001953125 74.001953125 10.6689453125 74.001953125 24.001953125 c 2
 74.001953125 28.001953125 l 2xd0
 76.001953125 50.001953125 77.001953125 86.6689453125 77.001953125 138.001953125 c 0
 76.3349609375 233.334960938 74 339.001953125 70 455.001953125 c 0
 68.6669921875 497.668945312 68 526.5 68 541.5 c 0xe0
EndSplineSet
Validated: 524289
EndChar

StartChar: L
Encoding: 76 76 45
Width: 593
GlyphClass: 2
Flags: HMW
HStem: -15 67.001
VStem: 97.998 72.0039
LayerCount: 2
Fore
SplineSet
514.5 72.5 m 0
 517.5 68.1669921875 520 63.5 522 58.5 c 0
 524 53.5 525 48.6669921875 525 44 c 0
 525 34 522.833007812 26.5 518.5 21.5 c 0
 514.166992188 16.5 504.666992188 12.6669921875 490 10 c 0
 445.333007812 1.3330078125 380.333007812 -5 295 -9 c 0
 209 -13 144.666992188 -15 102 -15 c 0
 92 -15.6669921875 83.6669921875 -12.333984375 77 -5.0009765625 c 0
 71 0.9990234375 68 9.33203125 68 19.9990234375 c 0
 68 21.9990234375 68.1669921875 24.9990234375 68.5 28.9990234375 c 0
 68.8330078125 32.9990234375 72.666015625 69.9990234375 79.9990234375 139.999023438 c 0
 87.33203125 211.33203125 92.6650390625 279.999023438 95.998046875 345.999023438 c 0
 97.3310546875 363.999023438 97.998046875 388.166015625 97.998046875 418.499023438 c 0
 97.998046875 448.83203125 97.8310546875 471.83203125 97.498046875 487.499023438 c 0
 97.1650390625 503.166015625 96.33203125 554.333007812 94.9990234375 641 c 0
 95.666015625 657 99.8330078125 668.666992188 107.5 676 c 0
 115.166992188 683.333007812 124.333984375 687 135.000976562 687 c 2
 138.000976562 687 l 2
 148.66796875 687 157.66796875 683.666992188 165.000976562 677 c 0
 172.333984375 670.333007812 176.000976562 659.666015625 176.000976562 644.999023438 c 0
 176.223632812 638.7734375 176.334960938 631.732421875 176.334960938 623.875976562 c 0
 176.334960938 608.174804688 175.890625 589.215820312 175.001953125 566.999023438 c 0
 173.001953125 517.666015625 171.334960938 475.333007812 170.001953125 440 c 0
 168.001953125 389.333007812 166.333984375 345.333007812 165.000976562 308 c 0
 164.333984375 280.666992188 162.001953125 240.333984375 158.001953125 187.000976562 c 0
 154.001953125 133.66796875 152.001953125 92.0009765625 152.001953125 62.0009765625 c 2
 152.001953125 52.0009765625 l 1
 176.000976562 52.0009765625 l 2
 225.333984375 52.66796875 282.66796875 56.3349609375 348.000976562 63.001953125 c 0
 416.000976562 69.6689453125 462.66796875 76.001953125 488.000976562 82.001953125 c 0
 490.66796875 82.6689453125 493.16796875 83.001953125 495.500976562 83.001953125 c 0
 497.833984375 83.001953125 500.333984375 82.6689453125 503.000976562 82.001953125 c 0
 507.66796875 80.001953125 511.5 76.8330078125 514.5 72.5 c 0
EndSplineSet
Validated: 524289
EndChar

StartChar: M
Encoding: 77 77 46
Width: 593
GlyphClass: 2
Flags: HMW
HStem: -10 21G<75 80.3335> 684.001 20G
VStem: 46 68.001 252.001 85.999
LayerCount: 2
Fore
SplineSet
103 5 m 0
 95 -5 85.6669921875 -10 75 -10 c 0
 55.6669921875 -9.3330078125 46 13.333984375 46 58.0009765625 c 0
 46 66.0009765625 46.8330078125 79.833984375 48.5 99.5009765625 c 0
 50.1669921875 119.16796875 52.6669921875 145.000976562 56 177.000976562 c 0
 59.3330078125 209.000976562 62 237.000976562 64 261.000976562 c 0
 70 342.333984375 74 394.000976562 76 416.000976562 c 0
 78.6669921875 444.66796875 82 480.000976562 86 522.000976562 c 0
 94 603.333984375 102.333007812 652.333984375 111 669.000976562 c 0
 117.666992188 681.000976562 127 690.000976562 139 696.000976562 c 0
 150.333007812 701.333984375 161 704.000976562 171 704.000976562 c 2
 175 704.000976562 l 2
 186.333007812 704.000976562 195.666015625 702.000976562 202.999023438 698.000976562 c 0
 211.666015625 692.66796875 217.333007812 684.334960938 220 673.001953125 c 0
 227.333007812 643.668945312 235.5 595.3359375 244.5 528.002929688 c 0
 253.5 460.669921875 262.666992188 383.502929688 272 296.502929688 c 0
 281.333007812 209.502929688 288.000976562 152.002929688 292.000976562 124.002929688 c 0
 294.66796875 106.669921875 297.666992188 84 301 56 c 1
 303 83.3330078125 304.666992188 106.002929688 306 124.002929688 c 0
 312 218.669921875 319 303.669921875 327 379.002929688 c 0
 333 434.3359375 340.833007812 489.668945312 350.5 545.001953125 c 0
 360.166992188 600.334960938 368.666992188 643.001953125 376 673.001953125 c 0
 378 681.001953125 382.5 687.668945312 389.5 693.001953125 c 0
 396.5 698.334960938 403.666992188 701.66796875 411 703.000976562 c 0
 416.333007812 703.66796875 421 704.000976562 425 704.000976562 c 2
 435 704.000976562 l 1
 439 704.000976562 l 1
 452 704.000976562 l 2
 455.333007812 704.000976562 459.833007812 703.333984375 465.5 702.000976562 c 0
 471.166992188 700.66796875 475.333984375 698.834960938 478.000976562 696.501953125 c 0
 480.66796875 694.168945312 483.500976562 690.668945312 486.500976562 686.001953125 c 0
 489.500976562 681.334960938 491.66796875 675.334960938 493.000976562 668.001953125 c 0
 495.66796875 647.334960938 503.500976562 547.501953125 516.500976562 368.501953125 c 0
 529.500976562 189.501953125 538.66796875 88.001953125 544.000976562 64.001953125 c 0
 546.000976562 53.3349609375 547.000976562 43.66796875 547.000976562 35.0009765625 c 0
 547.000976562 15.0009765625 540.000976562 1.66796875 526.000976562 -4.9990234375 c 0
 521.333984375 -6.9990234375 516.500976562 -7.9990234375 511.500976562 -7.9990234375 c 0
 506.500976562 -7.9990234375 501.000976562 -6.33203125 495.000976562 -2.9990234375 c 0
 485.000976562 2.333984375 477.000976562 14.333984375 471.000976562 33.0009765625 c 0
 457.000976562 77.0009765625 444.66796875 271.000976562 434.000976562 615.000976562 c 0
 433.333984375 631.66796875 432.666992188 653.000976562 432 679.000976562 c 1
 428 653.66796875 424 633.000976562 420 617.000976562 c 0
 401.333007812 520.333984375 389.333007812 432.333984375 384 353.000976562 c 0
 378.666992188 277.000976562 371.166992188 205.000976562 361.5 137.000976562 c 0
 351.833007812 69.0009765625 344 27.66796875 338 13.0009765625 c 0
 332.666992188 -0.33203125 317.333984375 -6.9990234375 292.000976562 -6.9990234375 c 2
 288.000976562 -6.9990234375 l 2
 278.66796875 -6.9990234375 270.66796875 -5.166015625 264.000976562 -1.4990234375 c 0
 257.333984375 2.16796875 253.333984375 7.3349609375 252.000976562 14.001953125 c 0
 244.66796875 46.001953125 232.334960938 119.168945312 215.001953125 233.501953125 c 0
 197.668945312 347.834960938 181.668945312 458.001953125 167.001953125 564.001953125 c 0
 163.668945312 579.334960938 160.668945312 599.66796875 158.001953125 625.000976562 c 1
 156.001953125 599.66796875 154.001953125 579.334960938 152.001953125 564.001953125 c 0
 147.334960938 505.334960938 143.66796875 457.66796875 141.000976562 421.000976562 c 0
 139.000976562 387.000976562 137.000976562 358.000976562 135.000976562 334.000976562 c 0
 133.000976562 300.66796875 131.000976562 271.66796875 129.000976562 247.000976562 c 0
 127.000976562 219.000976562 124.66796875 190.000976562 122.000976562 160.000976562 c 0
 120.000976562 131.333984375 118.000976562 107.666992188 116.000976562 89 c 0
 114.66796875 75 114.000976562 64 114.000976562 56 c 0
 114.66796875 48 115.000976562 46 115.000976562 46 c 2
 115.000976562 28.6669921875 111 15 103 5 c 0
EndSplineSet
Validated: 524289
EndChar

StartChar: N
Encoding: 78 78 47
Width: 593
GlyphClass: 2
Flags: HMW
HStem: -11.998 21G 685 20G<117.999 125.999 478 486.333>
VStem: 70 63 77.2501 58.7499 450.001 72.999 460.501 62.4988
LayerCount: 2
Fore
SplineSet
483 705 m 0xc8
 489.666992188 705 494.999023438 704.333007812 498.999023438 703 c 0
 502.999023438 701 505.999023438 699 507.999023438 697 c 0
 509.999023438 695 511.666015625 690.666992188 512.999023438 684 c 0
 514.999023438 680 516.33203125 675.666992188 516.999023438 671 c 0
 517.666015625 666.333007812 518.666015625 659 519.999023438 649 c 0
 521.33203125 639.666992188 522.33203125 586.666992188 522.999023438 490 c 2
 522.999023438 448 l 2
 522.999023438 364 521.999023438 285.666992188 519.999023438 213 c 0
 517.999023438 139.666992188 515.666015625 89.6669921875 512.999023438 63 c 0
 510.33203125 35 507.665039062 17.6669921875 504.998046875 11 c 0
 499.665039062 -5.6669921875 484.33203125 -14 458.999023438 -14 c 1
 456.999023438 -20.6669921875 455.33203125 -20.6669921875 453.999023438 -14 c 1
 445.33203125 -14 437.999023438 -11.6669921875 431.999023438 -7 c 0
 425.999023438 -2.3330078125 421.666015625 4 418.999023438 12 c 0
 414.33203125 22.6669921875 398.999023438 52.333984375 372.999023438 101.000976562 c 2
 298.999023438 247.000976562 l 2
 273.666015625 295.66796875 247.333007812 350.334960938 220 411.001953125 c 0
 192 473.001953125 170.333007812 525.668945312 155 569.001953125 c 0
 147 592.334960938 139.333007812 613.334960938 132 632.001953125 c 1
 133.333007812 610.001953125 134.666015625 586.668945312 135.999023438 562.001953125 c 0
 139.33203125 504.668945312 140.999023438 450.001953125 140.999023438 398.001953125 c 0
 140.999023438 384.668945312 140.666015625 359.3359375 139.999023438 322.002929688 c 0
 139.33203125 284.002929688 137.999023438 237.669921875 135.999023438 183.002929688 c 0xd8
 133.999023438 128.3359375 132.999023438 90.6689453125 132.999023438 70.001953125 c 2
 132.999023438 62.001953125 l 2
 133.666015625 57.3349609375 133.999023438 53.3349609375 133.999023438 50.001953125 c 2
 133.999023438 44.001953125 l 2
 133.999023438 24.6689453125 130.666015625 10.6689453125 123.999023438 2.001953125 c 0
 117.33203125 -7.3310546875 108.999023438 -11.998046875 98.9990234375 -11.998046875 c 2
 96.9990234375 -11.998046875 l 2
 92.33203125 -11.998046875 88.33203125 -10.6650390625 84.9990234375 -7.998046875 c 0
 81.666015625 -5.3310546875 78.9990234375 -0.6640625 76.9990234375 6.0029296875 c 0
 72.33203125 16.669921875 69.9990234375 33.0029296875 69.9990234375 55.0029296875 c 0xe0
 69.9990234375 67.669921875 70.9990234375 119.002929688 72.9990234375 209.002929688 c 0
 74.9990234375 299.669921875 76.33203125 378.669921875 76.9990234375 446.002929688 c 0
 77.166015625 462.837890625 77.2490234375 479.505859375 77.2490234375 496.006835938 c 0
 77.2490234375 545.504882812 76.4990234375 593.50390625 74.9990234375 640.002929688 c 2
 74.9990234375 647.002929688 l 2
 75.666015625 657.002929688 77.3330078125 666.002929688 80 674.002929688 c 0
 82.6669921875 682.669921875 86.6669921875 689.336914062 92 694.00390625 c 0
 101.333007812 701.336914062 111.999023438 705 123.999023438 705 c 0
 127.999023438 705 131.666992188 704.670898438 135 704.00390625 c 2
 135.999023438 704.00390625 l 2
 146.666015625 704.00390625 155.666992188 701.666992188 163 697 c 0
 171.666992188 691.666992188 177.666992188 682.00390625 181 668.00390625 c 0
 194.333007812 624.00390625 230.333007812 541.336914062 289 420.00390625 c 0
 347 299.336914062 397.333007812 202.00390625 440 128.00390625 c 0
 445.333007812 115.336914062 450.666015625 106.00390625 455.999023438 100.00390625 c 1
 456.666015625 110.00390625 457.333007812 122.336914062 458 137.00390625 c 0
 459.333007812 179.670898438 460 234.670898438 460 302.00390625 c 0
 460.333984375 318.670898438 460.500976562 336.170898438 460.500976562 354.50390625 c 0xd4
 460.500976562 372.836914062 460.333984375 392.00390625 460.000976562 412.00390625 c 0
 458.000976562 532.670898438 454.66796875 612.337890625 450.000976562 651.004882812 c 1
 450.000976562 657.004882812 l 2
 450.000976562 669.671875 452.66796875 680.338867188 458.000976562 689.005859375 c 0
 464.66796875 699.672851562 473 705 483 705 c 0xc8
EndSplineSet
Validated: 524289
EndChar

StartChar: O
Encoding: 79 79 48
Width: 593
GlyphClass: 2
Flags: HMW
HStem: -23.998 73.999 646.508 71.4923
VStem: 70.999 77.002 445 76.999
LayerCount: 2
Fore
SplineSet
400.999023438 120.001953125 m 0
 413.666015625 137.334960938 423.333007812 157.001953125 430 179.001953125 c 0
 432.666992188 187.668945312 435.5 208.001953125 438.5 240.001953125 c 0
 441.5 272.001953125 443.666992188 309.668945312 445 353.001953125 c 0
 445.666992188 365.668945312 446 378.3359375 446 391.002929688 c 0
 446 422.3359375 444.666992188 453.002929688 442 483.002929688 c 0
 438 529.002929688 423 567.669921875 397 599.002929688 c 0
 373 630.3359375 343.333007812 646.168945312 308 646.501953125 c 0
 307.594726562 646.505859375 307.189453125 646.5078125 306.78515625 646.5078125 c 0
 271.986328125 646.5078125 242.724609375 632.338867188 219 604.000976562 c 0
 195.666992188 576.000976562 178.333984375 537.66796875 167.000976562 489.000976562 c 0
 154.333984375 437.000976562 148.000976562 377.66796875 148.000976562 311.000976562 c 0
 148.66796875 269.66796875 151.000976562 233.334960938 155.000976562 202.001953125 c 0
 157.000976562 183.334960938 161.000976562 164.66796875 167.000976562 146.000976562 c 0
 173.000976562 127.333984375 180.333984375 111.000976562 189.000976562 97.0009765625 c 0
 197.000976562 83.0009765625 207.66796875 71.66796875 221.000976562 63.0009765625 c 0
 234.333984375 54.333984375 249.33203125 50.0009765625 265.999023438 50.0009765625 c 0
 301.33203125 50.0009765625 333.000976562 59.66796875 361.000976562 79.0009765625 c 0
 375.66796875 89.0009765625 388.999023438 102.668945312 400.999023438 120.001953125 c 0
70.9990234375 261 m 2
 70.9990234375 291.666992188 71.3330078125 316.166992188 72 334.5 c 0
 72.6669921875 352.833007812 74 377.333007812 76 408 c 0
 80 467.333007812 91 522 109 572 c 0
 125.666992188 614.666992188 154 649.666992188 194 677 c 0
 230.666992188 704.333007812 272.333984375 718 319.000976562 718 c 0
 342.333984375 718 364.666992188 713 386 703 c 0
 408 693 428.333007812 678.5 447 659.5 c 0
 465.666992188 640.5 481.166992188 616.166992188 493.5 586.5 c 0
 505.833007812 556.833007812 513.666015625 523.333007812 516.999023438 486 c 0
 520.33203125 444.666992188 521.999023438 402.333984375 521.999023438 359.000976562 c 0
 521.999023438 325.66796875 520.83203125 290.834960938 518.499023438 254.501953125 c 0
 516.166015625 218.168945312 511.999023438 188.668945312 505.999023438 166.001953125 c 0
 497.33203125 134.668945312 486.83203125 107.668945312 474.499023438 85.001953125 c 0
 462.166015625 62.3349609375 448.833007812 44.001953125 434.5 30.001953125 c 0
 420.166992188 16.001953125 403.666992188 5.001953125 385 -2.998046875 c 0
 367.666992188 -10.998046875 349.666992188 -16.6650390625 331 -19.998046875 c 0
 312.333007812 -22.6650390625 290.666015625 -23.998046875 265.999023438 -23.998046875 c 0
 230.666015625 -23.998046875 197.999023438 -11.998046875 167.999023438 12.001953125 c 0
 136.666015625 36.001953125 112.666015625 68.001953125 95.9990234375 108.001953125 c 0
 79.33203125 148.001953125 70.9990234375 191.334960938 70.9990234375 238.001953125 c 2
 70.9990234375 243.001953125 l 1
 70.9990234375 261 l 2
EndSplineSet
Validated: 524289
EndChar

StartChar: P
Encoding: 80 80 49
Width: 593
GlyphClass: 2
Flags: HMW
HStem: -19 21G<127.001 133.001 133.001 136.001> 230 71.998 639.996 52.0029
VStem: 90.001 75 97.2011 81.7989 440 73<470.999 514.997>
LayerCount: 2
Fore
SplineSet
168.000976562 630.998046875 m 1xf4
 165.000976562 547.998046875 l 2
 162.8671875 480.26953125 161.80078125 417.874023438 161.80078125 360.810546875 c 0
 161.80078125 346.5390625 161.8671875 332.6015625 162.000976562 318.998046875 c 1
 169.000976562 316.998046875 l 2
 196.333984375 306.998046875 227.000976562 301.998046875 261.000976562 301.998046875 c 0
 279.000976562 301.998046875 295.500976562 303.498046875 310.500976562 306.498046875 c 0
 325.500976562 309.498046875 338.66796875 313.498046875 350.000976562 318.498046875 c 0
 361.333984375 323.498046875 371.333984375 329.998046875 380.000976562 337.998046875 c 0
 389.333984375 345.998046875 397.333984375 354.165039062 404.000976562 362.498046875 c 0
 410.66796875 370.831054688 416.334960938 380.331054688 421.001953125 390.998046875 c 0
 425.668945312 401.665039062 429.168945312 411.498046875 431.501953125 420.498046875 c 0
 433.834960938 429.498046875 435.66796875 439.665039062 437.000976562 450.998046875 c 0
 438.333984375 462.331054688 439.166992188 471.6640625 439.5 478.997070312 c 0
 439.833007812 486.330078125 440 494.997070312 440 504.997070312 c 0
 440 524.997070312 436.333007812 543.1640625 429 559.497070312 c 0
 421.666992188 575.830078125 412.333007812 588.997070312 401 598.997070312 c 0
 390.333007812 608.330078125 378.500976562 616.163085938 365.500976562 622.49609375 c 0
 352.500976562 628.829101562 340.16796875 633.329101562 328.500976562 635.99609375 c 0
 316.833984375 638.663085938 305.333007812 639.99609375 294 639.99609375 c 0
 273.333007812 639.99609375 231.333984375 636.998046875 168.000976562 630.998046875 c 1xf4
89 626 m 1
 87.6669921875 621.333007812 86 622.998046875 84 630.998046875 c 0
 81.3330078125 635.665039062 80 640 80 644 c 0
 80.6669921875 644.666992188 81 645.666992188 81 647 c 0
 81.6669921875 653.666992188 84.1669921875 659.5 88.5 664.5 c 0
 92.8330078125 669.5 97.3330078125 672.666992188 102 674 c 0
 125.333007812 679.333007812 160 683.666015625 206 686.999023438 c 0
 248 690.33203125 277.333007812 691.999023438 294 691.999023438 c 0
 334 691.999023438 369.666992188 684.33203125 401 668.999023438 c 0
 435 653.666015625 462 630.666015625 482 599.999023438 c 0
 502 569.33203125 512.333007812 532.33203125 513 488.999023438 c 0
 513 452.999023438 507.166992188 419.166015625 495.5 387.499023438 c 0
 483.833007812 355.83203125 467.833007812 328.33203125 447.5 304.999023438 c 0
 427.166992188 281.666015625 403 263.333007812 375 250 c 0
 348.333007812 236.666992188 319.333007812 230 288 230 c 0
 241.333007812 230 204 233.333007812 176 240 c 1
 171.333007812 234.666992188 167 235.666992188 163 243 c 1
 165.666992188 189.666992188 169.666992188 130.666992188 175 66 c 0
 177.666992188 35.3330078125 179 17.666015625 179 12.9990234375 c 2
 179 11.9990234375 l 2
 179 2.666015625 175 -4.6669921875 167 -10 c 0
 157.666992188 -16 147.333984375 -19 136.000976562 -19 c 2
 133.000976562 -19 l 2
 121.000976562 -19 111.333984375 -15.6669921875 104.000976562 -9 c 0
 98.66796875 -3.6669921875 96.0009765625 3.666015625 96.0009765625 12.9990234375 c 0
 96.0009765625 14.9990234375 96.16796875 20.166015625 96.5009765625 28.4990234375 c 0
 96.833984375 36.83203125 97.0009765625 55.6650390625 97.0009765625 84.998046875 c 0
 97.134765625 91.7998046875 97.201171875 100.109375 97.201171875 109.926757812 c 0xec
 97.201171875 149.180664062 96.134765625 212.538085938 94.0009765625 299.998046875 c 0
 92.0009765625 371.998046875 91.0009765625 420.998046875 91.0009765625 446.998046875 c 0
 90.333984375 462.998046875 90.0009765625 484.498046875 90.0009765625 511.498046875 c 0
 90.0009765625 538.498046875 90.66796875 575.665039062 92.0009765625 622.998046875 c 1
 90.66796875 617.665039062 89.6669921875 618.666992188 89 626 c 1
EndSplineSet
Validated: 524289
EndChar

StartChar: Q
Encoding: 81 81 50
Width: 593
GlyphClass: 2
Flags: HMW
HStem: -24.0667 74.0667 646.001 71.999
VStem: 66.999 75.998 263.994 51.0039 444.997 74.002
LayerCount: 2
Fore
SplineSet
214 -11 m 0
 192 -1.6669921875 171.999023438 11.166015625 153.999023438 27.4990234375 c 0
 135.999023438 43.83203125 120.666015625 63.33203125 107.999023438 85.9990234375 c 0
 83.33203125 129.999023438 69.6650390625 182.666015625 66.998046875 243.999023438 c 2
 66.998046875 295.999023438 l 2
 66.9814453125 298.634765625 66.9736328125 301.259765625 66.9736328125 303.874023438 c 0
 66.9736328125 408.397460938 79.9814453125 496.10546875 105.998046875 566.999023438 c 0
 121.331054688 609.666015625 149.331054688 645.333007812 189.998046875 674 c 0
 227.998046875 703.333007812 269.998046875 718 315.998046875 718 c 0
 363.998046875 717.333007812 405.998046875 699.333007812 441.998046875 664 c 0
 459.998046875 646.666992188 475.331054688 622.833984375 487.998046875 592.500976562 c 0
 500.665039062 562.16796875 508.998046875 527.66796875 512.998046875 489.000976562 c 0
 516.998046875 450.333984375 518.998046875 406.000976562 518.998046875 356.000976562 c 0
 518.998046875 269.333984375 514.665039062 204.000976562 505.998046875 160.000976562 c 0
 491.998046875 89.333984375 460.665039062 39.0009765625 411.998046875 9.0009765625 c 0
 408.665039062 2.333984375 405.665039062 0.6669921875 402.998046875 4 c 1
 420.331054688 -21.3330078125 436.6640625 -44.3330078125 451.997070312 -65 c 0
 466.6640625 -85 477.497070312 -99.5 484.497070312 -108.5 c 0
 491.497070312 -117.5 503.997070312 -133.666992188 521.997070312 -157 c 0
 524.6640625 -160.333007812 525.997070312 -164.333007812 525.997070312 -169 c 2
 525.997070312 -173 l 2
 524.6640625 -180.333007812 522.1640625 -187.166015625 518.497070312 -193.499023438 c 0
 514.830078125 -199.83203125 510.997070312 -204.33203125 506.997070312 -206.999023438 c 0
 501.6640625 -210.33203125 495.997070312 -211.999023438 489.997070312 -211.999023438 c 0
 487.330078125 -211.999023438 484.330078125 -211.666015625 480.997070312 -210.999023438 c 0
 470.997070312 -207.666015625 461.997070312 -201.333007812 453.997070312 -192 c 0
 443.997070312 -180.666992188 427.997070312 -158.666992188 405.997070312 -126 c 0
 385.997070312 -93.3330078125 364.997070312 -58 342.997070312 -20 c 1
 340.997070312 -26.6669921875 338.997070312 -27 336.997070312 -21 c 1
 321.6640625 -23 304.6640625 -24 285.997070312 -24 c 0
 284.263671875 -24.044921875 282.5390625 -24.0673828125 280.823242188 -24.0673828125 c 0
 256.806640625 -24.0673828125 234.533203125 -19.7109375 214 -11 c 0
302.997070312 208.999023438 m 0
 307.6640625 205.666015625 311.6640625 199.333007812 314.997070312 190 c 0
 325.6640625 156.666992188 341.6640625 120.333984375 362.997070312 81.0009765625 c 2
 367.997070312 71.0009765625 l 1
 375.997070312 77.0009765625 l 2
 405.330078125 98.333984375 424.663085938 131.333984375 433.99609375 176.000976562 c 0
 435.99609375 185.333984375 438.329101562 205.666992188 440.99609375 237 c 0
 442.99609375 267.666992188 444.329101562 306 444.99609375 352 c 2
 444.99609375 368 l 2
 445.079101562 373.084960938 445.12109375 378.138671875 445.12109375 383.161132812 c 0
 445.12109375 418.305664062 443.079101562 451.918945312 438.99609375 484.000976562 c 0
 432.99609375 532.66796875 417.663085938 572.000976562 392.99609375 602.000976562 c 0
 370.329101562 631.333984375 340.99609375 646.000976562 304.99609375 646.000976562 c 0
 268.99609375 646.000976562 238.99609375 632.333984375 214.99609375 605.000976562 c 0
 190.99609375 577.66796875 173.329101562 539.66796875 161.99609375 491.000976562 c 0
 149.329101562 439.000976562 142.99609375 383.66796875 142.99609375 325.000976562 c 2
 142.99609375 321.000976562 l 2
 143.663085938 302.333984375 144.663085938 282.666992188 145.99609375 262 c 0
 148.663085938 221.333007812 156.163085938 185.5 168.49609375 154.5 c 0
 180.829101562 123.5 197.162109375 98.3330078125 217.495117188 79 c 0
 237.828125 59.6669921875 260.661132812 50 285.994140625 50 c 2
 294.994140625 50 l 1
 309.994140625 50 l 1
 302.994140625 65 l 2
 288.327148438 94.3330078125 278.16015625 116.833007812 272.493164062 132.5 c 0
 266.826171875 148.166992188 263.993164062 161.666992188 263.993164062 173 c 0
 263.993164062 187 268.66015625 198 277.993164062 206 c 0
 283.326171875 210.666992188 288.326171875 213 292.993164062 213 c 0
 296.326171875 213 299.6640625 211.666015625 302.997070312 208.999023438 c 0
EndSplineSet
Validated: 524289
EndChar

StartChar: R
Encoding: 82 82 51
Width: 593
GlyphClass: 2
Flags: HMW
HStem: -18.998 21G 280.633 68.3692 675.001 20G
VStem: 71.999 76.001 76 83.998 80.6663 59.3317 81.499 70.5 437.997 72.0029
LayerCount: 2
Fore
SplineSet
416 504.000976562 m 0xe3
 401.333007812 522.66796875 383.999023438 538.834960938 363.999023438 552.501953125 c 0
 343.999023438 566.168945312 321.666015625 578.668945312 296.999023438 590.001953125 c 0
 250.33203125 610.668945312 204.33203125 625.001953125 158.999023438 633.001953125 c 2
 147.999023438 635.001953125 l 1xf1
 149.33203125 578.334960938 150.665039062 532.334960938 151.998046875 497.001953125 c 0
 151.998046875 485.001953125 150.997070312 465.334960938 148.997070312 438.001953125 c 0
 148.330078125 429.334960938 145.6640625 400.334960938 140.997070312 351.001953125 c 1
 148.997070312 350.001953125 l 2
 157.758789062 348.477539062 168.479492188 347.715820312 181.159179688 347.715820312 c 0
 190.669921875 347.715820312 201.282226562 348.14453125 212.997070312 349.001953125 c 0
 290.997070312 352.334960938 344.330078125 359.334960938 372.997070312 370.001953125 c 0
 384.330078125 374.001953125 394.997070312 379.334960938 404.997070312 386.001953125 c 0
 426.997070312 400.001953125 437.997070312 419.668945312 437.997070312 445.001953125 c 0
 437.997070312 465.668945312 430.666992188 485.333984375 416 504.000976562 c 0xe3
450.999023438 3 m 0
 440.33203125 17 424.994140625 34.66796875 404.994140625 56.0009765625 c 0
 386.994140625 76.66796875 365.1640625 99.5009765625 339.497070312 124.500976562 c 0
 313.830078125 149.500976562 284.663085938 174.333984375 251.99609375 199.000976562 c 0
 219.329101562 223.66796875 186.329101562 243.334960938 152.99609375 258.001953125 c 1
 148.329101562 253.334960938 143.662109375 255.334960938 138.995117188 264.001953125 c 1
 139.662109375 252.668945312 139.995117188 249.001953125 139.995117188 249.001953125 c 2xe5
 141.328125 210.334960938 144.995117188 163.001953125 150.995117188 107.001953125 c 0
 156.995117188 51.001953125 159.995117188 19.3349609375 159.995117188 12.001953125 c 0
 159.328125 2.6689453125 154.995117188 -4.6640625 146.995117188 -9.9970703125 c 0
 137.662109375 -15.9970703125 127.329101562 -18.9970703125 115.99609375 -18.9970703125 c 2
 112.99609375 -18.9970703125 l 2
 101.663085938 -18.9970703125 92.330078125 -15.6640625 84.9970703125 -8.9970703125 c 0
 78.9970703125 -3.6640625 75.9970703125 3.6689453125 75.9970703125 13.001953125 c 0xe9
 76.6640625 14.3349609375 76.9970703125 16.3349609375 76.9970703125 19.001953125 c 0
 78.9970703125 53.6689453125 80.1640625 83.501953125 80.4970703125 108.501953125 c 0
 80.6083984375 116.827148438 80.6640625 129.051757812 80.6640625 145.176757812 c 0xe5
 80.6640625 177.473632812 80.44140625 225.415039062 79.99609375 289.000976562 c 2
 79.99609375 305.500976562 l 2
 79.99609375 314.500976562 80.49609375 333.000976562 81.49609375 361.000976562 c 0xe3
 82.49609375 389.000976562 82.99609375 412.833984375 82.99609375 432.500976562 c 0
 82.99609375 452.16796875 82.6630859375 472.000976562 81.99609375 492.000976562 c 0
 81.3291015625 512.000976562 79.49609375 541.500976562 76.49609375 580.500976562 c 0
 73.49609375 619.500976562 71.99609375 642.66796875 71.99609375 650.000976562 c 2
 71.99609375 656.000976562 l 1
 71.99609375 659.000976562 l 2xf1
 71.99609375 667.000976562 75.6630859375 674.66796875 82.99609375 682.000976562 c 0
 89.6630859375 690.66796875 99.330078125 695.000976562 111.997070312 695.000976562 c 0
 122.6640625 695.000976562 130.997070312 692.66796875 136.997070312 688.000976562 c 1
 138.330078125 681.333984375 139.328125 681.000976562 139.995117188 687.000976562 c 1xe5
 193.995117188 684.333984375 241.497070312 677.166992188 282.497070312 665.5 c 0
 323.497070312 653.833007812 357.330078125 639.666015625 383.997070312 622.999023438 c 0
 411.997070312 606.33203125 435.830078125 587.33203125 455.497070312 565.999023438 c 0
 475.1640625 544.666015625 489.1640625 523.499023438 497.497070312 502.499023438 c 0
 505.830078125 481.499023438 509.997070312 460.33203125 509.997070312 438.999023438 c 0
 509.997070312 408.33203125 502.330078125 382.999023438 486.997070312 362.999023438 c 0
 479.6640625 353.666015625 469.997070312 345.166015625 457.997070312 337.499023438 c 0
 445.997070312 329.83203125 432.997070312 323.33203125 418.997070312 317.999023438 c 0
 405.6640625 312.666015625 390.327148438 307.833007812 372.994140625 303.5 c 0
 355.661132812 299.166992188 338.165039062 295.833984375 320.498046875 293.500976562 c 0
 302.831054688 291.16796875 282.998046875 289.000976562 260.998046875 287.000976562 c 0
 255.208984375 282.755859375 249.307617188 280.6328125 243.294921875 280.6328125 c 0
 238.921875 280.6328125 234.490234375 281.755859375 229.999023438 284.000976562 c 1
 237.799804688 273.201171875 245.870117188 267.801757812 254.209960938 267.801757812 c 0
 255.13671875 267.801757812 256.06640625 267.868164062 257 268.000976562 c 0
 317.666992188 234.000976562 371.666015625 194.333984375 418.999023438 149.000976562 c 0
 469.666015625 103.000976562 503 64.333984375 519 33.0009765625 c 0
 520.333007812 28.333984375 521 23.833984375 521 19.5009765625 c 0
 521 15.16796875 520.333007812 11.0009765625 519 7.0009765625 c 0
 515.666992188 -0.33203125 510.666992188 -6.33203125 504 -10.9990234375 c 0
 498 -15.666015625 492 -17.9990234375 486 -17.9990234375 c 0
 473.333007812 -17.9990234375 461.666015625 -11 450.999023438 3 c 0
EndSplineSet
Validated: 524289
EndChar

StartChar: S
Encoding: 83 83 52
Width: 593
GlyphClass: 2
Flags: HMW
HStem: -29.0049 67.0049 664.997 59.1678
VStem: 95.002 81 447.999 80.0039
LayerCount: 2
Fore
SplineSet
66 102 m 0
 68 110.666992188 73.3330078125 117 82 121 c 0
 89.3330078125 124.333007812 94.5 126.333007812 97.5 127 c 0
 100.5 127.666992188 103 128 105 128 c 2
 111 128 l 2
 115 128 119.166992188 126 123.5 122 c 0
 127.833007812 118 132.666015625 112 137.999023438 104 c 0
 151.33203125 84 168.999023438 68 190.999023438 56 c 0
 211.666015625 44 234.999023438 38 260.999023438 38 c 0
 276.33203125 38 292.499023438 40.3330078125 309.499023438 45 c 0
 326.499023438 49.6669921875 342.999023438 56.6669921875 358.999023438 66 c 0
 374.999023438 75.3330078125 389.33203125 86.666015625 401.999023438 99.9990234375 c 0
 415.33203125 113.33203125 426.33203125 128.999023438 434.999023438 146.999023438 c 0
 443.666015625 164.999023438 447.999023438 183.999023438 447.999023438 203.999023438 c 0
 447.999023438 214.666015625 447.33203125 224.499023438 445.999023438 233.499023438 c 0
 444.666015625 242.499023438 441.833007812 252.166015625 437.5 262.499023438 c 0
 433.166992188 272.83203125 427.666992188 282.33203125 421 290.999023438 c 0
 414.333007812 299.666015625 405.333007812 308.333007812 394 317 c 0
 382.666992188 325.666992188 369.833984375 333 355.500976562 339 c 0
 341.16796875 345 323.500976562 350.666992188 302.500976562 356 c 0
 281.500976562 361.333007812 258.333984375 365.666015625 233.000976562 368.999023438 c 0
 212.333984375 371.666015625 193.333984375 377.666015625 176.000976562 386.999023438 c 0
 157.333984375 396.33203125 142.333984375 407.83203125 131.000976562 421.499023438 c 0
 119.66796875 435.166015625 110.834960938 449.666015625 104.501953125 464.999023438 c 0
 98.1689453125 480.33203125 95.001953125 495.33203125 95.001953125 509.999023438 c 0
 95.001953125 531.999023438 98.6689453125 553.33203125 106.001953125 573.999023438 c 0
 113.334960938 594.666015625 124.66796875 614.166015625 140.000976562 632.499023438 c 0
 155.333984375 650.83203125 173.666992188 666.665039062 195 679.998046875 c 0
 215 693.331054688 239.166992188 703.998046875 267.5 711.998046875 c 0
 295.833007812 719.998046875 326.333007812 723.998046875 359 723.998046875 c 0
 361.66796875 724.109375 364.521484375 724.165039062 367.560546875 724.165039062 c 0
 382.745117188 724.165039062 402.55859375 722.776367188 427 719.999023438 c 0
 457.666992188 716.666015625 478.333984375 712.999023438 489.000976562 708.999023438 c 0
 499.66796875 704.999023438 507.000976562 698.999023438 511.000976562 690.999023438 c 0
 515.000976562 684.33203125 517.000976562 677.665039062 517.000976562 670.998046875 c 0
 517.000976562 662.331054688 515.000976562 655.998046875 511.000976562 651.998046875 c 0
 508.333984375 648.665039062 505.000976562 646.83203125 501.000976562 646.499023438 c 0
 497.000976562 646.166015625 493.333984375 645.999023438 490.000976562 645.999023438 c 0
 480.66796875 645.999023438 471.66796875 647.666015625 463.000976562 650.999023438 c 0
 451.000976562 654.33203125 441.333984375 656.665039062 434.000976562 657.998046875 c 0
 426.66796875 659.331054688 415.334960938 660.6640625 400.001953125 661.997070312 c 0
 385.334960938 663.997070312 369.001953125 664.997070312 351.001953125 664.997070312 c 0
 322.334960938 664.997070312 295.001953125 660.330078125 269.001953125 650.997070312 c 0
 242.334960938 640.997070312 220.334960938 625.997070312 203.001953125 605.997070312 c 0
 185.001953125 585.997070312 176.001953125 562.997070312 176.001953125 536.997070312 c 0
 176.668945312 506.997070312 188.668945312 481.997070312 212.001953125 461.997070312 c 0
 234.001953125 441.997070312 264.668945312 430.997070312 304.001953125 428.997070312 c 0
 338.001953125 426.997070312 367.668945312 421.330078125 393.001953125 411.997070312 c 0
 419.668945312 402.6640625 441.3359375 391.331054688 458.002929688 377.998046875 c 0
 474.669921875 364.665039062 488.502929688 348.998046875 499.502929688 330.998046875 c 0
 510.502929688 312.998046875 518.002929688 295.331054688 522.002929688 277.998046875 c 0
 526.002929688 260.665039062 528.002929688 241.998046875 528.002929688 221.998046875 c 0
 528.002929688 191.331054688 523.002929688 162.6640625 513.002929688 135.997070312 c 0
 503.002929688 109.330078125 489.169921875 86.1630859375 471.502929688 66.49609375 c 0
 453.8359375 46.8291015625 433.002929688 29.662109375 409.002929688 14.9951171875 c 0
 387.669921875 0.328125 364.002929688 -10.671875 338.002929688 -18.0048828125 c 0
 312.002929688 -25.337890625 285.3359375 -29.0048828125 258.002929688 -29.0048828125 c 0
 216.002929688 -29.0048828125 178.002929688 -20.0048828125 144.002929688 -2.0048828125 c 0
 110.002929688 15.9951171875 86.669921875 37.662109375 74.0029296875 62.9951171875 c 0
 68.0029296875 75.662109375 65.0029296875 86.3291015625 65.0029296875 94.99609375 c 0
 65.0029296875 97.6630859375 65.3330078125 100 66 102 c 0
EndSplineSet
Validated: 524289
EndChar

StartChar: T
Encoding: 84 84 53
Width: 593
GlyphClass: 2
Flags: HMW
HStem: 612 69<492.001 494.001 490.001 498.334> 640.499 54.499
VStem: 260 75 270 76.001
LayerCount: 2
Fore
SplineSet
103 694 m 0x60
 140.333007812 688 270.000976562 683.666992188 492.000976562 681 c 0
 504.66796875 681 513.66796875 678 519.000976562 672 c 0
 524.333984375 666 527.333984375 658.666992188 528.000976562 650 c 0
 528.000976562 639.333007812 524.66796875 630 518.000976562 622 c 0
 512.66796875 615.333007812 504.66796875 612 494.000976562 612 c 2
 490.000976562 612 l 2
 471.333984375 610.366210938 452.87109375 609.549804688 434.612304688 609.549804688 c 0
 400.704101562 609.549804688 367.5 612.366210938 335 618 c 1xa0
 335.666992188 475.333007812 339.333984375 277.333007812 346.000976562 24 c 0
 345.333984375 12.6669921875 340.666992188 3.6669921875 332 -3 c 0
 323.333007812 -9.6669921875 314 -13 304 -13 c 1
 302.666992188 -19.6669921875 301.666992188 -19.6669921875 301 -13 c 1
 291 -13 283 -9.3330078125 277 -2 c 0
 272.333007812 3.3330078125 270 11 270 21 c 0x90
 270 23 270.166992188 26.6669921875 270.5 32 c 0
 270.833007812 37.3330078125 271 51.666015625 271 74.9990234375 c 0
 271 122.999023438 269.166992188 208.33203125 265.5 330.999023438 c 0
 261.833007812 453.666015625 260 540.999023438 260 592.999023438 c 2
 260 619.999023438 l 1
 171.333007812 624.666015625 120.333007812 627.999023438 107 629.999023438 c 0
 93.6669921875 631.999023438 83.333984375 635.499023438 76.0009765625 640.499023438 c 0
 68.66796875 645.499023438 65.0009765625 651.999023438 65.0009765625 659.999023438 c 1
 64.333984375 653.999023438 64.0009765625 654.666015625 64.0009765625 661.999023438 c 0
 64.0009765625 671.33203125 67.333984375 679.665039062 74.0009765625 686.998046875 c 0
 78.66796875 692.331054688 85.3349609375 694.998046875 94.001953125 694.998046875 c 0
 96.6689453125 694.998046875 99.6669921875 694.666992188 103 694 c 0x60
EndSplineSet
Validated: 524289
EndChar

StartChar: U
Encoding: 85 85 54
Width: 593
GlyphClass: 2
Flags: HMW
HStem: -28.999 71 669.52 20G
VStem: 60.0762 73.9219 458.999 74.001
LayerCount: 2
Fore
SplineSet
529 250 m 0
 528.333007812 220.666992188 524.5 193.334960938 517.5 168.001953125 c 0
 510.5 142.668945312 502 120.668945312 492 102.001953125 c 0
 482 83.3349609375 470.166992188 66.501953125 456.5 51.501953125 c 0
 442.833007812 36.501953125 428.333007812 24.001953125 413 14.001953125 c 0
 399 4.001953125 384.333007812 -4.1650390625 369 -10.498046875 c 0
 353.666992188 -16.8310546875 338.666992188 -21.498046875 324 -24.498046875 c 0
 309.333007812 -27.498046875 294.166015625 -28.998046875 278.499023438 -28.998046875 c 0
 262.83203125 -28.998046875 246.33203125 -26.498046875 228.999023438 -21.498046875 c 0
 211.666015625 -16.498046875 193.666015625 -7.6650390625 174.999023438 5.001953125 c 0
 154.999023438 17.6689453125 137.33203125 33.501953125 121.999023438 52.501953125 c 0
 106.666015625 71.501953125 93.666015625 96.001953125 82.9990234375 126.001953125 c 0
 72.33203125 156.001953125 66.33203125 190.334960938 64.9990234375 229.001953125 c 0
 61.716796875 353.721679688 60.076171875 453.825195312 60.076171875 529.3125 c 0
 60.076171875 576.490234375 60.716796875 614.053710938 61.9990234375 642.001953125 c 0
 61.9990234375 657.334960938 66.166015625 669.16796875 74.4990234375 677.500976562 c 0
 82.51171875 685.513671875 91.9111328125 689.520507812 102.698242188 689.520507812 c 0
 103.12890625 689.520507812 103.5625 689.513671875 103.998046875 689.500976562 c 0
 115.331054688 689.16796875 123.331054688 685.334960938 127.998046875 678.001953125 c 0
 131.998046875 671.334960938 133.998046875 661.334960938 133.998046875 648.001953125 c 0
 134.665039062 422.001953125 136.665039062 285.334960938 139.998046875 238.001953125 c 0
 141.331054688 215.334960938 143.6640625 196.334960938 146.997070312 181.001953125 c 0
 150.330078125 165.668945312 155.997070312 149.168945312 163.997070312 131.501953125 c 0
 171.997070312 113.834960938 181.330078125 98.66796875 191.997070312 86.0009765625 c 0
 202.6640625 73.333984375 216.1640625 62.833984375 232.497070312 54.5009765625 c 0
 248.830078125 46.16796875 267.330078125 42.0009765625 287.997070312 42.0009765625 c 0
 334.6640625 42.66796875 372.331054688 59.66796875 400.998046875 93.0009765625 c 0
 431.665039062 126.333984375 449.33203125 176.666992188 453.999023438 244 c 0
 455.999023438 272.666992188 457.33203125 305.166992188 457.999023438 341.5 c 0
 458.666015625 377.833007812 458.999023438 405 458.999023438 423 c 0
 458.999023438 441 458.83203125 469.833007812 458.499023438 509.5 c 0
 458.166015625 549.166992188 457.999023438 590.666992188 457.999023438 634 c 0
 457.999023438 661.333007812 461.666015625 678 468.999023438 684 c 0
 472.33203125 686.666992188 475.83203125 688.5 479.499023438 689.5 c 0
 483.166015625 690.5 487.999023438 691 493.999023438 691 c 0
 503.33203125 691 511.33203125 687.166992188 517.999023438 679.5 c 0
 524.666015625 671.833007812 528.333007812 660.333007812 529 645 c 0
 531.666992188 593 533 534 533 468 c 0
 533 402 531.666992188 329.333007812 529 250 c 0
EndSplineSet
Validated: 524289
EndChar

